<?xml version="1.0" encoding="utf-8"?><svg viewBox="0 0 512 512" xmlns="http://www.w3.org/2000/svg" xmlns:xlink="http://www.w3.org/1999/xlink"><style>:root>svg{display:none}:root>svg:target{display:block}</style><svg viewBox="0 0 288 512" id="dollar" xmlns="http://www.w3.org/2000/svg"><path d="M209.2 233.4l-108-31.6C88.7 198.2 80 186.5 80 173.5c0-16.3 13.2-29.5 29.5-29.5h66.3c12.2 0 24.2 3.7 34.2 10.5 6.1 4.1 14.3 3.1 19.5-2l34.8-34c7.1-6.9 6.1-18.4-1.8-24.5C238 74.8 207.4 64.1 176 64V16c0-8.8-7.2-16-16-16h-32c-8.8 0-16 7.2-16 16v48h-2.5C45.8 64-5.4 118.7.5 183.6c4.2 46.1 39.4 83.6 83.8 96.6l102.5 30c12.5 3.7 21.2 15.3 21.2 28.3 0 16.3-13.2 29.5-29.5 29.5h-66.3C100 368 88 364.3 78 357.5c-6.1-4.1-14.3-3.1-19.5 2l-34.8 34c-7.1 6.9-6.1 18.4 1.8 24.5 24.5 19.2 55.1 29.9 86.5 30v48c0 8.8 7.2 16 16 16h32c8.8 0 16-7.2 16-16v-48.2c46.6-.9 90.3-28.6 105.7-72.7 21.5-61.6-14.6-124.8-72.5-141.7z"/></svg><svg viewBox="0 0 512 512" id="down_angle" xmlns="http://www.w3.org/2000/svg"><path d="M396.6 160l19.4 20.7L256 352 96 180.7l19.3-20.7L256 310.5z"/></svg><svg viewBox="0 0 19 19" id="dribble" xmlns="http://www.w3.org/2000/svg"><path d="M13.92 16.338c-.079-.463-.489-2.72-1.496-5.489 2.48-.397 4.63.284 4.79.336a7.687 7.687 0 01-3.294 5.153zm-4.295 1.313a7.655 7.655 0 01-4.897-1.762c.102.082.173.134.173.134s1.473-3.213 6.031-4.8c.016-.008.034-.01.051-.017 1.082 2.81 1.528 5.163 1.643 5.835a7.68 7.68 0 01-3 .61h-.001zM1.939 9.964c0-.082.004-.162.006-.243.136.003 3.934.09 7.89-1.095.22.43.43.87.624 1.307a4.994 4.994 0 00-.303.092c-4.147 1.34-6.251 5.071-6.251 5.071l.003.004a7.656 7.656 0 01-1.97-5.136zm4.406-6.95A45.84 45.84 0 019.2 7.442c-3.69.98-6.894.942-7.096.938a7.688 7.688 0 014.24-5.366zm1.439-.513l-.001.003-.024.004.025-.006zM14.7 4.197c-.02.03-1.114 1.695-4.016 2.782a39.033 39.033 0 00-2.87-4.484 7.654 7.654 0 016.888 1.702H14.7zm2.607 5.69c-.11-.024-2.711-.584-5.352-.252l-.166-.395c-.16-.376-.331-.748-.511-1.116 3.034-1.24 4.267-3.02 4.281-3.04a7.656 7.656 0 011.748 4.803zm1.134-1.734a8.993 8.993 0 00-3.786-5.65 8.969 8.969 0 00-1.527-.83 9.017 9.017 0 00-7.008 0 9.023 9.023 0 00-3.958 3.26 8.954 8.954 0 00-1.537 5.03 8.91 8.91 0 00.708 3.503 9.018 9.018 0 004.788 4.789c.544.231 1.11.407 1.69.524a8.967 8.967 0 006.845-1.354 8.986 8.986 0 003.785-9.273h.002z"/></svg><svg viewBox="0 0 100.354 100.352" id="email" xmlns="http://www.w3.org/2000/svg"><path d="M93.09 76.224c.047-.145.079-.298.079-.459V22.638c0-.162-.032-.316-.08-.462-.007-.02-.011-.04-.019-.06a1.492 1.492 0 00-.276-.46c-.008-.009-.009-.02-.017-.029-.005-.005-.011-.007-.016-.012a1.504 1.504 0 00-.442-.323c-.013-.006-.023-.014-.036-.02a1.48 1.48 0 00-.511-.123c-.018-.001-.035-.005-.053-.005-.017-.001-.032-.005-.049-.005H8.465c-.017 0-.033.004-.05.005l-.048.005a1.497 1.497 0 00-.518.125c-.01.004-.018.011-.028.015-.17.081-.321.191-.448.327-.005.005-.011.006-.016.011-.008.008-.009.019-.017.028a1.5 1.5 0 00-.277.461c-.008.02-.012.04-.019.061-.048.146-.08.3-.08.462v53.128c0 .164.033.32.082.468l.018.059a1.5 1.5 0 00.28.462c.007.008.009.018.016.026.006.007.014.011.021.018.049.051.103.096.159.14.025.019.047.042.073.06.066.046.137.083.21.117.018.008.034.021.052.028.181.077.38.121.589.121h83.204c.209 0 .408-.043.589-.121.028-.012.054-.03.081-.044.062-.031.124-.063.181-.102.03-.021.057-.048.086-.071.051-.041.101-.082.145-.129l.025-.022c.008-.009.01-.021.018-.03a1.5 1.5 0 00.275-.458c.01-.022.015-.043.022-.065zM9.965 26.04l25.247 23.061L9.965 72.346V26.04zm51.746 21.931c-.104.068-.214.125-.301.221-.033.036-.044.083-.073.121l-11.27 10.294-37.736-34.469h75.472L61.711 47.971zm-24.275 3.161l11.619 10.613a1.496 1.496 0 002.023 0l11.475-10.481 25.243 23.002H12.309l25.127-23.134zm27.342-1.9L90.169 26.04v46.33L64.778 49.232z"/></svg><svg viewBox="0 0 56.693 56.693" id="facebook" xmlns="http://www.w3.org/2000/svg"><path d="M40.43 21.739h-7.645v-5.014c0-1.883 1.248-2.322 2.127-2.322h5.395V6.125l-7.43-.029c-8.248 0-10.125 6.174-10.125 10.125v5.518h-4.77v8.53h4.77v24.137h10.033V30.269h6.77l.875-8.53z"/></svg><svg viewBox="0 0 56.7 56.7" id="instagram" xmlns="http://www.w3.org/2000/svg"><path d="M28.2 16.7c-7 0-12.8 5.7-12.8 12.8s5.7 12.8 12.8 12.8S41 36.5 41 29.5s-5.8-12.8-12.8-12.8zm0 21c-4.5 0-8.2-3.7-8.2-8.2s3.7-8.2 8.2-8.2 8.2 3.7 8.2 8.2-3.7 8.2-8.2 8.2z"/><circle cx="41.5" cy="16.4" r="2.9"/><path d="M49 8.9c-2.6-2.7-6.3-4.1-10.5-4.1H17.9c-8.7 0-14.5 5.8-14.5 14.5v20.5c0 4.3 1.4 8 4.2 10.7 2.7 2.6 6.3 3.9 10.4 3.9h20.4c4.3 0 7.9-1.4 10.5-3.9 2.7-2.6 4.1-6.3 4.1-10.6V19.3c0-4.2-1.4-7.8-4-10.4zm-.4 31c0 3.1-1.1 5.6-2.9 7.3s-4.3 2.6-7.3 2.6H18c-3 0-5.5-.9-7.3-2.6C8.9 45.4 8 42.9 8 39.8V19.3c0-3 .9-5.5 2.7-7.3 1.7-1.7 4.3-2.6 7.3-2.6h20.6c3 0 5.5.9 7.3 2.7 1.7 1.8 2.7 4.3 2.7 7.2v20.6z"/></svg><svg viewBox="0 0 48 48" id="location" xmlns="http://www.w3.org/2000/svg"><path d="M24 4c-7.73 0-14 6.27-14 14 0 10.5 14 26 14 26s14-15.5 14-26c0-7.73-6.27-14-14-14zm0 19c-2.76 0-5-2.24-5-5s2.24-5 5-5 5 2.24 5 5-2.24 5-5 5z"/><path d="M0 0h48v48H0z" fill="none"/></svg><svg viewBox="0 0 48 48" id="loupe" xmlns="http://www.w3.org/2000/svg"><path d="M46.7 45.3 33.4 32c2.9-3.2 4.6-7.4 4.6-12 0-9.9-8.1-18-18-18S2 10.1 2 20s8.1 18 18 18c4.6 0 8.8-1.8 12-4.6l13.3 13.3 1.4-1.4zM4 20c0-8.8 7.2-16 16-16s16 7.2 16 16-7.2 16-16 16S4 28.8 4 20z"/></svg><svg viewBox="0 0 71 71" id="paper_plane" xmlns="http://www.w3.org/2000/svg"><path d="M0 0l3 71 25.893-14.47L35 67l9.315-16.937L71 43 0 0zm35 60L8 12l33 37-6 11z"/></svg><svg viewBox="0 0 512 512" id="phone" xmlns="http://www.w3.org/2000/svg"><path d="M348.73 450.06a198.63 198.63 0 0 1-46.4-5.85c-52.43-12.65-106.42-44.74-152-90.36s-77.71-99.62-90.36-152c-13.32-55.1-3.82-102.24 26.72-132.78l8.72-8.72a42.2 42.2 0 0 1 59.62 0l50.11 50.1a42.18 42.18 0 0 1 0 59.62l-29.6 29.59c14.19 24.9 33.49 49.82 56.3 72.63s47.75 42.12 72.64 56.31l29.59-29.6a42.15 42.15 0 0 1 59.62 0l50.1 50.1a42.16 42.16 0 0 1 0 59.61l-8.73 8.72c-21.53 21.57-51.33 32.63-86.33 32.63ZM125.22 78a12 12 0 0 0-8.59 3.56l-8.73 8.72c-22.87 22.87-29.55 60-18.81 104.49 11.37 47.13 40.64 96.1 82.41 137.86s90.73 71 137.87 82.41c44.5 10.74 81.61 4.06 104.48-18.81l8.72-8.72a12.16 12.16 0 0 0 0-17.19l-50.09-50.1a12.16 12.16 0 0 0-17.19 0l-37.51 37.51a15 15 0 0 1-17.5 2.72c-30.75-15.9-61.75-39.05-89.65-66.95s-51-58.88-66.94-89.63a15 15 0 0 1 2.71-17.5l37.52-37.51a12.16 12.16 0 0 0 0-17.19l-50.1-50.11a12.07 12.07 0 0 0-8.6-3.56Z"/><path d="M364.75 269.73a15 15 0 0 1-15-15 99.37 99.37 0 0 0-99.25-99.26 15 15 0 0 1 0-30c71.27 0 129.25 58 129.25 129.26a15 15 0 0 1-15 15Z"/><path d="M428.15 269.73a15 15 0 0 1-15-15c0-89.69-73-162.66-162.65-162.66a15 15 0 0 1 0-30c106.23 0 192.65 86.43 192.65 192.66a15 15 0 0 1-15 15Z"/></svg><svg viewBox="0 0 512 512" id="pinterest" xmlns="http://www.w3.org/2000/svg"><path d="M232.2 336.4c-1.5 4.1-1.9 8.1-2.8 11.9-3.9 15.7-6.9 31.6-10.7 47.3-2.9 11.9-6 23.9-10.2 35.5-3.6 10.2-8.5 20.1-13.4 29.8-7.6 15.3-16.9 29.7-27 43.4-1.7 2.3-2.6 6.3-6.1 5.4-4.2-1.1-3.5-5.4-3.9-8.8-2.9-21.7-3.7-43.4-3-65.2.4-11.4.8-23 3.6-34.1 2.9-11.3 5-22.8 7.7-34.1 1.9-8 3.7-16.2 4.9-24.4 1.1-7.7 4.1-15.1 5.3-22.7 1.6-10.3 4.5-20.3 6.6-30.5 1.9-9.2 4.3-18.4 6.2-27.6 1.3-6.3 2.6-12.5 4.3-18.7.8-3 .2-6.2-1.3-9.5-4-8.8-4.9-18.5-6.3-27.9-1.8-12.1-.8-24.3 2.1-36.1 4.5-18.1 11.7-34.7 28.4-45.5 18.5-11.9 44.6-6.5 52.8 15.2 5.2 14 4.1 27.8 2.1 42-1.7 12.3-5.4 24.1-8.8 35.9-2.7 9.1-5.6 18.2-7.9 27.4-1.8 7.5-5.2 14.9-4.8 22.9.2 4.4-.8 8.7-.5 13.3 1.1 17.9 11.3 29.2 26.3 36 8.4 3.8 18.1 4 27.9 1.5 10.3-2.6 18.8-7.4 26.8-13.7 9.1-7.2 15.3-16.8 21.3-26.4 6.2-9.9 10.3-21 13.8-32.1 4.5-14.6 7.6-29.7 9.7-45 1.6-12 1.6-23.9 1.9-35.8.5-21.9-5.1-42.4-15.6-61.2-6.5-11.7-16.2-20.9-27.3-29-9.3-6.7-19.7-10.2-29.8-14.5-3.4-1.5-7.3-1.7-10.9-2.6-11.8-2.9-24-2.7-36-2.2-14.8.6-29.1 3.8-42.8 9.4-14.5 6-27.5 14.5-38.7 25.4-11.7 10.9-20.9 23.9-28.1 38.4-5.6 11.4-9.7 23.6-11.6 35.9-2.3 15.3-4.1 30.7-1.2 46.5 1.8 10.1 5 19.6 9.1 28.8 1.9 4.3 4.9 8.2 8.1 11.7 3.7 4.1 4.3 8.6 3.3 13.4-1.7 8.4-3.8 16.8-5.9 25.1-1.6 6.4-8.9 9.3-15.1 6.2-18.8-9.7-32.2-24.4-40.6-43.8-7.7-17.9-12.1-36.6-12.2-56.3-.1-13.8-.9-27.7 2.3-41.2 2.5-10.9 5.4-21.6 9.4-32.1 5.1-13.4 11.9-25.6 19.7-37.5 11.6-17.8 26.6-32.5 43.8-44.9 13.1-9.5 27.4-17.3 42.5-22.7 9.5-3.4 19.3-5.9 29.3-8 17.9-3.6 35.8-4.9 53.8-4.3 9.7.3 19.2 2.7 28.8 4.1 13 2 24.8 6.9 36.6 12 7.9 3.4 15.4 7.9 22.6 12.8 11.4 7.7 21.6 16.8 30.7 27 10.8 12 19.2 25.6 26.1 40.3 3.4 7.1 5.7 14.6 8.9 21.8 1.4 3.1 1.8 6.9 2.3 10.4.9 5.8 1.6 11.8 2.8 17.4 2.5 11.8 1.6 23.5 1.2 35.1-.3 9.9-1.1 19.9-3.4 29.7-1.1 4.6-.8 9.3-2 14.1-2 7.7-3.8 15.5-5.9 23.2-3.2 12-7.9 23.4-13.4 34.4-11.8 23.8-27.4 44.6-49.7 59.9-7.9 5.4-16.1 10.2-25 13.7-19.6 7.5-40.1 10.8-60.8 6.7-19.1-3.8-35.5-13.1-47.3-29.4-.7-1.3-1.8-2-3-3.1z"/></svg><svg id="reject" viewBox="0 0 703 173" xmlns="http://www.w3.org/2000/svg"><path d="M352 100.1c-27.615 0-50-22.385-50-50s22.385-50 50-50 50 22.385 50 50c0 27.406-22.385 50-50 50Zm0-94.77c-24.477 0-44.561 20.084-44.561 44.56 0 24.478 20.084 44.561 44.561 44.561s44.561-20.083 44.561-44.56c0-24.477-20.084-44.56-44.561-44.56Z" fill="#878787"/><path d="m330.243 75.623-3.975-3.975 47.28-47.28 3.975 3.975-47.28 47.28Z" fill="#878787"/><path d="m373.548 75.623-47.28-47.28 3.975-3.975 47.28 47.28-3.975 3.975ZM.974 136.136H4.25l.504-8.61H.428l.546 8.61Zm6.342 0h3.276l.504-8.61H6.77l.546 8.61ZM34.92 131.768v21.756l-14.406-21.756h-4.788V161h4.788v-21.798L34.92 161h4.788v-29.232H34.92ZM68.046 149.408c0-7.266-5.208-11.928-11.802-11.928-6.594 0-11.802 4.662-11.802 11.928 0 7.266 4.998 11.97 11.592 11.97 6.636 0 12.012-4.704 12.012-11.97Zm-18.732 0c0-5.25 3.234-7.77 6.846-7.77 3.57 0 6.972 2.52 6.972 7.77s-3.528 7.812-7.098 7.812c-3.612 0-6.72-2.562-6.72-7.812ZM83.69 161h4.787v-23.142H83.69V161Zm2.435-26.208c1.68 0 3.024-1.344 3.024-3.066 0-1.722-1.344-3.066-3.024-3.066a3.03 3.03 0 0 0-3.066 3.066 3.03 3.03 0 0 0 3.066 3.066ZM95.52 154.574c0 4.704 2.561 6.426 6.677 6.426h3.78v-3.99h-2.94c-2.016 0-2.688-.714-2.688-2.436v-12.81h5.628v-3.906h-5.628v-5.754h-4.83v5.754h-2.73v3.906h2.73v12.81ZM120.134 141.512c3.57 0 6.384 2.268 6.468 5.838h-12.81c.504-3.654 3.108-5.838 6.342-5.838Zm10.836 12.6h-5.166c-.882 1.806-2.52 3.234-5.46 3.234-3.528 0-6.258-2.31-6.594-6.132h17.682a14.77 14.77 0 0 0 .168-2.352c0-6.804-4.662-11.382-11.256-11.382-6.846 0-11.55 4.662-11.55 11.928 0 7.266 4.914 11.97 11.55 11.97 5.67 0 9.324-3.234 10.626-7.266ZM169.114 161h4.746v-13.65c0-6.468-4.116-9.87-9.534-9.87-3.36 0-6.636 1.764-8.064 4.578-1.596-3.024-4.662-4.578-8.316-4.578-2.772 0-5.292 1.134-6.846 3.024v-2.646h-4.788V161h4.788v-12.936c0-4.242 2.31-6.426 5.838-6.426 3.486 0 5.796 2.184 5.796 6.426V161h4.746v-12.936c0-4.242 2.31-6.426 5.838-6.426 3.486 0 5.796 2.184 5.796 6.426V161ZM197.215 154.532c-.252-8.358-13.314-5.754-13.314-10.416 0-1.554 1.344-2.604 3.906-2.604 2.604 0 4.158 1.386 4.326 3.402h4.788c-.252-4.62-3.696-7.434-8.946-7.434-5.46 0-8.904 2.982-8.904 6.678 0 8.484 13.44 5.88 13.44 10.416 0 1.596-1.47 2.772-4.242 2.772-2.646 0-4.452-1.554-4.62-3.444h-4.956c.21 4.2 4.116 7.476 9.66 7.476 5.46 0 8.862-2.94 8.862-6.846ZM213.886 161h4.83v-19.236H223v-3.906h-4.284v-1.638c0-2.646 1.008-3.654 3.948-3.654v-3.99c-6.048 0-8.778 2.31-8.778 7.644v1.638h-2.73v3.906h2.73V161ZM249.294 149.408c0-7.266-5.208-11.928-11.802-11.928-6.594 0-11.802 4.662-11.802 11.928 0 7.266 4.998 11.97 11.592 11.97 6.636 0 12.012-4.704 12.012-11.97Zm-18.732 0c0-5.25 3.234-7.77 6.846-7.77 3.57 0 6.972 2.52 6.972 7.77s-3.528 7.812-7.098 7.812c-3.612 0-6.72-2.562-6.72-7.812ZM274.985 137.858h-4.788v12.894c0 4.242-2.31 6.426-5.838 6.426-3.486 0-5.796-2.184-5.796-6.426v-12.894h-4.746v13.608c0 6.468 4.116 9.87 9.534 9.87 2.73 0 5.334-1.134 6.846-3.108V161h4.788v-23.142ZM297.724 161h4.746v-13.65c0-6.468-4.074-9.87-9.492-9.87-2.772 0-5.334 1.134-6.888 3.024v-2.646h-4.788V161h4.788v-12.936c0-4.242 2.31-6.426 5.838-6.426 3.486 0 5.796 2.184 5.796 6.426V161ZM306.982 149.324c0 7.14 4.83 12.054 10.92 12.054 3.78 0 6.552-1.764 8.022-3.864V161h4.83v-31.08h-4.83v11.172c-1.764-2.184-4.956-3.612-7.98-3.612-6.132 0-10.962 4.704-10.962 11.844Zm18.942.084c0 4.998-3.402 7.812-7.014 7.812-3.57 0-7.014-2.898-7.014-7.896 0-4.998 3.444-7.686 7.014-7.686 3.612 0 7.014 2.814 7.014 7.77ZM348.541 161h4.83v-19.236h4.284v-3.906h-4.284v-1.638c0-2.646 1.008-3.654 3.948-3.654v-3.99c-6.048 0-8.778 2.31-8.778 7.644v1.638h-2.73v3.906h2.73V161ZM383.948 149.408c0-7.266-5.208-11.928-11.802-11.928-6.594 0-11.802 4.662-11.802 11.928 0 7.266 4.998 11.97 11.592 11.97 6.636 0 12.012-4.704 12.012-11.97Zm-18.732 0c0-5.25 3.234-7.77 6.846-7.77 3.57 0 6.972 2.52 6.972 7.77s-3.528 7.812-7.098 7.812c-3.612 0-6.72-2.562-6.72-7.812ZM393.469 148.82c0-4.914 2.184-6.384 5.712-6.384h1.218v-4.956c-3.276 0-5.586 1.428-6.93 3.738v-3.36h-4.788V161h4.788v-12.18ZM416.467 154.574c0 4.704 2.562 6.426 6.678 6.426h3.78v-3.99h-2.94c-2.016 0-2.688-.714-2.688-2.436v-12.81h5.628v-3.906h-5.628v-5.754h-4.83v5.754h-2.73v3.906h2.73v12.81ZM431.337 161h4.789v-12.936c0-4.242 2.31-6.426 5.837-6.426 3.486 0 5.797 2.184 5.797 6.426V161h4.746v-13.65c0-6.468-4.033-9.87-9.199-9.87-2.982 0-5.585 1.134-7.181 3.066V129.92h-4.789V161ZM458.613 161h4.788v-23.142h-4.788V161Zm2.436-26.208c1.68 0 3.024-1.344 3.024-3.066 0-1.722-1.344-3.066-3.024-3.066a3.03 3.03 0 0 0-3.066 3.066 3.03 3.03 0 0 0 3.066 3.066ZM486.949 154.532c-.252-8.358-13.314-5.754-13.314-10.416 0-1.554 1.344-2.604 3.906-2.604 2.604 0 4.158 1.386 4.326 3.402h4.788c-.252-4.62-3.696-7.434-8.946-7.434-5.46 0-8.904 2.982-8.904 6.678 0 8.484 13.44 5.88 13.44 10.416 0 1.596-1.47 2.772-4.242 2.772-2.646 0-4.452-1.554-4.62-3.444h-4.956c.21 4.2 4.116 7.476 9.66 7.476 5.46 0 8.862-2.94 8.862-6.846ZM501.437 149.408c0 7.266 4.704 11.97 11.34 11.97 5.67 0 9.366-3.15 10.668-7.686h-5.166c-.882 2.394-2.646 3.654-5.502 3.654-3.864 0-6.426-2.856-6.426-7.938 0-5.04 2.562-7.896 6.426-7.896 2.856 0 4.704 1.428 5.502 3.654h5.166c-1.302-4.872-4.998-7.686-10.668-7.686-6.636 0-11.34 4.704-11.34 11.928ZM526.62 149.324c0 7.14 4.83 12.054 10.836 12.054 3.864 0 6.636-1.848 8.106-3.822V161h4.83v-23.142h-4.83v3.36c-1.428-1.89-4.116-3.738-8.022-3.738-6.09 0-10.92 4.704-10.92 11.844Zm18.942.084c0 4.998-3.402 7.812-7.014 7.812-3.57 0-7.014-2.898-7.014-7.896 0-4.998 3.444-7.686 7.014-7.686 3.612 0 7.014 2.814 7.014 7.77ZM557.437 154.574c0 4.704 2.562 6.426 6.678 6.426h3.78v-3.99h-2.94c-2.016 0-2.688-.714-2.688-2.436v-12.81h5.628v-3.906h-5.628v-5.754h-4.83v5.754h-2.73v3.906h2.73v12.81ZM582.052 141.512c3.57 0 6.384 2.268 6.468 5.838h-12.81c.504-3.654 3.108-5.838 6.342-5.838Zm10.836 12.6h-5.166c-.882 1.806-2.52 3.234-5.46 3.234-3.528 0-6.258-2.31-6.594-6.132h17.682a14.77 14.77 0 0 0 .168-2.352c0-6.804-4.662-11.382-11.256-11.382-6.846 0-11.55 4.662-11.55 11.928 0 7.266 4.914 11.97 11.55 11.97 5.67 0 9.324-3.234 10.626-7.266ZM596.634 149.324c0 7.14 4.83 12.054 10.92 12.054 3.78 0 6.552-1.89 8.022-3.864v3.864c0 4.62-2.772 6.888-6.468 6.888-3.318 0-5.88-1.638-6.594-4.032h-4.746c.588 5.124 5.166 8.19 11.34 8.19 7.224 0 11.298-4.746 11.298-11.046v-23.52h-4.83v3.36c-1.428-1.974-4.242-3.738-8.022-3.738-6.09 0-10.92 4.704-10.92 11.844Zm18.942.084c0 4.998-3.402 7.812-7.014 7.812-3.57 0-7.014-2.898-7.014-7.896 0-4.998 3.444-7.686 7.014-7.686 3.612 0 7.014 2.814 7.014 7.77ZM648.745 149.408c0-7.266-5.208-11.928-11.802-11.928-6.594 0-11.802 4.662-11.802 11.928 0 7.266 4.998 11.97 11.592 11.97 6.636 0 12.012-4.704 12.012-11.97Zm-18.732 0c0-5.25 3.234-7.77 6.846-7.77 3.57 0 6.972 2.52 6.972 7.77s-3.528 7.812-7.098 7.812c-3.612 0-6.72-2.562-6.72-7.812ZM658.266 148.82c0-4.914 2.184-6.384 5.712-6.384h1.218v-4.956c-3.276 0-5.586 1.428-6.93 3.738v-3.36h-4.788V161h4.788v-12.18ZM678.711 155.498l-6.51-17.64h-5.334l9.114 22.764-4.704 11.256h4.956l14.196-34.02h-4.956l-6.762 17.64ZM692.867 136.136h3.276l.504-8.61h-4.326l.546 8.61Zm6.342 0h3.276l.504-8.61h-4.326l.546 8.61Z" fill="#878787"/></svg><svg viewBox="0 0 512 512" id="up_angle" xmlns="http://www.w3.org/2000/svg"><path d="M396.6 352l19.4-20.7L256 160 96 331.3l19.3 20.7L256 201.5z"/></svg><svg version="1.0" viewBox="0 0 32 32" id="youtube" xmlns="http://www.w3.org/2000/svg"><path d="M31.67 9.179s-.312-2.353-1.271-3.389c-1.217-1.358-2.58-1.366-3.205-1.443C22.717 4 16.002 4 16.002 4h-.015s-6.715 0-11.191.347c-.625.077-1.987.085-3.205 1.443C.633 6.826.32 9.179.32 9.179S0 11.94 0 14.701v2.588c0 2.763.32 5.523.32 5.523s.312 2.352 1.271 3.386c1.218 1.358 2.815 1.317 3.527 1.459 2.559.262 10.877.343 10.877.343s6.722-.012 11.199-.355c.625-.08 1.988-.088 3.205-1.446.958-1.034 1.271-3.386 1.271-3.386s.32-2.761.32-5.523v-2.588c0-2.762-.32-5.523-.32-5.523z"/><path fill="#fff" d="M12 10v12l10-6z"/></svg></svg>