<?xml version="1.0" encoding="utf-8"?><svg viewBox="0 0 267 225" xmlns="http://www.w3.org/2000/svg" xmlns:xlink="http://www.w3.org/1999/xlink"><style>:root>svg{display:none}:root>svg:target{display:block}</style><svg viewBox="0 0 10 15.991" id="arrow-right" xmlns="http://www.w3.org/2000/svg"><path d="M8 0L0 8l8 8 2-2-6-6 6-6z" fill="#fff" fill-rule="evenodd"/></svg><svg viewBox="0 0 50 50" id="logo" xmlns="http://www.w3.org/2000/svg"><g transform="translate(-155 -41)"><circle cx="25" cy="25" r="25" transform="translate(155 41)" fill="#fff"/><path d="M179.874 55a10.913 10.913 0 016.768 2.009 8.559 8.559 0 013.312 5.439h-5.594a4.314 4.314 0 00-1.7-1.87 5.2 5.2 0 00-2.751-.7 5.14 5.14 0 00-4.017 1.69 6.565 6.565 0 00-1.518 4.558 6.673 6.673 0 001.6 4.791 5.96 5.96 0 004.528 1.669 5.468 5.468 0 003.302-1.036 5.518 5.518 0 002.009-2.952h-6.676v-3.8h11.1v5.223a10.655 10.655 0 01-1.982 3.557 10.183 10.183 0 01-3.481 2.655 11.011 11.011 0 01-4.837 1.02 11.491 11.491 0 01-5.776-1.407 9.633 9.633 0 01-3.817-3.94 12.143 12.143 0 01-1.344-5.78 12.143 12.143 0 011.344-5.779 9.661 9.661 0 013.8-3.941 11.341 11.341 0 015.73-1.406z" fill="#b28af8"/></g></svg><svg  viewBox="0 0 267 225" id="plane" xmlns="http://www.w3.org/2000/svg"><path d="M266.225 20.736l-40.288 189.91c-3.04 13.404-10.966 16.74-22.23 10.425l-61.386-45.214-29.621 28.475c-3.278 3.276-6.019 6.017-12.337 6.017l4.411-62.49L218.547 45.101c4.946-4.409-1.073-6.851-7.689-2.443L70.207 131.18 9.655 112.236c-13.171-4.11-13.41-13.165 2.741-19.48l236.844-91.2c10.966-4.11 20.561 2.442 16.985 19.181z" /></svg><svg viewBox="0 0 26 26" id="plus" xmlns="http://www.w3.org/2000/svg"><g transform="translate(-882.683 -3568.683)" fill="#fff"><rect width="5" height="26" rx="2.5" transform="translate(893.683 3568.683)"/><rect width="5" height="26" rx="2.5" transform="rotate(90 -1335.5 2244.183)"/></g></svg><svg viewBox="0 0 10.268 19.775" id="social01" xmlns="http://www.w3.org/2000/svg"><path d="M6.666 19.775v-9.02h3.026l.454-3.516h-3.48V4.995c0-1.018.281-1.711 1.742-1.711h1.86V.138A25.225 25.225 0 007.557 0C4.873 0 3.035 1.638 3.035 4.646v2.593H0v3.516h3.035v9.02z" /></svg><svg viewBox="0 0 19.002 19.003" id="social02" xmlns="http://www.w3.org/2000/svg"><g ><path d="M9.505 4.622a4.876 4.876 0 104.878 4.876 4.875 4.875 0 00-4.876-4.876zm0 8.04a3.165 3.165 0 113.165-3.165 3.164 3.164 0 01-3.165 3.165z"/><path d="M13.419.06c-1.748-.081-6.079-.077-7.828 0A5.678 5.678 0 001.6 1.6C-.224 3.424.009 5.887.009 9.5c0 3.7-.206 6.1 1.594 7.9 1.835 1.834 4.333 1.594 7.9 1.594 3.661 0 4.925 0 6.219-.5 1.76-.683 3.089-2.257 3.219-5.082.082-1.749.078-6.078 0-7.828C18.785 2.248 17 .225 13.419.06zm2.767 16.13c-1.2 1.2-2.86 1.091-6.7 1.091-3.959 0-5.546.059-6.7-1.1-1.334-1.328-1.093-3.46-1.093-6.693 0-4.374-.449-7.525 3.941-7.75 1-.038 1.297-.05 3.836-.05l.036.024c4.219 0 7.53-.442 7.728 3.948.045 1 .055 1.3.055 3.838 0 3.913.074 5.51-1.1 6.693z"/><circle cx="1.139" cy="1.139" r="1.139" transform="translate(13.434 3.291)"/></g></svg><svg viewBox="0 0 19.047 15.508" id="social03" xmlns="http://www.w3.org/2000/svg"><path d="M18.932 1.723a.378.378 0 00-.389-.087l-.642.222a4.364 4.364 0 00.8-1.389.359.359 0 00-.481-.44c-.9.378-1.7.707-2.332.9a.088.088 0 01-.072-.009 6.592 6.592 0 00-2.669-.923 4.288 4.288 0 00-4.121 4.329v.128a11.793 11.793 0 01-7.2-3.711L1.513.415l-.208.4a4.307 4.307 0 00.962 5.263A2.462 2.462 0 01.951 5.51a.389.389 0 00-.467-.032.383.383 0 00-.164.43 6.3 6.3 0 002.781 3.5 2.662 2.662 0 01-1.547-.376.39.39 0 00-.58.446 3.853 3.853 0 003.516 2.741 7.98 7.98 0 01-4.057 1.026.443.443 0 00-.409.3.429.429 0 00.138.477c1.155.931 3.746 1.487 6.931 1.487 5.7 0 10.339-5.073 10.339-11.308v-.11a3.178 3.178 0 001.6-1.983.375.375 0 00-.1-.385z" /></svg><svg viewBox="0 0 18.911 13.001" id="social04" xmlns="http://www.w3.org/2000/svg"><path d="M18.107 1.253c-.513-.912-1.07-1.08-2.2-1.144S11.925 0 9.458 0s-5.32.032-6.451.108S1.318.339.8 1.253 0 3.734 0 6.5v.009c0 2.752.272 4.333.8 5.235s1.075 1.075 2.206 1.156 3.981.1 6.452.1 5.314-.039 6.448-.1 1.69-.242 2.2-1.155c.533-.9.8-2.483.8-5.235V6.5c.005-2.766-.264-4.336-.799-5.247zM7.092 10.047V2.955L13 6.5z" /></svg></svg>