<?xml version="1.0" encoding="utf-8"?><svg viewBox="0 0 17 22" xmlns="http://www.w3.org/2000/svg" xmlns:xlink="http://www.w3.org/1999/xlink"><style>:root>svg{display:none}:root>svg:target{display:block}</style><svg fill="none" viewBox="0 0 17 22" id="map-pin" xmlns="http://www.w3.org/2000/svg"><path d="M8.397.557A7.845 7.845 0 00.562 8.392c0 5.298 7.294 12.653 7.604 12.964a.327.327 0 00.462 0c.31-.31 7.605-7.666 7.605-12.964A7.844 7.844 0 008.397.557v0zm0 20.1C7.143 19.345 1.214 12.91 1.214 8.391a7.183 7.183 0 0114.366 0c0 4.52-5.929 10.954-7.183 12.264z" fill="#989898" stroke="#989898" stroke-width=".209"/><path d="M8.398 4.148a4.244 4.244 0 100 8.489 4.244 4.244 0 000-8.489zm0 7.836a3.59 3.59 0 110-7.182 3.59 3.59 0 010 7.182z" fill="#989898" stroke="#989898" stroke-width=".209"/></svg><svg viewBox="0 0 7 14" id="social01" xmlns="http://www.w3.org/2000/svg"><path fill-rule="evenodd" clip-rule="evenodd" d="M5.803 2.673a3.59 3.59 0 00-1.044-.172c-.424 0-1.338.293-1.338.86v1.36h2.17v2.287H3.42v6.313H1.236V7.008H.159V4.72h1.077V3.568c0-1.737.75-3.182 2.56-3.182.62 0 1.73.034 2.333.258l-.326 2.03z" /></svg><svg viewBox="0 0 14 10" id="social02" xmlns="http://www.w3.org/2000/svg"><path fill-rule="evenodd" clip-rule="evenodd" d="M10.571 1.771s0-.1 0 0c-.51-.5-1.12-.7-1.731-.6.61-.1.916-.3 1.018-.4 0-.1 0-.2-.102-.2-.305 0-.61.1-.815.2.306-.2.408-.3.408-.4-.306 0-.611.2-1.019.5.102-.2.204-.3.102-.4-.204.1-.305.2-.407.4-.306.3-.51.5-.611.8-.408.7-.713 1.3-.917 2h-.102c-.204-.3-.51-.6-.916-.8-.408-.3-.917-.5-1.528-.8-.611-.3-1.222-.6-1.935-.8 0 .7.305 1.3 1.018 1.7-.204 0-.51 0-.713.1 0 .6.51 1.1 1.426 1.3-.305 0-.611.1-.917.3.306.6.815.8 1.63.8-.102.1-.306.2-.306.2-.101.1-.203.3-.101.5.203.3.407.4.916.4-.713.7-1.63 1.1-2.648 1-.61 0-1.324-.3-2.037-.9.713 1 1.732 1.8 2.954 2.3 1.426.4 2.852.5 4.176.1a7.276 7.276 0 003.463-2.3c.407-.6.712-1.2.814-1.8.713 0 1.223-.2 1.528-.6-.204.1-.713.1-1.426-.1.713-.1 1.222-.3 1.324-.7-.509.2-1.018.2-1.528 0-.101-.7-.407-1.3-1.018-1.8z"/></svg><svg  viewBox="0 0 17 17" id="social03" xmlns="http://www.w3.org/2000/svg"><path fill-rule="evenodd" clip-rule="evenodd" d="M8.307 16.31c-4.39 0-7.96-3.57-7.96-7.96 0-4.389 3.57-7.96 7.96-7.96 4.389 0 7.96 3.571 7.96 7.96 0 4.39-3.571 7.96-7.96 7.96zm6.711-6.869c-.232-.073-2.104-.632-4.235-.29.89 2.443 1.251 4.434 1.321 4.847a6.81 6.81 0 002.914-4.557zm-4.055 5.179c-.101-.597-.496-2.676-1.45-5.156l-.045.015c-3.835 1.336-5.212 3.996-5.334 4.246a6.766 6.766 0 004.173 1.435c.942 0 1.84-.193 2.656-.54zm-7.706-1.713c.154-.264 2.02-3.353 5.526-4.487.089-.028.178-.055.268-.08-.17-.387-.356-.774-.551-1.154-3.396 1.016-6.69.973-6.988.967a6.772 6.772 0 001.744 4.754zM1.649 6.968c.304.005 3.106.017 6.286-.828a43.39 43.39 0 00-2.52-3.932 6.824 6.824 0 00-3.766 4.76zm5.064-5.217a36.28 36.28 0 012.537 3.98c2.418-.906 3.441-2.282 3.563-2.456a6.771 6.771 0 00-6.1-1.524zm6.857 2.31c-.143.194-1.283 1.655-3.797 2.681a20.95 20.95 0 01.598 1.336c2.262-.284 4.51.171 4.734.219a6.767 6.767 0 00-1.535-4.235z"/></svg><svg viewBox="0 0 14 14" id="social04" xmlns="http://www.w3.org/2000/svg"><path fill-rule="evenodd" clip-rule="evenodd" d="M10.592 13.32v-5c0-.95-.259-1.963-1.401-1.963-.647 0-1.208.453-1.423 1.057-.086.237-.086.474-.086.711v5.196h-2.76c0-3.018.022-6.015-.065-9.033H7.25l.13 1.272h.043c.582-.949 1.66-1.466 2.76-1.466 2.284 0 3.19 1.832 3.19 3.902v5.325h-2.781zm-10.09.001V4.288h2.76v9.033H.501zM1.902.386c.82 0 1.445.56 1.445 1.401 0 .862-.647 1.401-1.488 1.401-.819 0-1.422-.582-1.422-1.401 0-.84.646-1.401 1.465-1.401z"/></svg><svg id="play" viewBox="0 0 30 30" xmlns="http://www.w3.org/2000/svg"><path d="M15 0a15 15 0 1 0 15 15A15.017 15.017 0 0 0 15 0Zm4.396 15.82-5.647 3.942a1 1 0 0 1-1.572-.82v-7.883a.999.999 0 0 1 1.572-.82l5.647 3.941a1 1 0 0 1 0 1.64Z"/></svg></svg>