<?xml version="1.0" encoding="utf-8"?><svg viewBox="0 0 612 612" xmlns="http://www.w3.org/2000/svg" xmlns:xlink="http://www.w3.org/1999/xlink"><style>:root>svg{display:none}:root>svg:target{display:block}</style><svg viewBox="0 0 512.011 512.011" id="down-arrow" xmlns="http://www.w3.org/2000/svg"><path d="M505.755 123.592c-8.341-8.341-21.824-8.341-30.165 0L256.005 343.176 36.421 123.592c-8.341-8.341-21.824-8.341-30.165 0s-8.341 21.824 0 30.165l234.667 234.667a21.275 21.275 0 0015.083 6.251 21.275 21.275 0 0015.083-6.251l234.667-234.667c8.34-8.341 8.34-21.824-.001-30.165z"/></svg><svg viewBox="0 0 512 512" id="facebook" xmlns="http://www.w3.org/2000/svg"><path d="M512 256C512 114.6 397.4 0 256 0S0 114.6 0 256s114.6 256 256 256c1.5 0 3 0 4.5-.1V312.7h-55v-64.1h55v-47.2c0-54.7 33.4-84.5 82.2-84.5 23.4 0 43.5 1.7 49.3 2.5v57.2h-33.6c-26.5 0-31.7 12.6-31.7 31.1v40.8h63.5l-8.3 64.1h-55.2v189.5C433.7 471.4 512 372.9 512 256z"/></svg><svg viewBox="0 -28 512.001 512" id="heart" xmlns="http://www.w3.org/2000/svg"><path d="M256 455.516a30.022 30.022 0 01-19.793-7.438c-20.684-18.086-40.625-35.082-58.219-50.074l-.09-.078c-51.582-43.957-96.125-81.918-127.117-119.313C16.137 236.81 0 197.172 0 153.871c0-42.07 14.426-80.883 40.617-109.293C67.121 15.832 103.488 0 143.031 0c29.555 0 56.621 9.344 80.446 27.77C235.5 37.07 246.398 48.453 256 61.73c9.605-13.277 20.5-24.66 32.527-33.96C312.352 9.344 339.418 0 368.973 0c39.539 0 75.91 15.832 102.414 44.578C497.578 72.988 512 111.801 512 153.871c0 43.3-16.133 82.938-50.777 124.738-30.993 37.399-75.532 75.356-127.106 119.309-17.625 15.016-37.597 32.039-58.328 50.168a30.046 30.046 0 01-19.789 7.43zM143.031 29.992c-31.066 0-59.605 12.399-80.367 34.914-21.07 22.856-32.676 54.45-32.676 88.965 0 36.418 13.535 68.988 43.883 105.606 29.332 35.394 72.961 72.574 123.477 115.625l.093.078c17.66 15.05 37.68 32.113 58.516 50.332 20.961-18.254 41.012-35.344 58.707-50.418 50.512-43.051 94.137-80.223 123.469-115.617 30.344-36.618 43.879-69.188 43.879-105.606 0-34.516-11.606-66.11-32.676-88.965-20.758-22.515-49.3-34.914-80.363-34.914-22.758 0-43.653 7.235-62.102 21.5-16.441 12.719-27.894 28.797-34.61 40.047-3.452 5.785-9.53 9.238-16.261 9.238s-12.809-3.453-16.262-9.238c-6.71-11.25-18.164-27.328-34.61-40.047-18.448-14.265-39.343-21.5-62.097-21.5zm0 0"/></svg><svg viewBox="0 0 512 512" id="instagram" xmlns="http://www.w3.org/2000/svg"><path d="M363.273 0H148.728C66.719 0 0 66.719 0 148.728v214.544C0 445.281 66.719 512 148.728 512h214.544C445.281 512 512 445.281 512 363.273V148.728C512 66.719 445.281 0 363.273 0zM472 363.272C472 423.225 423.225 472 363.273 472H148.728C88.775 472 40 423.225 40 363.273V148.728C40 88.775 88.775 40 148.728 40h214.544C423.225 40 472 88.775 472 148.728v214.544z"/><path d="M256 118c-76.094 0-138 61.906-138 138s61.906 138 138 138 138-61.906 138-138-61.906-138-138-138zm0 236c-54.037 0-98-43.963-98-98s43.963-98 98-98 98 43.963 98 98-43.963 98-98 98z"/><circle cx="396" cy="116" r="20"/></svg><svg viewBox="0 0 510 510" id="linkedin" xmlns="http://www.w3.org/2000/svg"><path d="M459 0H51C22.95 0 0 22.95 0 51v408c0 28.05 22.95 51 51 51h408c28.05 0 51-22.95 51-51V51c0-28.05-22.95-51-51-51zM153 433.5H76.5V204H153v229.5zm-38.25-272.85c-25.5 0-45.9-20.4-45.9-45.9s20.4-45.9 45.9-45.9 45.9 20.4 45.9 45.9-20.4 45.9-45.9 45.9zM433.5 433.5H357V298.35c0-20.399-17.85-38.25-38.25-38.25s-38.25 17.851-38.25 38.25V433.5H204V204h76.5v30.6c12.75-20.4 40.8-35.7 63.75-35.7 48.45 0 89.25 40.8 89.25 89.25V433.5z"/></svg><svg viewBox="0 0 512.005 512.005" id="loupe" xmlns="http://www.w3.org/2000/svg"><path d="M505.749 475.587l-145.6-145.6c28.203-34.837 45.184-79.104 45.184-127.317C405.333 90.926 314.41.003 202.666.003S0 90.925 0 202.669s90.923 202.667 202.667 202.667c48.213 0 92.48-16.981 127.317-45.184l145.6 145.6c4.16 4.16 9.621 6.251 15.083 6.251s10.923-2.091 15.083-6.251c8.341-8.341 8.341-21.824-.001-30.165zM202.667 362.669c-88.235 0-160-71.765-160-160s71.765-160 160-160 160 71.765 160 160-71.766 160-160 160z"/></svg><svg viewBox="0 -31 512 512" id="shopping-cart" xmlns="http://www.w3.org/2000/svg"><path d="M164.96 300.004h.024c.02 0 .04-.004.059-.004H437a15.003 15.003 0 0014.422-10.879l60-210a15.003 15.003 0 00-2.445-13.152A15.006 15.006 0 00497 60H130.367l-10.722-48.254A15.003 15.003 0 00105 0H15C6.715 0 0 6.715 0 15s6.715 15 15 15h77.969c1.898 8.55 51.312 230.918 54.156 243.71C131.184 280.64 120 296.536 120 315c0 24.812 20.188 45 45 45h272c8.285 0 15-6.715 15-15s-6.715-15-15-15H165c-8.27 0-15-6.73-15-15 0-8.258 6.707-14.977 14.96-14.996zM477.114 90l-51.43 180H177.032l-40-180zM150 405c0 24.813 20.188 45 45 45s45-20.188 45-45-20.188-45-45-45-45 20.188-45 45zm45-15c8.27 0 15 6.73 15 15s-6.73 15-15 15-15-6.73-15-15 6.73-15 15-15zm167 15c0 24.813 20.188 45 45 45s45-20.188 45-45-20.188-45-45-45-45 20.188-45 45zm45-15c8.27 0 15 6.73 15 15s-6.73 15-15 15-15-6.73-15-15 6.73-15 15-15zm0 0"/></svg><svg viewBox="0 0 512 512" id="target" xmlns="http://www.w3.org/2000/svg"><path d="M480.488 241C473.07 128.863 383.137 38.93 271 31.512V0h-30v31.512C128.863 38.93 38.93 128.863 31.512 241H0v30h31.512C38.93 383.137 128.863 473.07 241 480.488V512h30v-31.512C383.137 473.07 473.07 383.137 480.488 271H512v-30h-31.512zM241 61.571v60.267C178.521 128.777 128.777 178.521 121.838 241H61.571C68.877 145.409 145.409 68.877 241 61.571zm0 388.858C145.409 443.123 68.877 366.591 61.571 271h60.267c6.939 62.479 56.683 112.223 119.162 119.162v60.267zM241 331v28.924c-45.916-6.597-82.327-43.008-88.924-88.924H181v-30h-28.924c6.597-45.916 43.008-82.327 88.924-88.924V181h30v-28.924c45.916 6.597 82.327 43.008 88.924 88.924H331v30h28.924c-6.597 45.916-43.008 82.327-88.924 88.924V331h-30zm30 119.429v-60.267c62.479-6.939 112.223-56.684 119.162-119.162h60.267C443.123 366.591 366.591 443.123 271 450.429zM390.162 241C383.223 178.521 333.479 128.777 271 121.838V61.571C366.591 68.877 443.123 145.409 450.429 241h-60.267z"/><path d="M256 211c-24.813 0-45 20.187-45 45s20.187 45 45 45 45-20.187 45-45-20.187-45-45-45z"/></svg><svg viewBox="0 0 24 24" id="twitter" xmlns="http://www.w3.org/2000/svg"><path d="M21.534 7.113A9.822 9.822 0 0024 4.559v-.001c-.893.391-1.843.651-2.835.777a4.894 4.894 0 002.165-2.719 9.845 9.845 0 01-3.12 1.191 4.919 4.919 0 00-8.511 3.364c0 .39.033.765.114 1.122-4.09-.2-7.71-2.16-10.142-5.147a4.962 4.962 0 00-.674 2.487c0 1.704.877 3.214 2.186 4.089A4.863 4.863 0 01.96 9.116v.054a4.943 4.943 0 003.942 4.835c-.401.11-.837.162-1.29.162-.315 0-.633-.018-.931-.084.637 1.948 2.447 3.381 4.597 3.428a9.89 9.89 0 01-6.101 2.098c-.403 0-.79-.018-1.177-.067a13.856 13.856 0 007.548 2.208c8.683 0 14.342-7.244 13.986-14.637z"/></svg><svg viewBox="0 0 612 612" id="up-arrow" xmlns="http://www.w3.org/2000/svg"><path d="M604.501 440.509L325.398 134.956c-5.331-5.357-12.423-7.627-19.386-7.27-6.989-.357-14.056 1.913-19.387 7.27L7.499 440.509c-9.999 10.024-9.999 26.298 0 36.323s26.223 10.024 36.222 0l262.293-287.164L568.28 476.832c9.999 10.024 26.222 10.024 36.221 0 9.999-10.023 9.999-26.298 0-36.323z"/></svg></svg>