<svg xmlns="http://www.w3.org/2000/svg" width="14.571" height="18.01"><g data-name="Сгруппировать 34838"><g data-name="Сгруппировать 34837"><path data-name="Контур 36825" d="M13.263 3.131a7.272 7.272 0 00-11.956 0 7.273 7.273 0 00-.847 6.7 5.728 5.728 0 001.054 1.744l5.29 6.213a.629.629 0 00.959 0l5.288-6.212a5.734 5.734 0 001.055-1.741 7.274 7.274 0 00-.843-6.704zM12.929 9.4a4.492 4.492 0 01-.831 1.361l-4.81 5.65-4.813-5.653a4.5 4.5 0 01-.832-1.365 6.016 6.016 0 01.7-5.543 6.012 6.012 0 019.884 0 6.017 6.017 0 01.702 5.55z" fill="#fff"/></g></g><g data-name="Сгруппировать 34840"><g data-name="Сгруппировать 34839"><path data-name="Контур 36826" d="M7.285 3.335a4.114 4.114 0 104.114 4.114 4.119 4.119 0 00-4.114-4.114zm0 6.759A2.645 2.645 0 119.93 7.449a2.648 2.648 0 01-2.645 2.645z" fill="#fff"/></g></g></svg>