<svg xmlns="http://www.w3.org/2000/svg" width="20.241" height="20.27"><g data-name="Сгруппировать 34842" fill="#fff"><path data-name="Контур 36828" d="M15.856 12.627a1.974 1.974 0 00-1.432-.657 2.041 2.041 0 00-1.449.653l-1.339 1.335c-.11-.059-.22-.114-.326-.17-.153-.076-.3-.148-.419-.225a14.555 14.555 0 01-3.487-3.179 8.59 8.59 0 01-1.148-1.806c.347-.318.669-.649.983-.967.119-.119.237-.242.356-.36a1.946 1.946 0 000-2.934L6.437 3.16c-.131-.131-.267-.267-.394-.4a17.55 17.55 0 00-.8-.788 2.005 2.005 0 00-1.419-.623 2.075 2.075 0 00-1.441.623l-.008.008L.937 3.432a3.1 3.1 0 00-.919 1.971 7.435 7.435 0 00.538 3.145 18.255 18.255 0 003.241 5.409 19.941 19.941 0 006.64 5.2 10.341 10.341 0 003.729 1.1c.089 0 .182.008.267.008a3.192 3.192 0 002.445-1.051c0-.008.013-.013.017-.021a9.637 9.637 0 01.742-.767c.182-.174.369-.356.551-.547a2.115 2.115 0 00.64-1.467 2.038 2.038 0 00-.653-1.454zm1.517 4.464c-.165.178-.335.339-.517.517a11.147 11.147 0 00-.818.848 2.042 2.042 0 01-1.593.674h-.195a9.187 9.187 0 01-3.305-.992 18.823 18.823 0 01-6.254-4.9A17.212 17.212 0 011.637 8.15a6.055 6.055 0 01-.475-2.654 1.946 1.946 0 01.585-1.256l1.445-1.446a.963.963 0 01.644-.3.906.906 0 01.619.3l.013.013c.258.242.5.492.763.759.131.136.267.271.4.411l1.157 1.157a.809.809 0 010 1.314c-.123.123-.242.246-.364.365-.356.365-.695.7-1.064 1.034-.008.008-.017.013-.021.021a.865.865 0 00-.22.962l.013.038a9.292 9.292 0 001.369 2.234 15.555 15.555 0 003.763 3.425 5.786 5.786 0 00.521.284c.153.076.3.148.419.225.017.008.034.021.051.03a.918.918 0 00.419.106.906.906 0 00.644-.293l1.449-1.45a.958.958 0 01.64-.318.863.863 0 01.61.309l.008.008 2.335 2.336a.838.838 0 01.009 1.327z"/><path data-name="Контур 36829" d="M10.341 4.757a6.321 6.321 0 015.147 5.147.659.659 0 00.653.55.876.876 0 00.113-.01.664.664 0 00.545-.766 7.643 7.643 0 00-6.228-6.228.666.666 0 00-.766.54.656.656 0 00.536.767z"/><path data-name="Контур 36830" d="M20.23 10.265A12.585 12.585 0 009.975.01a.662.662 0 10-.216 1.306 11.241 11.241 0 019.165 9.165.659.659 0 00.653.55.877.877 0 00.113-.01.651.651 0 00.54-.756z"/></g></svg>