<svg xmlns="http://www.w3.org/2000/svg" width="25.889" height="28.068"><g data-name="Сгруппировать 34862" fill="#fff"><path data-name="Контур 36839" d="M17.129 27.637c.439-.47.818-1.258 1.326-1.353 2.048-.381 2.474-1.772 2.39-3.479-.064-1.3-.35-2.579-.482-3.873-.2-1.946.126-3.706 2.071-4.891-2.035-1.425-2.383-3.37-1.968-5.624a21.634 21.634 0 00.353-3.88 2.489 2.489 0 00-2.249-2.724c-.537-.1-.943-.883-1.682-1.629 4.323-.735 6.443.977 6.372 4.572-.03 1.5-.28 3-.43 4.5-.26 2.6.149 3.231 3.06 4.176-.417.6-.676 1.427-1.127 1.551-1.824.5-2.106 1.782-1.978 3.335.134 1.639.44 3.271.471 4.91.064 3.643-1.876 5.278-6.127 4.409z"/><path data-name="Контур 36840" d="M8.419.107c-.514.709-.832 1.61-1.267 1.671-2.355.331-2.6 1.95-2.5 3.775.068 1.3.332 2.581.448 3.876.162 1.8-.183 3.429-2.077 4.518 2.745 1.706 2.1 4.247 1.918 6.66a24.726 24.726 0 00-.265 3.056 2.608 2.608 0 002.185 2.612c.564.139.985.853 1.763 1.577-3.98.833-6.315-.8-6.426-4.085a34.947 34.947 0 01.474-5.1c.2-1.7.086-3.172-1.987-3.676a1.286 1.286 0 01-.684-1.012 1.249 1.249 0 01.747-.914c1.91-.519 2.144-1.9 1.951-3.534-.177-1.5-.459-2.987-.53-4.488C1.994 1.365 4.13-.482 8.419.107z"/></g></svg>