<svg xmlns="http://www.w3.org/2000/svg" width="30.725" height="26.894"><g data-name="Сгруппировать 34850"><g data-name="Сгруппировать 34849" fill="#fff"><path data-name="Контур 36835" d="M30.725.939v21.244a1.731 1.731 0 01-1.736.884c-2.937-.034-5.874-.014-8.81-.014h-.719c.2.617.405 1.135.54 1.67.154.611.352 1.069 1.138.932.359-.063.6.206.6.588a.582.582 0 01-.627.645c-.16.009-.32.006-.479.006H9.67c-.426 0-.7-.2-.687-.648.008-.414.268-.6.666-.608a2.147 2.147 0 00.477-.011c.131-.034.313-.119.352-.225.271-.744.511-1.5.792-2.345h-.723c-2.937 0-5.874-.018-8.81.014A1.731 1.731 0 010 22.183V.939A1.666 1.666 0 011.7 0q13.658.02 27.317 0a1.674 1.674 0 011.708.939zM29.388 19.18V1.327H1.327v17.849zm.019 1.356H1.332v1.2h28.076zm-17.621 5.053h7.15c-.262-.8-.489-1.536-.762-2.26a.572.572 0 00-.442-.264q-2.37-.029-4.74 0a.57.57 0 00-.44.264c-.273.724-.501 1.465-.765 2.26z"/><path data-name="Контур 36836" d="M22.935 10.453l-5.418-3.127.744-1.271c2.109 1.214 4.188 2.4 6.253 3.607a1.087 1.087 0 01-.076 1.634c-2.03 1.179-4.069 2.342-6.18 3.555l-.741-1.265z"/><path data-name="Контур 36837" d="M13.002 6.054l.735 1.275-5.415 3.124 5.413 3.128-.735 1.27-2-1.145q-2.034-1.167-4.067-2.336a1.05 1.05 0 01-.032-1.811c2.017-1.16 4.029-2.312 6.101-3.505z"/><path data-name="Контур 36838" d="M16.3 3.848l1.432.361-3.3 13.212-1.436-.338z"/></g></g></svg>