<svg xmlns="http://www.w3.org/2000/svg" width="30.936" height="22.447"><g data-name="Сгруппировать 34861" fill="#fff"><path data-name="Контур 36832" d="M28.535 11.197c-.441-.351-.743-.547-.993-.8q-3.132-3.114-6.246-6.246c-.586-.589-.636-1.224-.172-1.688s1.1-.4 1.688.186q3.81 3.8 7.606 7.606a1.136 1.136 0 01.013 1.9q-3.792 3.814-7.605 7.607c-.618.616-1.2.672-1.689.208s-.427-1.115.195-1.74q3.191-3.206 6.4-6.4c.181-.177.405-.32.803-.633z"/><path data-name="Контур 36833" d="M2.517 11.306c.373.319.734.59 1.051.9q3.032 3.012 6.046 6.042c.589.592.652 1.232.2 1.693-.476.487-1.079.447-1.686-.157Q4.291 15.965.471 12.129a1.136 1.136 0 01.008-1.851q3.819-3.837 7.657-7.655a1.085 1.085 0 111.509 1.5q-3.239 3.259-6.493 6.5c-.179.193-.351.383-.635.683z"/><path data-name="Контур 36834" d="M19.878 1.134c-.045.165-.1.416-.183.66q-3.262 9.806-6.53 19.61c-.264.792-.717 1.141-1.294 1.021-.724-.151-1.006-.788-.713-1.677.756-2.292 1.523-4.581 2.286-6.871 1.414-4.246 2.822-8.495 4.254-12.735a2.029 2.029 0 01.625-.969 1.025 1.025 0 011.555.961z"/></g></svg>