<svg xmlns="http://www.w3.org/2000/svg" width="32.43" height="28.547"><g data-name="Сгруппировать 34860"><g data-name="Сгруппировать 34845"><path data-name="Контур 36831" d="M17.993 15.558c-1.351 3.921-2.618 7.536-3.837 11.168-.336 1-.8 1.823-1.962 1.821-1.137 0-1.674-.783-2.033-1.775-2.431-6.71-4.887-13.41-7.315-20.121-.286-.791-.532-1.42-1.606-1.35A1.136 1.136 0 01.005 3.925c.068-.852.667-1.053 1.406-1.051 2.6.008 5.208.023 7.812.007.805-.005 1.591.026 1.672 1.039s-.6 1.374-1.508 1.429a6.1 6.1 0 00-.625.114l4.96 14.768c1-3 1.93-5.653 2.751-8.335a2.874 2.874 0 00-.325-1.51c-.37-1.083-.819-2.14-1.176-3.227-.334-1.017-.558-2.006-2.024-1.929-.311.016-.943-.85-.919-1.28a1.593 1.593 0 011.172-1.029q4.166-.141 8.339 0c.449.015 1.272.691 1.232.959a2.982 2.982 0 01-1.031 1.418c-.174.165-.585.08-1.042.124l4.8 14.294c.9-3.261 2.931-6.253 2.1-9.792a16.793 16.793 0 00-1.213-2.9 20.283 20.283 0 01-1.207-2.619A3.364 3.364 0 0127.068.244a3.405 3.405 0 014.36 1.744 8.223 8.223 0 01.822 5.658 66.959 66.959 0 01-1.95 6.979c-1.355 4.1-2.836 8.154-4.231 12.239-.332.97-.841 1.694-1.928 1.682a2.092 2.092 0 01-1.979-1.659c-1.172-3.275-2.374-6.54-3.567-9.808-.157-.403-.319-.801-.602-1.521zM14.145 4.103c2.071.515 1.741 2.7 2.412 4.192.727 1.612 1.845 3.275.847 4.843.507.3 1.056.433 1.2.75.512 1.117.889 2.3 1.312 3.455 1.1 3.019 2.181 6.047 3.323 9.051.144.379.609.636.925.949a3.756 3.756 0 00.774-.913c.511-1.3.945-2.622 1.47-4.112-1.091.487-1.289-.1-1.514-.772-1.731-5.176-3.485-10.344-5.226-15.516-.542-1.611-.452-1.737 1.461-1.926zm.264 18.3c-1.18.5-1.258-.253-1.471-.885-1.722-5.129-3.462-10.253-5.167-15.388a2.642 2.642 0 01-.149-1.611c.1-.271.863-.289 1.329-.42h-6.52a6.216 6.216 0 011.232 1.517c.741 1.737 1.321 3.542 1.967 5.319 1.865 5.126 3.718 10.256 5.622 15.367.153.411.658.692 1 1.033a4.935 4.935 0 00.8-1.066c.469-1.179.85-2.395 1.357-3.863zm12.079-1.146l.2.069a5.794 5.794 0 00.325-.663c1.167-3.368 2.376-6.723 3.46-10.118a11.041 11.041 0 00.668-3.88 15.054 15.054 0 00-1.068-4.533 1.819 1.819 0 00-2.393-.864 1.883 1.883 0 00-1.445 2.107 6.911 6.911 0 001.017 2.792 9.5 9.5 0 011.158 8.692c-.678 2.124-1.285 4.267-1.923 6.401z" fill="#f3f3f3"/></g></g></svg>