<svg xmlns="http://www.w3.org/2000/svg" width="28.907" height="32.982"><g data-name="Сгруппировать 34853" fill="#fff"><path data-name="Контур 36841" d="M3.27 24.884c.03-.488.074-.914.079-1.339.011-.919 0-1.839 0-2.835-1.794-.194-3.317-.647-3.356-2.748-.03-1.633.86-2.4 3.286-2.852l.138-2.318 2.446-.258c.184-1.763.755-3.3 2.932-3.233 2 .062 2.46 1.529 2.615 3.26l2.614.189v5.286a16.018 16.018 0 00.012 2.222 14.312 14.312 0 00.6 2.069 5.9 5.9 0 01.983-1.663c.776-.66 1.718-1.539 2.594-1.542.776 0 1.625.993 2.3 1.684.283.289.205.932.29 1.408 2.617.3 2.614.3 2.61 2.882 0 2.164.07 4.333-.058 6.489-.03.5-.74 1.383-1.142 1.385-6.118.042-12.237-.033-18.355-.09-.106 0-.211-.113-.418-.231l-.187-2.236c-1.7-.248-3.346-.7-3.221-2.922.117-1.957 1.513-2.499 3.238-2.607zm18.834 6.779v-8.008l-2.7-.24a16.978 16.978 0 00-.535-2.913c-.072-.2-1.371-.249-1.422-.112a24.514 24.514 0 00-.766 3.055l-2.649.226-.22 2.533a16.391 16.391 0 00-2.831.757 1.864 1.864 0 000 1.442 16.428 16.428 0 002.817.686l.274 2.576zM5.313 22.441l.55-.165c.206-1.633.577-3.172 2.556-3.295 1.929-.119 2.788.95 2.929 2.792.014.191.549.509.79.468a.959.959 0 00.571-.728c.043-2.507.026-5.015.026-7.525l-3.208-.364c.542-1.345 1.107-2.858-.6-3-2.457-.21-1.115 1.938-1.423 3.144l-2.824.18-.206 2.479a23.238 23.238 0 00-3.032.854c-.174.074-.176 1.223-.03 1.279a28.044 28.044 0 003.168.842 7.393 7.393 0 00.03 1.623 5.8 5.8 0 00.707 1.416zm-.847 3.771a23.206 23.206 0 00-2.957.81c-.171.07-.189 1.207-.036 1.271a23.94 23.94 0 002.963.846l.238 2.507h7.836l.322-.432c-.37-.323-.7-.858-1.115-.931a2.484 2.484 0 01-2.335-2.633 2.65 2.65 0 012.366-2.665c.4-.1.685-.686 1.265-1.31l-2.978-.243a17.093 17.093 0 00-.566-2.931c-.075-.2-1.364-.26-1.423-.115a23.64 23.64 0 00-.831 3.056l-2.6.224c-.054 1.022-.108 1.926-.145 2.546z"/><path data-name="Контур 36842" d="M17.841 13.02a.488.488 0 01-.179.042c-3.9-.657-3.9-.659-2.825-4.476q.88-3.114 1.786-6.223c.03-.105.156-.183.327-.374l2.321.575c.572-1.832 1.69-3.023 3.687-2.4 1.87.585 1.941 2.178 1.555 3.9 2.042.191 2.882 1.1 1.781 3.128 1.7.714 3.119 1.618 2.44 3.69-.6 1.845-2.092 2.042-3.716 1.7-1.161 2.756-1.194 2.765-3.809 1.526l-1.464-2.71-2.048 1.4zm-.224-9.5l-2.088 7.705.391.461a7.258 7.258 0 001.87-.749c1.722-1.337 3.471-.836 4.219 1.244a10.154 10.154 0 001.13 1.712l1.22-3.416c1.209.776 2.562 1.9 3.133.016.666-2.2-1.54-1.554-2.645-2.022l.446-2.829-2.386-.917a16.888 16.888 0 00.1-3.012c-.03-.213-1.258-.559-1.377-.407a19.343 19.343 0 00-1.52 2.692z"/></g></svg>