<?xml version="1.0" encoding="utf-8"?><svg viewBox="0 0 512 512" xmlns="http://www.w3.org/2000/svg" xmlns:xlink="http://www.w3.org/1999/xlink"><style>:root>svg{display:none}:root>svg:target{display:block}</style><svg viewBox="0 0 32 32" id="arrow-left" xmlns="http://www.w3.org/2000/svg"><path d="M10.1 23a1 1 0 000-1.41L5.5 17h23.55a1 1 0 000-2H5.53l4.57-4.57A1 1 0 008.68 9l-6.36 6.37a.9.9 0 000 1.27L8.68 23a1 1 0 001.42 0z" data-name="Layer 2"/></svg><svg id="angle-up" viewBox="0 0 64 64" xmlns="http://www.w3.org/2000/svg"><path d="M52.8 37.1 35.7 20l-2.4-2.4c-.8-.8-2.1-.8-2.8 0l-17 17-2.4 2.4c-1.8 1.8 1 4.7 2.8 2.8l17-17 1-1 15.7 15.7 2.4 2.4c1.8 1.8 4.6-1 2.8-2.8z"/></svg><svg viewBox="0 0 32 32" id="arrow-right" xmlns="http://www.w3.org/2000/svg"><path d="M22 9a1 1 0 000 1.42l4.6 4.6H3.06a1 1 0 100 2h23.52L22 21.59A1 1 0 0022 23a1 1 0 001.41 0l6.36-6.36a.88.88 0 000-1.27L23.42 9A1 1 0 0022 9z" data-name="Layer 2"/></svg><svg id="login" viewBox="0 0 16 16" xmlns="http://www.w3.org/2000/svg"><path d="M12 9H4a4 4 0 0 0-4 4v3h16v-3a4 4 0 0 0-4-4z"/><path d="M12 5V4a4 4 0 0 0-8 0v1a4 4 0 0 0 8 0z"/></svg><svg id="camera" viewBox="0 0 512 512" xmlns="http://www.w3.org/2000/svg"><path d="M417.5 160h-61.7c-32.1-36-42.2-48-54.5-48h-88.5c-12.3 0-22.2 12-54.5 48H145v-16h-34v16H97.5C79.9 160 64 173.2 64 190.7v176c0 17.5 15.9 33.3 33.5 33.3h320c17.6 0 30.5-15.8 30.5-33.3v-176c0-17.5-12.9-30.7-30.5-30.7zM432 366.7c0 9.3-6.2 17.3-14.5 17.3h-320c-8.7 0-17.5-8.7-17.5-17.3v-176c0-8.2 8.1-14.7 17.5-14.7h67.8l4.8-3.2c4-4.5 7.7-10 11.1-13.8 11.3-12.7 19.5-21.7 25.3-26.9 4.7-4.2 6.2-4.1 6.2-4.1h88.5s1.6-.1 6.7 4.5c6.1 5.5 14.7 16.5 26.6 29.8 2.9 3.3 6 6.8 9.3 10.5l4.8 3.2h68.9c8.8 0 14.5 6 14.5 14.7v176z"/><path d="M256 189.5c-47.1 0-85.5 38.4-85.5 85.5s38.4 85.5 85.5 85.5 85.5-38.4 85.5-85.5-38.4-85.5-85.5-85.5zm0 155c-38.4 0-69.5-31.1-69.5-69.5s31.1-69.5 69.5-69.5 69.5 31.1 69.5 69.5-31.1 69.5-69.5 69.5zM352 192h17v17h-17z"/><circle cx="256" cy="275" r="32"/></svg><svg viewBox="0 0 64 64" id="cart" xmlns="http://www.w3.org/2000/svg"><path d="M56.262 17.837H26.748c-.961 0-1.508.743-1.223 1.661l4.669 13.677c.23.738 1.044 1.336 1.817 1.336h19.35c.773 0 1.586-.598 1.815-1.336l4.069-14c.231-.738-.209-1.338-.983-1.338z"/><circle cx="29.417" cy="50.267" r="4.415"/><circle cx="48.099" cy="50.323" r="4.415"/><path d="M53.4 39.004H27.579L17.242 9.261H9.193a2.5 2.5 0 100 5h4.493l10.337 29.743H53.4a2.5 2.5 0 100-5z"/></svg><svg viewBox="0 0 56.693 56.693" id="facebook" xmlns="http://www.w3.org/2000/svg"><path d="M40.43 21.739h-7.645v-5.014c0-1.883 1.248-2.322 2.127-2.322h5.395V6.125l-7.43-.029c-8.248 0-10.125 6.174-10.125 10.125v5.518h-4.77v8.53h4.77v24.137h10.033V30.269h6.77l.875-8.53z"/></svg><svg viewBox="0 0 56.693 56.693" id="google" xmlns="http://www.w3.org/2000/svg"><path d="M51.981 24.481c-7.717-.004-15.435-.002-23.152 0 .001 3.2-.004 6.401.002 9.6h13.407c-.518 3.068-2.34 5.873-4.926 7.6-1.625 1.093-3.492 1.802-5.416 2.139-1.938.33-3.94.373-5.872-.018a14.452 14.452 0 01-5.477-2.365 15.287 15.287 0 01-5.639-7.555c-1.048-3.079-1.056-6.505.005-9.58a15.266 15.266 0 013.57-5.8c1.986-2.033 4.567-3.486 7.348-4.082a14.57 14.57 0 017.223.294 13.333 13.333 0 015.305 3.116c1.512-1.503 3.017-3.016 4.527-4.523.792-.81 1.624-1.586 2.39-2.42-2.292-2.121-4.98-3.827-7.917-4.905-5.287-1.946-11.25-1.987-16.572-.145C14.79 7.891 9.682 12.377 6.85 18.046a24.477 24.477 0 00-2.138 6.184c-1.088 5.343-.33 11.04 2.135 15.908a24.788 24.788 0 006.684 8.215 24.487 24.487 0 008.94 4.508c4.098 1.099 8.46 1.074 12.586.135 3.728-.858 7.256-2.64 10.073-5.24 2.977-2.736 5.1-6.34 6.224-10.214 1.227-4.225 1.396-8.736.627-13.06z"/></svg><svg viewBox="0 0 100.4 100.4" id="hourglass" xmlns="http://www.w3.org/2000/svg"><path d="M76.9 23.1l1.1-4.2h4.8c.9 0 1.6-.7 1.6-1.6v-7c0-.9-.7-1.6-1.6-1.6H17.5c-.9 0-1.6.7-1.6 1.6v7c0 .9.7 1.6 1.6 1.6h4.8l1.1 4.2C26.2 34.7 34.5 43.9 45.7 48v3.8c-11.1 4.1-19.4 13.3-22.3 24.9L22 81.9h-4.5c-.9 0-1.6.7-1.6 1.6v7c0 .9.7 1.6 1.6 1.6h65.3c.9 0 1.6-.7 1.6-1.6v-7c0-.9-.7-1.6-1.6-1.6h-4.5L77 76.6c-3-11.5-11.3-20.7-22.4-24.8V48C65.7 43.9 74 34.7 76.9 23.1zM19.1 11.9h62v3.7h-62v-3.7zm62.1 77h-62v-3.7h62v3.7zM52.6 54.3C63.3 57.8 71.3 66.5 74 77.4l1.1 4.5h-50l1.1-4.5C29 66.5 37 57.8 47.6 54.3c.6-.2 1-.8 1-1.4V47c0-.6-.4-1.2-1-1.4C37 41.9 29 33.3 26.3 22.4l-.9-3.5h49.5l-.9 3.5c-2.7 10.9-10.7 19.5-21.4 23.1-.6.2-1 .8-1 1.4v5.9c0 .7.4 1.3 1 1.5z"/></svg><svg viewBox="0 0 512 512" id="play" xmlns="http://www.w3.org/2000/svg"><path d="M405.2 232.9L126.8 67.2c-3.4-2-6.9-3.2-10.9-3.2-10.9 0-19.8 9-19.8 20H96v344h.1c0 11 8.9 20 19.8 20 4.1 0 7.5-1.4 11.2-3.4l278.1-165.5c6.6-5.5 10.8-13.8 10.8-23.1s-4.2-17.5-10.8-23.1z"/></svg><svg id ="speedometer" viewBox="0 0 48 48" xmlns="http://www.w3.org/2000/svg"><path clip-rule="evenodd" d="M44.9 32.971c0 .011.006.019.006.029 0 .005-.003.01-.003.016.001.005.003.01.003.016a1 1 0 0 1-1 1C43.921 34.031 35 34 35 34a1 1 0 1 1 0-2h7.946c.019-.334.054-.662.054-1 0-10.493-8.507-19-19-19S5 20.507 5 31c0 .338.035.666.053 1H13a1 1 0 1 1 0 2l-8.906.031a1 1 0 0 1-1-1c0-.006.002-.011.003-.016 0-.006-.003-.011-.003-.016 0-.011.006-.019.006-.028A21.06 21.06 0 0 1 3 31c0-11.599 9.402-21 21-21s21 9.401 21 21c0 .665-.039 1.321-.1 1.971zM17.523 21.128a1.052 1.052 0 0 1 1.189.133l-.05-.083c8.774 6.42 10.577 9.373 10.61 9.428 1.433 2.357.581 5.371-1.899 6.731s-5.653.553-7.085-1.804c-.035-.053-1.824-3.014-3.291-13.442l.051.082a.948.948 0 0 1 .475-1.045zm4.563 13.421c.555.911 1.589 1.478 2.699 1.478a3.23 3.23 0 0 0 1.552-.397 2.959 2.959 0 0 0 1.45-1.794 2.8 2.8 0 0 0-.303-2.232c-.017-.025-1.572-2.386-8.062-7.348 1.281 7.815 2.653 10.273 2.664 10.293z" fill-rule="evenodd"/></svg><svg viewBox="0 0 56.693 56.693" id="twitter" xmlns="http://www.w3.org/2000/svg"><path d="M52.837 15.065a20.11 20.11 0 01-5.805 1.591 10.125 10.125 0 004.444-5.592 20.232 20.232 0 01-6.418 2.454 10.093 10.093 0 00-7.377-3.192c-5.581 0-10.106 4.525-10.106 10.107 0 .791.089 1.562.262 2.303-8.4-.422-15.848-4.445-20.833-10.56a10.055 10.055 0 00-1.368 5.082c0 3.506 1.784 6.6 4.496 8.412a10.078 10.078 0 01-4.578-1.265l-.001.128c0 4.896 3.484 8.98 8.108 9.91a10.162 10.162 0 01-4.565.172c1.287 4.015 5.019 6.938 9.441 7.019a20.276 20.276 0 01-12.552 4.327c-.815 0-1.62-.048-2.411-.142a28.6 28.6 0 0015.493 4.541c18.591 0 28.756-15.4 28.756-28.756 0-.438-.009-.875-.028-1.309a20.47 20.47 0 005.042-5.23z"/></svg><svg viewBox="0 0 64 64" id="two-down-arrows" xmlns="http://www.w3.org/2000/svg"><path d="M50.6 29.3L33 46.9l-.9.9L16 31.7l-2.6-2.6c-2-2-5.3 1.1-3.2 3.2L27.9 50l2.6 2.6c.9.9 2.4.9 3.2 0L51.3 35l2.5-2.5c2.1-2-1.2-5.2-3.2-3.2z"/><path d="M28 34.8l2.6 2.6c.9.9 2.4.9 3.2 0l17.6-17.6 2.5-2.5c2-2-1.1-5.3-3.2-3.2-6 5.8-11.8 11.7-17.7 17.5l-.9.9L16 16.4l-2.6-2.6c-2-2-5.3 1.1-3.2 3.2 5.9 6 11.9 11.8 17.8 17.8z"/></svg><svg viewBox="0 0 512 512" fill-rule="evenodd" clip-rule="evenodd" stroke-linejoin="round" stroke-miterlimit="2" id="youtube" xmlns="http://www.w3.org/2000/svg"><path d="M501.303 132.765c-5.887-22.03-23.235-39.377-45.265-45.265C416.106 76.8 256 76.8 256 76.8s-160.107 0-200.039 10.7c-22.026 5.888-39.377 23.235-45.264 45.265C0 172.693 0 256.003 0 256.003s0 83.308 10.697 123.232c5.887 22.03 23.238 39.382 45.264 45.269C95.893 435.2 256 435.2 256 435.2s160.106 0 200.038-10.696c22.03-5.887 39.378-23.239 45.265-45.269 10.696-39.924 10.696-123.232 10.696-123.232s0-83.31-10.696-123.238zM204.797 332.804V179.201l133.019 76.802-133.019 76.801z" fill-rule="nonzero"/></svg></svg>