<?xml version="1.0" encoding="utf-8"?><svg viewBox="0 0 111.812 124" xmlns="http://www.w3.org/2000/svg" xmlns:xlink="http://www.w3.org/1999/xlink"><style>:root>svg{display:none}:root>svg:target{display:block}</style><svg  viewBox="0 0 50 50" id="facebook" xmlns="http://www.w3.org/2000/svg"><path fill-rule="evenodd" clip-rule="evenodd" d="M43.891 0A6.112 6.112 0 0150 6.109V43.89A6.112 6.112 0 0143.891 50H33.494V31.16h6.504l1.237-8.068h-7.741v-5.236c0-2.207 1.081-4.359 4.549-4.359h3.52V6.628s-3.195-.545-6.249-.545c-6.375 0-10.543 3.864-10.543 10.86v6.15h-7.087v8.068h7.087V50H6.11A6.112 6.112 0 010 43.891V6.11A6.112 6.112 0 016.109 0h37.782z" /></svg><svg  viewBox="0 0 50 50" id="instagram" xmlns="http://www.w3.org/2000/svg"><path fill-rule="evenodd" clip-rule="evenodd" d="M43.891 0A6.112 6.112 0 0150 6.109V43.89A6.112 6.112 0 0143.891 50H6.11A6.112 6.112 0 010 43.891V6.11A6.112 6.112 0 016.109 0h37.782zM25 7.91c-4.641 0-5.223.02-7.046.103-1.82.083-3.061.372-4.149.794a8.378 8.378 0 00-3.027 1.971 8.378 8.378 0 00-1.97 3.027c-.423 1.088-.712 2.33-.795 4.149C7.93 19.777 7.91 20.359 7.91 25s.02 5.223.103 7.046c.083 1.82.372 3.061.794 4.148a8.378 8.378 0 001.971 3.027 8.376 8.376 0 003.027 1.972c1.088.422 2.33.711 4.149.794 1.823.083 2.405.103 7.046.103s5.223-.02 7.046-.103c1.82-.083 3.061-.372 4.148-.794a8.378 8.378 0 003.027-1.971 8.377 8.377 0 001.972-3.028c.422-1.087.711-2.329.794-4.148.083-1.823.103-2.405.103-7.046s-.02-5.223-.103-7.046c-.083-1.82-.372-3.061-.794-4.149a8.378 8.378 0 00-1.971-3.027 8.378 8.378 0 00-3.028-1.97c-1.087-.423-2.329-.712-4.148-.795C30.223 7.93 29.641 7.91 25 7.91zm0 3.08c4.563 0 5.104.017 6.906.1 1.666.075 2.57.354 3.173.587.798.31 1.367.68 1.965 1.279a5.295 5.295 0 011.279 1.965c.233.602.512 1.507.588 3.173.082 1.802.1 2.343.1 6.906s-.018 5.104-.1 6.906c-.076 1.666-.355 2.57-.588 3.173a5.294 5.294 0 01-1.279 1.965 5.294 5.294 0 01-1.965 1.279c-.602.233-1.507.512-3.173.588-1.802.082-2.342.1-6.906.1s-5.104-.018-6.906-.1c-1.666-.076-2.57-.355-3.173-.588a5.294 5.294 0 01-1.965-1.279 5.293 5.293 0 01-1.279-1.965c-.233-.602-.512-1.507-.588-3.173-.082-1.802-.1-2.343-.1-6.906s.018-5.104.1-6.906c.076-1.666.354-2.57.588-3.173.31-.798.68-1.367 1.279-1.965a5.296 5.296 0 011.965-1.279c.602-.233 1.507-.512 3.173-.588 1.802-.082 2.343-.1 6.906-.1v.001zm0 5.234a8.776 8.776 0 100 17.552 8.776 8.776 0 000-17.552zm0 14.473a5.697 5.697 0 11-.15-11.393A5.697 5.697 0 0125 30.697zm11.173-14.82a2.05 2.05 0 11-4.1 0 2.05 2.05 0 014.1 0z" /></svg><svg viewBox="0 0 50 50" id="pinterest" xmlns="http://www.w3.org/2000/svg"><path fill-rule="evenodd" clip-rule="evenodd" d="M43.891 0A6.112 6.112 0 0150 6.109V43.89A6.112 6.112 0 0143.891 50H18.48c1.058-1.785 2.402-4.31 2.939-6.373a4395.88 4395.88 0 011.667-6.362c.872 1.664 3.422 3.073 6.133 3.073 8.072 0 13.887-7.423 13.887-16.646 0-8.84-7.215-15.455-16.498-15.455-11.549 0-17.682 7.752-17.682 16.194 0 3.925 2.09 8.811 5.432 10.367.507.236.778.132.895-.358.089-.372.54-2.19.743-3.035.065-.27.033-.502-.185-.767-1.106-1.341-1.992-3.807-1.992-6.107 0-5.902 4.47-11.614 12.084-11.614 6.574 0 11.178 4.48 11.178 10.888 0 7.239-3.656 12.254-8.412 12.254-2.627 0-4.593-2.172-3.963-4.836.754-3.181 2.216-6.614 2.216-8.91 0-2.055-1.103-3.77-3.386-3.77-2.685 0-4.842 2.779-4.842 6.5 0 2.37.8 3.973.8 3.973s-2.651 11.213-3.137 13.302c-.538 2.31-.328 5.564-.094 7.682h.001H6.11A6.112 6.112 0 010 43.891V6.11A6.112 6.112 0 016.109 0h37.782z" /></svg><svg fill="none" viewBox="0 0 33 27" id="plane" xmlns="http://www.w3.org/2000/svg"><g clip-path="url(#da)" fill="#000"><path d="M15.714 20.407l-1.264 4.872 3.755-3.839-.51-.2-1.981-.833z"/><path d="M17.755 17.728a.6.6 0 01-.914-.774L31.215 0 2.238 11.692 0 12.619l9.189 3.72 14.629-10.89a.6.6 0 11.715.958L9.979 17.249l2.792 9.754 1.946-7.514h.014a.575.575 0 01.025-.126.6.6 0 01.784-.32l3.919 1.641 8.168 3.211a.565.565 0 00.7-.206.6.6 0 00.1-.252L30.4 10.306 32.35.517 17.755 17.728z"/></g><defs><clipPath id="da"><path fill="#fff" d="M0 0h32.347v27H0z"/></clipPath></defs></svg><svg viewBox="0 0 111.812 124" id="play" xmlns="http://www.w3.org/2000/svg"><path d="M6.359 124A6.359 6.359 0 010 117.641V6.359A6.359 6.359 0 016.359 0l103.329 57.23s4.769 4.769 0 9.539S6.359 124 6.359 124z" fill="#fff"/></svg><svg viewBox="0 0 26 26" id="search" xmlns="http://www.w3.org/2000/svg"><path d="M19.975 17.82a1.388 1.388 0 10-1.963 1.963l5.235 5.235a1.388 1.388 0 101.963-1.963l-5.235-5.235z" /><path fill-rule="evenodd" clip-rule="evenodd" d="M21.284 10.642c0 5.877-4.765 10.642-10.642 10.642S0 16.519 0 10.642 4.765 0 10.642 0s10.642 4.765 10.642 10.642zM10.642 19.5c5.325 0 8.858-3.675 8.858-9S15.967 2 10.642 2C5.317 2 2 5.317 2 10.642c0 5.325 3.317 8.858 8.642 8.858z"/></svg><svg viewBox="0 0 22.411 28" id="shopping-bag" xmlns="http://www.w3.org/2000/svg"><path d="M22.406 24.2L20.8 6.15a.772.772 0 00-.767-.7h-3.3a5.532 5.532 0 00-11.063 0h-3.3a.768.768 0 00-.767.7L.006 24.2c0 .023-.006.046-.006.069A3.99 3.99 0 004.2 28h14.009a3.99 3.99 0 004.2-3.728.279.279 0 00-.003-.072zm-11.2-22.654a3.989 3.989 0 013.985 3.9H7.22a3.989 3.989 0 013.986-3.9zm7 24.908H4.2a2.467 2.467 0 01-2.657-2.147L3.081 7h2.588v2.345a.773.773 0 101.546 0V7h7.976v2.345a.773.773 0 101.546 0V7h2.588l1.54 17.31a2.471 2.471 0 01-2.656 2.144z"/></svg><svg viewBox="0 0 50 50" id="twitter" xmlns="http://www.w3.org/2000/svg"><path fill-rule="evenodd" clip-rule="evenodd" d="M6.25 50h37.5C47.2 50 50 47.2 50 43.75V6.25C50 2.8 47.2 0 43.75 0H6.25C2.8 0 0 2.8 0 6.25v37.5C0 47.2 2.8 50 6.25 50zm31.187-30.539c0 8.463-6.45 18.238-18.237 18.238a18.234 18.234 0 01-9.813-2.864c.5.063 1.013.088 1.525.088a12.856 12.856 0 007.963-2.75 6.41 6.41 0 01-5.988-4.45 6.31 6.31 0 001.2.112 6.247 6.247 0 001.688-.225 6.423 6.423 0 01-5.138-6.287v-.088c.89.49 1.884.764 2.9.8a6.427 6.427 0 01-2.85-5.337 6.41 6.41 0 01.863-3.225c3.162 3.875 7.887 6.437 13.212 6.7a7.09 7.09 0 01-.162-1.463 6.418 6.418 0 018.96-5.884 6.398 6.398 0 012.127 1.498 12.751 12.751 0 004.075-1.55 6.449 6.449 0 01-2.825 3.55 12.987 12.987 0 003.688-1.013 13.059 13.059 0 01-3.2 3.325c.012.275.012.55.012.825z"/></svg><svg viewBox="0 0 50 50" id="youtube" xmlns="http://www.w3.org/2000/svg"><path fill-rule="evenodd" clip-rule="evenodd" d="M43.891 0A6.112 6.112 0 0150 6.109V43.89A6.112 6.112 0 0143.891 50H6.11A6.112 6.112 0 010 43.891V6.11A6.112 6.112 0 016.109 0h37.782zm-2.047 17.151a4.403 4.403 0 00-3.108-3.108C35.994 13.31 25 13.31 25 13.31s-10.994 0-13.736.734a4.404 4.404 0 00-3.108 3.108c-.734 2.742-.734 8.462-.734 8.462s0 5.72.734 8.462a4.403 4.403 0 003.108 3.108c2.742.735 13.736.735 13.736.735s10.994 0 13.736-.734a4.403 4.403 0 003.108-3.109c.734-2.741.734-8.462.734-8.462s0-5.72-.734-8.462v-.001zm-20.36 13.736V20.34l9.134 5.273-9.134 5.274z" /></svg></svg>