<svg width="57" height="49" viewBox="0 0 57 49" fill="none" xmlns="http://www.w3.org/2000/svg">
<path d="M13.3255 48.3626C9.80585 48.3588 6.43144 46.9589 3.94265 44.4701C1.45387 41.9813 0.0539734 38.6069 0.0501104 35.0872C0.0501104 35.0653 0.0501104 35.0426 0.0501104 35.0207C0.0501104 34.977 0.0444347 34.9113 0.0395698 34.8245C-0.232863 30.0034 0.555245 16.9867 13.7252 0.307496C13.8439 0.157697 14.0116 0.0545967 14.1988 0.016383C14.386 -0.0218308 14.5807 0.00729702 14.7485 0.0986281C14.9163 0.189959 15.0465 0.337625 15.1161 0.515579C15.1856 0.693532 15.1901 0.890338 15.1288 1.07128C15.0915 1.18155 11.4923 11.9629 13.9515 21.828C17.4152 21.9906 20.6779 23.5019 23.0417 26.0389C25.4056 28.5758 26.683 31.9369 26.6009 35.4035C26.5187 38.8701 25.0834 42.1669 22.6019 44.589C20.1205 47.0111 16.7898 48.3661 13.3223 48.3643L13.3255 48.3626ZM1.67173 35.1334C1.6807 37.4364 2.37181 39.685 3.65778 41.5955C4.94376 43.506 6.76695 44.9926 8.89718 45.8677C11.0274 46.7428 13.3691 46.9671 15.6268 46.5123C17.8844 46.0576 19.9566 44.9441 21.5819 43.3125C23.2072 41.6809 24.3126 39.6043 24.7586 37.3449C25.2046 35.0856 24.9712 32.7447 24.0878 30.6179C23.2044 28.4911 21.7107 26.6737 19.7953 25.3952C17.8798 24.1166 15.6285 23.4343 13.3255 23.4343C13.148 23.4342 12.9753 23.3759 12.8341 23.2682C12.6929 23.1606 12.5909 23.0095 12.5439 22.8383C10.679 16.0518 11.5936 8.9329 12.5204 4.6129C2.07389 19.2464 1.41795 30.4161 1.662 34.7337C1.67301 34.8667 1.67626 35.0001 1.67173 35.1334Z" fill="#CFCCFF"/>
<path d="M43.4763 48.3626C39.9567 48.3588 36.5822 46.9589 34.0935 44.4701C31.6047 41.9813 30.2048 38.6069 30.2009 35.0872C30.2009 35.0653 30.2009 35.0426 30.2009 35.0207C30.2009 34.977 30.1952 34.9113 30.1904 34.8245C29.9179 30.0034 30.7061 16.9867 43.8761 0.307496C43.9947 0.157697 44.1624 0.0545967 44.3496 0.016383C44.5368 -0.0218308 44.7315 0.00729702 44.8993 0.0986281C45.0671 0.189959 45.1973 0.337625 45.2669 0.515579C45.3365 0.693532 45.3409 0.890338 45.2796 1.07128C45.2423 1.18155 41.6431 11.9629 44.1023 21.828C47.566 21.9906 50.8287 23.5019 53.1926 26.0389C55.5564 28.5758 56.8339 31.9369 56.7517 35.4035C56.6695 38.8701 55.2342 42.1669 52.7527 44.589C50.2713 47.0111 46.9406 48.3661 43.4731 48.3643L43.4763 48.3626ZM31.8225 35.1334C31.8315 37.4364 32.5226 39.685 33.8086 41.5955C35.0946 43.506 36.9178 44.9926 39.048 45.8677C41.1782 46.7428 43.52 46.9671 45.7776 46.5123C48.0352 46.0576 50.1074 44.9441 51.7327 43.3125C53.358 41.6809 54.4634 39.6043 54.9094 37.3449C55.3554 35.0856 55.122 32.7447 54.2386 30.6179C53.3552 28.4911 51.8615 26.6737 49.9461 25.3952C48.0306 24.1166 45.7793 23.4343 43.4763 23.4343C43.2988 23.4342 43.1261 23.3759 42.9849 23.2682C42.8437 23.1606 42.7418 23.0095 42.6947 22.8383C40.8298 16.0518 41.7444 8.9329 42.6712 4.6129C32.2247 19.2464 31.568 30.4161 31.812 34.7337C31.8233 34.8666 31.8268 35.0001 31.8225 35.1334Z" fill="#CFCCFF"/>
<path d="M31.8225 35.1334C31.8315 37.4364 32.5226 39.685 33.8086 41.5955C35.0946 43.506 36.9178 44.9926 39.048 45.8677C41.1782 46.7428 43.52 46.9671 45.7776 46.5123C48.0352 46.0576 50.1074 44.9441 51.7327 43.3125C53.358 41.6809 54.4634 39.6043 54.9094 37.3449C55.3554 35.0856 55.122 32.7447 54.2386 30.6179C53.3552 28.4911 51.8615 26.6737 49.9461 25.3952C48.0306 24.1166 45.7793 23.4343 43.4763 23.4343C43.2988 23.4342 43.1261 23.3759 42.9849 23.2682C42.8437 23.1606 42.7418 23.0095 42.6947 22.8383C40.8298 16.0518 41.7444 8.9329 42.6712 4.6129C32.2247 19.2464 31.568 30.4161 31.812 34.7337C31.8233 34.8666 31.8268 35.0001 31.8225 35.1334Z" fill="#CFCCFF"/>
<path d="M1.67173 35.1334C1.6807 37.4364 2.37181 39.685 3.65778 41.5955C4.94376 43.506 6.76695 44.9926 8.89718 45.8677C11.0274 46.7428 13.3691 46.9671 15.6268 46.5123C17.8844 46.0576 19.9566 44.9441 21.5819 43.3125C23.2072 41.6809 24.3126 39.6043 24.7586 37.3449C25.2046 35.0856 24.9712 32.7447 24.0878 30.6179C23.2044 28.4911 21.7107 26.6737 19.7953 25.3952C17.8798 24.1166 15.6285 23.4343 13.3255 23.4343C13.148 23.4342 12.9753 23.3759 12.8341 23.2682C12.6929 23.1606 12.5909 23.0095 12.5439 22.8383C10.679 16.0518 11.5936 8.9329 12.5204 4.6129C2.07389 19.2464 1.41795 30.4161 1.662 34.7337C1.67301 34.8667 1.67626 35.0001 1.67173 35.1334Z" fill="#CFCCFF"/>
</svg>
