<?xml version="1.0" encoding="utf-8"?><svg viewBox="0 0 650 650" xmlns="http://www.w3.org/2000/svg" xmlns:xlink="http://www.w3.org/1999/xlink"><style>:root>svg{display:none}:root>svg:target{display:block}</style><svg viewBox="0 0 74 74" id="airplane" xmlns="http://www.w3.org/2000/svg"><path d="M28.182 69.074a1.013 1.013 0 01-.122-.008 1 1 0 01-.86-.8l-5.193-26.7L2.712 33.09a1 1 0 01.053-1.853l68.69-25.574a1 1 0 011.321 1.172L59.81 60.4a1 1 0 01-1.456.64L37.841 49.718 29.088 68.5a1 1 0 01-.906.574zM5.774 32.251l17.518 7.7a1 1 0 01.579.725l4.705 24.19L36.481 47.9a1 1 0 011.389-.453l20.3 11.2L70.39 8.193z"/><path d="M37.387 49.325a1 1 0 01-.771-1.636l29.733-36.047-42.886 30.04a1 1 0 01-1.148-1.638L71.23 5.781a1 1 0 011.346 1.455L38.159 48.961a1 1 0 01-.772.364zM28.18 69.078a1 1 0 01-.691-1.724l16.194-15.461a1 1 0 111.381 1.446L28.87 68.8a1 1 0 01-.69.278z"/></svg><svg viewBox="0 0 650 650" x="3" y="3" id="arrow-right" xmlns="http://www.w3.org/2000/svg"><path d="M128.133 490.68a10.667 10.667 0 01-7.552-18.219l227.136-227.115L120.581 18.232c-4.171-4.171-4.171-10.933 0-15.104 4.171-4.171 10.933-4.171 15.104 0l234.667 234.667c4.164 4.165 4.164 10.917 0 15.083L135.685 487.544a10.663 10.663 0 01-7.552 3.136z"/></svg><svg fill="none" viewBox="0 0 48 48" id="bubbles" xmlns="http://www.w3.org/2000/svg"><g clip-path="url(#cclip0)" stroke="#000"><path d="M16.5 2.093c5.896 0 11.18 3.244 13.928 8.22-11.652.651-20.3 11.369-18.324 22.978a15.693 15.693 0 01-2.403-.908l-.149-.07-.162.031-7.807 1.544h0A.907.907 0 01.519 32.82L2.06 25.11l.032-.163-.07-.15A15.73 15.73 0 01.5 18c0-8.767 7.175-15.906 16-15.906z"/><path d="M45.978 36.797l-.07.15.032.162 1.542 7.712.49-.098-.49.098a.907.907 0 01-.956 1.082 25.703 25.703 0 01-.744-.14l-2.541-.502-4.63-.917-.163-.032-.149.07a15.726 15.726 0 01-6.776 1.523c-8.76-.014-15.882-7.144-15.882-15.906 0-8.961 7.445-16.2 16.448-15.896l.198.01c10.569.511 17.725 11.013 14.322 21l-.225.662h.035a15.73 15.73 0 01-.44 1.022z"/></g><defs><clipPath id="cclip0"><path fill="#fff" d="M0 0h48v48H0z"/></clipPath></defs></svg><svg viewBox="0 0 24 24" id="facebook" xmlns="http://www.w3.org/2000/svg"><path d="M15.997 3.985h2.191V.169C17.81.117 16.51 0 14.996 0c-3.159 0-5.323 1.987-5.323 5.639V9H6.187v4.266h3.486V24h4.274V13.267h3.345l.531-4.266h-3.877V6.062c.001-1.233.333-2.077 2.051-2.077z"/></svg><svg viewBox="-63 0 479 480" id="film" xmlns="http://www.w3.org/2000/svg"><path d="M16.5 464h32v16h16v-16h224v16h16v-16h32v16h16V0h-16v16h-32V0h-16v16h-224V0h-16v16h-32V0H.5v480h16zm288-432h32v32h-32zm0 48h32v32h-32zm0 48h32v32h-32zm0 48h32v32h-32zm0 48h32v32h-32zm0 48h32v32h-32zm0 48h32v32h-32zm0 48h32v32h-32zm0 48h32v32h-32zm-240-288V32h224v128h-224zm0 144v-96h224v128h-224zm0 144v-96h224v128h-224zm-48-384h32v32h-32zm0 48h32v32h-32zm0 48h32v32h-32zm0 48h32v32h-32zm0 48h32v32h-32zm0 48h32v32h-32zm0 48h32v32h-32zm0 48h32v32h-32zm0 48h32v32h-32zm0 0"/></svg><svg viewBox="0 0 512 512" id="google-plus" xmlns="http://www.w3.org/2000/svg"><path d="M495.305 55.653h-38.956V16.696c0-9.22-7.475-16.696-16.696-16.696h-33.391c-9.22 0-16.696 7.475-16.696 16.696v38.956H350.61c-9.22 0-16.696 7.475-16.696 16.696v33.391c0 9.22 7.475 16.696 16.696 16.696h38.956v38.956c0 9.22 7.475 16.696 16.696 16.696h33.391c9.22 0 16.696-7.475 16.696-16.696v-38.956h38.956c9.22 0 16.696-7.475 16.696-16.696V72.348c-.001-9.22-7.476-16.695-16.696-16.695zM399.84 293.485c-.813-8.619-8.049-15.224-16.707-15.224H217.044c-9.22 0-16.696 7.475-16.696 16.696v33.391c0 9.22 7.475 16.696 16.696 16.696h112.64c-14.803 57.544-67.117 100.174-129.336 100.174-78.634 0-141.549-68.197-132.74-148.59 6.118-55.837 59.379-110.199 115.086-117.398 38.224-4.94 73.85 6.449 100.887 28.059 6.67 5.331 16.209 4.921 22.247-1.117l23.712-23.712c6.899-6.899 6.531-18.33-.956-24.585-34.778-29.057-79.514-46.569-128.237-46.569-117.979 0-212.577 102.68-199.059 223.311 10.417 92.952 86.398 167.565 179.508 176.45 107.571 10.263 200.17-65.251 217.005-166.022a195.036 195.036 0 002.894-33.391 193.398 193.398 0 00-.855-18.169z"/></svg><svg viewBox="0 0 64 64" id="handbag" xmlns="http://www.w3.org/2000/svg"><path d="M61.01 21.99a3.008 3.008 0 00-2.23-.99H51a19 19 0 00-38 0H5.22a3.008 3.008 0 00-2.23.99 2.957 2.957 0 00-.75 2.31l2.48 24.23A14.952 14.952 0 0019.64 62h24.72a14.952 14.952 0 0014.92-13.47l2.48-24.23a2.957 2.957 0 00-.75-2.31zM15 21a17 17 0 0134 0v5.1a5.05 5.05 0 00-2 0V21a15 15 0 00-30 0v5.1a5.05 5.05 0 00-2 0zm36 10a3 3 0 11-3-3 3.009 3.009 0 013 3zm-6-10H19a13 13 0 0126 0zm-29 7a3 3 0 11-3 3 3.009 3.009 0 013-3zm41.3 20.33A12.979 12.979 0 0144.36 60H19.64A12.979 12.979 0 016.7 48.33L4.22 24.1a1.011 1.011 0 011-1.1H13v4h.03a5 5 0 105.94 0H19v-4h26v4h.03a5 5 0 105.94 0H51v-4h7.78a1.011 1.011 0 011 1.1z"/></svg><svg viewBox="0 0 420.96 420.96" id="headphones" xmlns="http://www.w3.org/2000/svg"><path d="M354.48 144c0-79.529-64.471-144-144-144s-144 64.471-144 144c-20.56 2.56-40 16-40 47.2v75.2c0 35.2 24.64 48 48 48h23.2a8 8 0 008-8V151.52a8 8 0 00-8-8h-15.2c0-70.692 57.308-128 128-128s128 57.308 128 128h-15.2a8 8 0 00-8 8v154.64a8 8 0 008 8h15.2c-2.24 54.96-28.64 67.84-81.36 70.16v-5.36c0-8.837-7.163-16-16-16H190.8c-8.837 0-16 7.163-16 16v26c0 8.837 7.163 16 16 16h50.48c8.837 0 16-7.163 16-16v-4.64c50.72-2.32 94.56-12.8 97.2-86.64 20.56-2.56 40-16 40-47.2v-75.2c0-31.36-19.36-44.72-40-47.28zm-264.8 14.96v139.2h-15.6c-11.84 0-32-4.16-32-32v-75.2c0-27.6 19.92-32 32-32h15.6zm151.6 233.92v12.16H190.8v-26h50.48v13.84zm137.2-126.48c0 27.6-19.92 32-32 32h-15.2V159.52h15.6c11.84 0 32 4.16 32 32l-.4 74.88z"/></svg><svg viewBox="0 0 24 24" id="linkedin" xmlns="http://www.w3.org/2000/svg"><path d="M23.994 24v-.001H24v-8.802c0-4.306-.927-7.623-5.961-7.623-2.42 0-4.044 1.328-4.707 2.587h-.07V7.976H8.489v16.023h4.97v-7.934c0-2.089.396-4.109 2.983-4.109 2.549 0 2.587 2.384 2.587 4.243V24zM.396 7.977h4.976V24H.396zM2.882 0C1.291 0 0 1.291 0 2.882s1.291 2.909 2.882 2.909 2.882-1.318 2.882-2.909A2.884 2.884 0 002.882 0z"/></svg><svg viewBox="0 0 54 54" id="lock" xmlns="http://www.w3.org/2000/svg"><path d="M43 20.113V14.5C43 6.505 35.822 0 27 0S11 6.505 11 14.5v5.613c-3.401.586-6 3.55-6 7.117v19.542C5 50.757 8.243 54 12.229 54h29.542C45.757 54 49 50.757 49 46.771V27.229c0-3.566-2.599-6.53-6-7.116zM13 14.5C13 7.607 19.28 2 27 2s14 5.607 14 12.5V20H13v-5.5zm34 32.271A5.235 5.235 0 0141.771 52H12.229A5.235 5.235 0 017 46.771V27.229A5.235 5.235 0 0112.229 22h29.542A5.235 5.235 0 0147 27.229v19.542z"/><path d="M27 28c-2.206 0-4 1.794-4 4v6c0 2.206 1.794 4 4 4s4-1.794 4-4v-6c0-2.206-1.794-4-4-4zm2 10c0 1.103-.897 2-2 2s-2-.897-2-2v-6c0-1.103.897-2 2-2s2 .897 2 2v6z"/></svg><svg fill="none" viewBox="0 0 57 49" id="quote" xmlns="http://www.w3.org/2000/svg"><path d="M13.325 48.363A13.29 13.29 0 01.05 35.087v-.066c0-.044-.006-.11-.01-.197-.273-4.82.515-17.837 13.685-34.517a.811.811 0 011.404.764c-.037.11-3.637 10.892-1.178 20.757a13.275 13.275 0 01-.629 26.536l.004-.001zM1.672 35.133a11.654 11.654 0 1011.653-11.699.811.811 0 01-.781-.596c-1.865-6.786-.95-13.905-.024-18.225C2.074 19.246 1.418 30.416 1.662 34.733c.011.134.014.267.01.4zM43.476 48.363a13.29 13.29 0 01-13.275-13.276v-.066c0-.044-.006-.11-.01-.197-.273-4.82.515-17.837 13.685-34.517a.81.81 0 011.404.764c-.038.11-3.637 10.892-1.178 20.757a13.276 13.276 0 01-.629 26.536l.003-.001zm-11.653-13.23a11.654 11.654 0 1011.653-11.699.811.811 0 01-.781-.596c-1.865-6.786-.95-13.905-.024-18.225-10.446 14.633-11.103 25.803-10.859 30.12.011.134.015.267.01.4z" fill="#CFCCFF"/><path d="M31.823 35.133a11.654 11.654 0 1011.653-11.699.811.811 0 01-.781-.596c-1.865-6.786-.95-13.905-.024-18.225-10.446 14.633-11.103 25.803-10.859 30.12.011.134.015.267.01.4zM1.672 35.133a11.654 11.654 0 1011.653-11.699.811.811 0 01-.781-.596c-1.865-6.786-.95-13.905-.024-18.225C2.074 19.246 1.418 30.416 1.662 34.733c.011.134.014.267.01.4z" fill="#CFCCFF"/></svg><svg viewBox="0 0 24 24" id="rocket" xmlns="http://www.w3.org/2000/svg"><path d="M11.861 19.066a.502.502 0 01-.354-.146L5.08 12.493a.5.5 0 01-.02-.687L9.877 6.41c3.367-3.939 8.85-6.488 13.631-6.407a.5.5 0 01.488.488c.111 4.784-2.467 10.264-6.416 13.638l-5.387 4.81a.495.495 0 01-.332.127zm-5.74-6.946l5.759 5.759 5.043-4.502c3.606-3.082 6.001-7.994 6.075-12.375-4.381.073-9.292 2.468-12.368 6.066z"/><path d="M13.776 22.726a.464.464 0 01-.143-.022c-.18-.06-.328-.198-.354-.386l-.686-4.787a.501.501 0 01.99-.142l.536 3.74a11.675 11.675 0 002.726-7.459.5.5 0 011 0c0 3.313-1.342 6.556-3.682 8.895-.1.1-.246.161-.387.161zM6.541 11.412a.431.431 0 01-.071-.005l-4.787-.686a.5.5 0 01-.28-.851 12.692 12.692 0 018.928-3.715.5.5 0 010 1c-2.721 0-5.391.983-7.464 2.725l3.745.537a.5.5 0 01-.071.995zM17.133 9.366a2.492 2.492 0 01-1.768-.731 2.505 2.505 0 010-3.536 2.503 2.503 0 013.536 0 2.505 2.505 0 010 3.536 2.491 2.491 0 01-1.768.731zm0-3.998c-.384 0-.769.146-1.061.438a1.504 1.504 0 000 2.122 1.505 1.505 0 002.122 0 1.504 1.504 0 000-2.122 1.503 1.503 0 00-1.061-.438zm1.414 2.914h.01zM.5 24a.5.5 0 01-.479-.643c.164-.547 1.633-5.381 2.703-6.451a3.094 3.094 0 014.371 0 3.094 3.094 0 010 4.371c-1.07 1.07-5.904 2.539-6.451 2.703A.55.55 0 01.5 24zm4.41-6.999c-.536 0-1.071.204-1.479.611-.577.578-1.537 3.159-2.171 5.128 1.968-.634 4.55-1.594 5.127-2.171a2.094 2.094 0 000-2.957 2.083 2.083 0 00-1.477-.611z"/></svg><svg viewBox="0 0 24 24" id="settings" xmlns="http://www.w3.org/2000/svg"><path d="M13.12 24h-2.24a1.498 1.498 0 01-1.486-1.32l-.239-1.876a9.45 9.45 0 01-1.374-.569l-1.494 1.161a1.492 1.492 0 01-1.985-.126l-1.575-1.575a1.488 1.488 0 01-.122-1.979l1.161-1.495a9.232 9.232 0 01-.569-1.374l-1.88-.239A1.501 1.501 0 010 13.12v-2.24c0-.757.567-1.396 1.32-1.486l1.876-.239a9.45 9.45 0 01.569-1.374l-1.16-1.494a1.49 1.49 0 01.127-1.986l1.575-1.575a1.489 1.489 0 011.979-.122L7.78 3.766a9.416 9.416 0 011.375-.569l.239-1.88C9.484.567 10.123 0 10.88 0h2.24c.757 0 1.396.567 1.486 1.32l.239 1.876c.478.155.938.346 1.375.569l1.494-1.161a1.49 1.49 0 011.985.127l1.575 1.575c.537.521.591 1.374.122 1.979L20.235 7.78c.224.437.415.897.569 1.374l1.88.239A1.5 1.5 0 0124 10.88v2.24c0 .757-.567 1.396-1.32 1.486l-1.876.239a9.45 9.45 0 01-.569 1.374l1.161 1.494a1.49 1.49 0 01-.127 1.985l-1.575 1.575a1.487 1.487 0 01-1.979.122l-1.495-1.161a9.232 9.232 0 01-1.374.569l-.239 1.88A1.5 1.5 0 0113.12 24zm-5.39-4.86c.083 0 .168.021.244.063a8.393 8.393 0 001.774.736.5.5 0 01.358.417l.28 2.2c.03.251.247.444.494.444h2.24a.504.504 0 00.493-.439l.281-2.204a.5.5 0 01.358-.417 8.393 8.393 0 001.774-.736.499.499 0 01.55.042l1.75 1.36a.492.492 0 00.655-.034l1.585-1.585a.495.495 0 00.039-.66l-1.36-1.75a.5.5 0 01-.042-.55 8.393 8.393 0 00.736-1.774.5.5 0 01.417-.358l2.2-.28A.507.507 0 0023 13.12v-2.24a.504.504 0 00-.439-.493l-2.204-.281a.5.5 0 01-.417-.358 8.393 8.393 0 00-.736-1.774.497.497 0 01.042-.55l1.36-1.75a.49.49 0 00-.033-.654l-1.585-1.585a.492.492 0 00-.66-.039l-1.75 1.36a.5.5 0 01-.551.042 8.359 8.359 0 00-1.774-.736.5.5 0 01-.358-.417l-.28-2.2A.507.507 0 0013.12 1h-2.24a.504.504 0 00-.493.439l-.281 2.204a.502.502 0 01-.358.418 8.356 8.356 0 00-1.774.735.5.5 0 01-.551-.041l-1.75-1.36a.49.49 0 00-.654.033L3.434 5.014a.495.495 0 00-.039.66l1.36 1.75a.5.5 0 01.042.55 8.341 8.341 0 00-.736 1.774.5.5 0 01-.417.358l-2.2.28A.505.505 0 001 10.88v2.24c0 .247.193.464.439.493l2.204.281a.5.5 0 01.417.358c.18.626.428 1.223.736 1.774a.497.497 0 01-.042.55l-1.36 1.75a.49.49 0 00.033.654l1.585 1.585a.494.494 0 00.66.039l1.75-1.36a.515.515 0 01.308-.104z"/><path d="M12 17c-2.757 0-5-2.243-5-5s2.243-5 5-5 5 2.243 5 5-2.243 5-5 5zm0-9c-2.206 0-4 1.794-4 4s1.794 4 4 4 4-1.794 4-4-1.794-4-4-4z"/></svg><svg viewBox="0 0 512 512" id="twitter" xmlns="http://www.w3.org/2000/svg"><path d="M512 97.248c-19.04 8.352-39.328 13.888-60.48 16.576 21.76-12.992 38.368-33.408 46.176-58.016-20.288 12.096-42.688 20.64-66.56 25.408C411.872 60.704 384.416 48 354.464 48c-58.112 0-104.896 47.168-104.896 104.992 0 8.32.704 16.32 2.432 23.936-87.264-4.256-164.48-46.08-216.352-109.792-9.056 15.712-14.368 33.696-14.368 53.056 0 36.352 18.72 68.576 46.624 87.232-16.864-.32-33.408-5.216-47.424-12.928v1.152c0 51.008 36.384 93.376 84.096 103.136-8.544 2.336-17.856 3.456-27.52 3.456-6.72 0-13.504-.384-19.872-1.792 13.6 41.568 52.192 72.128 98.08 73.12-35.712 27.936-81.056 44.768-130.144 44.768-8.608 0-16.864-.384-25.12-1.44C46.496 446.88 101.6 464 161.024 464c193.152 0 298.752-160 298.752-298.688 0-4.64-.16-9.12-.384-13.568 20.832-14.784 38.336-33.248 52.608-54.496z"/></svg></svg>