<?xml version="1.0" standalone="no"?>
<!DOCTYPE svg PUBLIC "-//W3C//DTD SVG 20010904//EN"
 "http://www.w3.org/TR/2001/REC-SVG-20010904/DTD/svg10.dtd">
<svg version="1.0" xmlns="http://www.w3.org/2000/svg"
 width="700.000000pt" height="700.000000pt" viewBox="0 0 700.000000 700.000000"
 preserveAspectRatio="xMidYMid meet">
<metadata>
Created by potrace 1.14, written by Peter Selinger 2001-2017
</metadata>
<g transform="translate(0.000000,700.000000) scale(0.100000,-0.100000)"
fill="#000000" stroke="none">
<path d="M3280 6994 c-19 -2 -84 -9 -145 -14 -643 -63 -1264 -315 -1805 -734
-140 -108 -473 -442 -584 -586 -411 -530 -654 -1132 -728 -1795 -17 -154 -17
-585 0 -730 69 -588 254 -1099 567 -1570 126 -189 242 -332 410 -504 580 -595
1295 -943 2140 -1043 145 -17 576 -17 730 0 704 78 1351 354 1885 803 134 113
345 325 452 455 433 526 697 1155 780 1859 16 145 17 588 0 730 -86 724 -352
1347 -803 1885 -121 144 -350 368 -494 483 -509 408 -1117 662 -1775 743 -117
15 -553 27 -630 18z m475 -154 c622 -52 1195 -259 1685 -610 1056 -755 1577
-2023 1359 -3305 -176 -1036 -852 -1945 -1799 -2420 -955 -479 -2090 -471
-3038 20 -1459 758 -2153 2448 -1647 4014 299 923 1009 1688 1913 2060 476
195 1028 282 1527 241z"/>
<path d="M4931 4819 c-337 -39 -598 -251 -666 -542 -19 -80 -19 -244 0 -326
34 -142 125 -278 256 -382 83 -66 287 -174 519 -274 173 -75 270 -134 329
-202 182 -206 38 -497 -269 -544 -267 -41 -543 92 -697 337 -15 24 -30 44 -33
43 -3 0 -65 -57 -138 -127 l-133 -127 42 -65 c230 -356 700 -524 1157 -414
115 27 277 113 359 189 148 136 222 294 231 491 8 182 -34 318 -139 450 -74
94 -184 171 -376 264 -552 270 -531 259 -591 318 -32 31 -67 75 -77 97 -24 49
-32 169 -15 222 43 134 182 216 370 216 190 1 343 -65 479 -203 l56 -58 85 96
c47 52 102 114 123 138 l38 43 -62 65 c-161 173 -369 272 -617 296 -119 11
-126 11 -231 -1z"/>
<path d="M1505 4489 c-192 -160 -361 -299 -374 -310 l-24 -19 87 -112 c47 -62
96 -126 109 -141 l22 -29 220 179 220 179 3 -1018 2 -1018 200 0 200 0 0 1290
0 1290 -157 0 -158 -1 -350 -290z"/>
<path d="M2570 3170 l0 -180 685 0 685 0 0 180 0 180 -685 0 -685 0 0 -180z"/>
</g>
</svg>
