<svg width="261" height="32" viewBox="0 0 261 32" fill="none" xmlns="http://www.w3.org/2000/svg">
<path d="M0.76001 29.592C2.43201 30.516 5.77601 31.44 9.16401 31.44C17.304 31.44 21.088 27.216 21.088 22.244C21.088 18.064 18.668 15.336 13.432 13.4C9.56001 11.948 7.93201 11.112 7.93201 9.21998C7.93201 7.72398 9.34001 6.35998 12.244 6.35998C15.104 6.35998 17.26 7.19598 18.404 7.76798L19.9 2.39998C18.14 1.56398 15.72 0.90398 12.332 0.90398C5.38001 0.90398 1.11201 4.73198 1.11201 9.79198C1.11201 14.104 4.36801 16.832 9.29601 18.592C12.86 19.824 14.268 20.88 14.268 22.728C14.268 24.664 12.64 25.94 9.56001 25.94C6.70001 25.94 3.88401 25.016 2.12401 24.092L0.76001 29.592Z" fill="white"/>
<path d="M24.7857 1.34398V17.888C24.7857 27.304 29.1417 31.484 36.6217 31.484C44.3657 31.484 48.9857 27.128 48.9857 17.976V1.34398H42.2977V18.372C42.2977 23.652 40.3617 26.116 36.8417 26.116C33.4537 26.116 31.4737 23.52 31.4737 18.372V1.34398H24.7857Z" fill="white"/>
<path d="M53.8979 31H60.5419V20.352C61.1579 20.484 61.9499 20.528 62.8299 20.528C66.7899 20.528 70.1779 19.516 72.4659 17.404C74.2699 15.776 75.1939 13.268 75.1939 10.364C75.1939 7.45998 73.9619 4.99598 72.0259 3.49998C70.0459 1.91598 67.0979 1.12398 62.9619 1.12398C58.8699 1.12398 55.9659 1.38798 53.8979 1.73998V31ZM60.5419 6.44798C61.0259 6.31598 61.9499 6.22798 63.2699 6.22798C66.6579 6.22798 68.5499 7.85598 68.5499 10.584C68.5499 13.576 66.3499 15.38 62.7859 15.38C61.7739 15.38 61.1139 15.336 60.5419 15.204V6.44798Z" fill="white"/>
<path d="M96.2283 13.004H85.3163V6.84398H96.8883V1.34398H78.6283V31H97.5043V25.5H85.3163V18.46H96.2283V13.004Z" fill="white"/>
<path d="M101.208 31H107.852V19.34H109.832C112.604 19.384 113.88 20.352 114.716 24.092C115.552 27.744 116.3 30.12 116.74 31H123.604C123.032 29.856 122.152 25.984 121.228 22.596C120.48 19.868 119.336 17.932 117.268 17.096V16.964C119.82 16.04 122.504 13.444 122.504 9.70398C122.504 6.97598 121.536 4.86398 119.732 3.45598C117.62 1.78398 114.54 1.12398 110.14 1.12398C106.532 1.12398 103.364 1.38798 101.208 1.73998V31ZM107.852 6.35998C108.336 6.22798 109.26 6.13998 110.888 6.13998C113.968 6.13998 115.816 7.54798 115.816 10.232C115.816 12.828 113.836 14.5 110.492 14.5H107.852V6.35998Z" fill="white"/>
<path d="M126.41 30.868C128.038 31.088 130.546 31.308 134.022 31.308C139.83 31.308 144.626 30.076 147.75 27.48C150.566 25.06 152.634 21.144 152.634 15.468C152.634 10.232 150.698 6.57998 147.618 4.29198C144.802 2.17998 141.106 1.12398 135.43 1.12398C132.086 1.12398 128.874 1.38798 126.41 1.78398V30.868ZM133.098 6.53598C133.67 6.40398 134.682 6.27198 136.134 6.27198C141.942 6.27198 145.55 9.52798 145.55 15.688C145.55 22.772 141.546 26.116 135.43 26.072C134.638 26.072 133.67 26.072 133.098 25.94V6.53598Z" fill="white"/>
<path d="M156.167 31H162.811V19.34H164.791C167.563 19.384 168.839 20.352 169.675 24.092C170.511 27.744 171.259 30.12 171.699 31H178.563C177.991 29.856 177.111 25.984 176.187 22.596C175.439 19.868 174.295 17.932 172.227 17.096V16.964C174.779 16.04 177.463 13.444 177.463 9.70398C177.463 6.97598 176.495 4.86398 174.691 3.45598C172.579 1.78398 169.499 1.12398 165.099 1.12398C161.491 1.12398 158.323 1.38798 156.167 1.73998V31ZM162.811 6.35998C163.295 6.22798 164.219 6.13998 165.847 6.13998C168.927 6.13998 170.775 7.54798 170.775 10.232C170.775 12.828 168.795 14.5 165.451 14.5H162.811V6.35998Z" fill="white"/>
<path d="M194.265 0.815979C185.553 0.815979 179.833 7.45998 179.833 16.348C179.833 24.84 185.025 31.484 193.781 31.484C202.493 31.484 208.345 25.632 208.345 15.864C208.345 7.63598 203.373 0.815979 194.265 0.815979ZM194.133 6.13998C198.753 6.13998 201.261 10.716 201.261 16.084C201.261 21.848 198.665 26.16 194.133 26.16C189.645 26.16 186.917 22.068 186.917 16.216C186.917 10.452 189.557 6.13998 194.133 6.13998Z" fill="white"/>
<path d="M218.016 31V22.068C218.016 17.228 217.928 13.048 217.708 9.08798H217.884C219.292 12.564 221.272 16.392 223.032 19.56L229.368 31H236.408V1.34398H230.248V9.96798C230.248 14.456 230.38 18.46 230.776 22.376H230.688C229.324 19.032 227.608 15.336 225.848 12.212L219.688 1.34398H211.856V31H218.016Z" fill="white"/>
<path d="M258.999 13.004H248.087V6.84398H259.659V1.34398H241.399V31H260.275V25.5H248.087V18.46H258.999V13.004Z" fill="white"/>
</svg>
