<svg viewBox="0 0 61 68" fill="none" xmlns="http://www.w3.org/2000/svg"><path d="M2.001 48.272s-.503-25.147 0-27.16c.503-2.013 1.006-2.516 3.018-3.02 2.012-.502 11.569 0 11.569 0L28.659 5.017c3.213-4.91 7.11-1.648 7.042 0-.069 1.65 0 11.569 0 11.569v45.771c-.485 4.45-2.342 4.894-5.533 3.018-3.19-1.877-13.58-13.58-13.58-13.58H6.025c-3.286-.034-4.113-.844-4.024-3.522Z" stroke="currentColor" stroke-width="3" fill="none"/><path d="m41.233 25.134 18.108 20.12m-18.108 0 18.108-20.12" stroke="currentColor" stroke-width="2" stroke-linecap="round" fill="none"/></svg>