<svg viewBox="0 0 64 58" fill="none" xmlns="http://www.w3.org/2000/svg"><path d="M10.24 45.408c-.284 0-.498-.07-.711-.213C3.627 41.853 0 35.665 0 29.053c0-10.24 8.39-18.56 18.773-18.56h26.525c.853 0 1.493.64 1.493 1.493 0 .853-.64 1.494-1.493 1.494H18.773c-8.746 0-15.786 6.968-15.786 15.573 0 5.546 3.057 10.737 8.035 13.51.712.427.996 1.352.57 2.063a1.525 1.525 0 0 1-1.352.782ZM45.227 47.613H18.773c-.853 0-1.493-.64-1.493-1.494 0-.853.64-1.494 1.493-1.494h26.525c8.675 0 15.715-6.968 15.715-15.573 0-5.547-3.057-10.738-8.035-13.511-.712-.427-.996-1.351-.57-2.062.427-.711 1.352-.995 2.063-.569C60.373 16.252 64 22.44 64 29.052c0 10.24-8.39 18.56-18.773 18.56Z"/><path d="M37.831 21.942c-.356 0-.711-.143-.995-.356-.64-.57-.712-1.494-.143-2.134l6.543-7.466-6.614-7.467c-.569-.64-.498-1.564.143-2.133.64-.57 1.564-.498 2.133.142l7.467 8.463a1.514 1.514 0 0 1 0 1.99l-7.467 8.463a1.374 1.374 0 0 1-1.067.498ZM26.169 56.075c-.427 0-.853-.143-1.138-.498l-7.395-8.462a1.514 1.514 0 0 1 0-1.992l7.466-8.462c.57-.64 1.494-.711 2.134-.142.64.569.711 1.493.142 2.133l-6.613 7.467 6.613 7.467c.569.64.498 1.564-.143 2.133-.355.213-.71.356-1.066.356Z"/><path d="m4.952 2 54.096 54.095" stroke="currentColor" stroke-width="3" stroke-linecap="round"/></svg>