<svg width="270" height="62" viewBox="0 0 270 62" fill="none" xmlns="http://www.w3.org/2000/svg">
<path d="M84.3079 10.2621C83.8172 8.43745 82.8557 6.77377 81.5196 5.4377C80.1836 4.10164 78.5199 3.14009 76.6952 2.64938C69.9795 0.850091 43.0529 0.850098 43.0529 0.850098C43.0529 0.850098 16.1262 0.850091 9.41051 2.64938C7.5859 3.14019 5.92227 4.10176 4.58622 5.43782C3.25017 6.77387 2.28859 8.4375 1.79779 10.2621C-0.000976562 16.9773 -0.000976562 30.9883 -0.000976562 30.9883C-0.000976562 30.9883 -0.000976562 44.9987 1.79779 51.7134C2.28856 53.538 3.25012 55.2018 4.58617 56.5379C5.92222 57.874 7.58586 58.8357 9.41051 59.3266C16.1262 61.1254 43.0529 61.1254 43.0529 61.1254C43.0529 61.1254 69.9795 61.1254 76.6952 59.3266C78.5199 58.8358 80.1836 57.8741 81.5196 56.5379C82.8557 55.2018 83.8172 53.5381 84.3079 51.7134C86.1078 44.9987 86.1078 30.9883 86.1078 30.9883C86.1078 30.9883 86.1078 16.9773 84.3079 10.2621V10.2621Z" fill="#ED1F24"/>
<path d="M34.4419 43.9045L56.8128 30.9883L34.4419 18.0715V43.9045Z" fill="white"/>
<path d="M134.53 49.7732C135.001 48.543 135.238 46.5312 135.238 43.7394V31.9776C135.238 29.2686 135.001 27.2879 134.53 26.0354C134.058 24.7841 133.226 24.1576 132.037 24.1576C130.887 24.1576 130.076 24.7841 129.604 26.0354C129.132 27.2879 128.896 29.2686 128.896 31.9776V43.7394C128.896 46.5312 129.121 48.543 129.574 49.7732C130.024 51.0051 130.845 51.6205 132.037 51.6205C133.226 51.6205 134.058 51.0051 134.53 49.7732V49.7732ZM124.986 55.6853C123.281 54.5373 122.07 52.7506 121.353 50.3275C120.634 47.9065 120.275 44.6833 120.275 40.6603V35.1801C120.275 31.1159 120.685 27.8516 121.507 25.3895C122.327 22.9262 123.61 21.1301 125.355 20.0011C127.1 18.8726 129.388 18.3078 132.221 18.3078C135.013 18.3078 137.25 18.8826 138.933 20.0322C140.616 21.1813 141.848 22.9779 142.628 25.4195C143.407 27.8632 143.798 31.1159 143.798 35.1801V40.6603C143.798 44.6833 143.418 47.917 142.658 50.3591C141.899 52.8023 140.667 54.5874 138.964 55.7159C137.26 56.8449 134.951 57.4092 132.037 57.4092C129.039 57.4092 126.688 56.8344 124.986 55.6853V55.6853ZM256.851 24.8626C256.421 25.3968 256.133 26.2691 255.99 27.4793C255.845 28.6906 255.775 30.5279 255.775 32.9911V35.7011H261.993V32.9911C261.993 30.569 261.911 28.7318 261.747 27.4793C261.583 26.2279 261.286 25.3462 260.855 24.8321C260.423 24.3189 259.756 24.0621 258.853 24.0621C257.949 24.0621 257.283 24.3295 256.851 24.8626V24.8626ZM255.775 40.7504V42.6594C255.775 45.082 255.845 46.8977 255.99 48.1084C256.133 49.3197 256.43 50.203 256.883 50.7573C257.334 51.311 258.031 51.5889 258.977 51.5889C260.248 51.5889 261.121 51.0953 261.593 50.1102C262.065 49.1251 262.322 47.4835 262.363 45.1838L269.691 45.6152C269.732 45.9448 269.752 46.3951 269.752 46.9694C269.752 50.4593 268.798 53.0665 266.889 54.7904C264.981 56.5143 262.28 57.377 258.792 57.377C254.604 57.377 251.669 56.0634 249.986 53.4351C248.302 50.8089 247.46 46.7447 247.46 41.243V34.6533C247.46 28.9886 248.333 24.8531 250.078 22.246C251.823 19.6388 254.81 18.3352 259.038 18.3352C261.952 18.3352 264.19 18.8689 265.75 19.9362C267.309 21.0046 268.408 22.6668 269.044 24.9243C269.681 27.1824 269.999 30.3027 269.999 34.2841V40.7504H255.775V40.7504ZM104.293 40.0433L94.6255 5.12842H103.061L106.448 20.9534C107.311 24.8547 107.947 28.1796 108.357 30.9292H108.604C108.891 28.959 109.527 25.6552 110.512 21.0151L114.022 5.12842H122.459L112.668 40.0433V56.7932H104.293V40.0433V40.0433ZM171.235 19.046V56.7932H164.585L163.846 52.1758H163.661C161.854 55.6652 159.145 57.4092 155.533 57.4092C153.029 57.4092 151.181 56.5886 149.991 54.9465C148.8 53.3049 148.205 50.7383 148.205 47.2494V19.046H156.703V46.7563C156.703 48.4401 156.888 49.6409 157.257 50.3581C157.627 51.0774 158.243 51.4365 159.104 51.4365C159.844 51.4365 160.552 51.2108 161.228 50.7589C161.906 50.3069 162.409 49.7332 162.738 49.035V19.046H171.235V19.046ZM214.824 19.046V56.7932H208.173L207.434 52.1758H207.251C205.442 55.6652 202.733 57.4092 199.121 57.4092C196.617 57.4092 194.77 56.5886 193.579 54.9465C192.388 53.3049 191.794 50.7383 191.794 47.2494V19.046H200.291V46.7563C200.291 48.4401 200.476 49.6409 200.845 50.3581C201.215 51.0774 201.831 51.4365 202.693 51.4365C203.432 51.4365 204.14 51.2108 204.817 50.7589C205.495 50.3069 205.997 49.7332 206.326 49.035V19.046H214.824V19.046Z" fill="#272727"/>
<path d="M194.327 11.9644H185.891V56.7932H177.578V11.9644H169.142V5.12896H194.327V11.9644ZM235.159 40.4773C235.159 43.2284 235.045 45.3837 234.82 46.943C234.594 48.504 234.215 49.6124 233.681 50.2684C233.147 50.9255 232.427 51.2535 231.526 51.2535C230.848 51.2589 230.18 51.0893 229.586 50.761C228.99 50.4324 228.509 49.9399 228.139 49.2828V27.8537C228.426 26.8281 228.919 25.9859 229.617 25.3288C230.315 24.6733 231.073 24.3437 231.895 24.3437C232.757 24.3437 233.424 24.6828 233.896 25.3594C234.368 26.037 234.697 27.1761 234.882 28.7782C235.066 30.3787 235.159 32.6568 235.159 35.6125V40.4773V40.4773ZM242.949 25.0804C242.434 22.7 241.603 20.9756 240.454 19.9072C239.305 18.8404 237.724 18.3067 235.713 18.3067C234.153 18.3067 232.695 18.7486 231.341 19.6309C230.005 20.4926 228.921 21.693 228.2 23.1098H228.138L228.139 3.21997H219.949V56.7927H226.968L227.831 53.2216H228.015C228.672 54.494 229.657 55.4997 230.971 56.239C232.285 56.9778 233.743 57.3475 235.344 57.3475C238.217 57.3475 240.331 56.0228 241.686 53.3755C243.041 50.7278 243.718 46.5923 243.718 40.9672V34.995C243.718 30.7668 243.461 27.4619 242.949 25.0804V25.0804Z" fill="#272727"/>
</svg>
