<svg width="270" height="64" viewBox="0 0 270 64" fill="none" xmlns="http://www.w3.org/2000/svg">
<path d="M234.559 31.6302C234.559 21.6267 242.181 14.5765 252.279 14.5765C262.378 14.5765 270 21.627 270 31.6305C270 41.634 262.378 48.6842 252.279 48.6842C242.181 48.6842 234.559 41.5387 234.559 31.6305V31.6302ZM259.996 31.6302C259.996 26.9619 257.043 23.5321 252.375 23.5321C247.706 23.5321 244.753 26.9619 244.753 31.6302C244.753 36.2985 247.706 39.7283 252.375 39.7283C257.043 39.7283 259.996 36.3938 259.996 31.6302ZM227.89 23.7227C228.557 25.0565 228.843 26.4856 228.843 28.0098C228.843 31.6302 226.937 34.9647 223.889 37.537C228.08 39.5377 230.558 44.3966 230.558 48.9696C230.558 57.544 223.603 63.2605 213.028 63.2605C202.452 63.2605 195.498 57.6393 195.498 48.9696C195.402 44.206 197.975 39.8237 202.167 37.537C199.023 34.9647 197.212 31.6302 197.212 28.0098C197.212 20.4835 203.119 14.9577 212.456 14.9577C217.982 14.9577 219.601 15.9103 222.745 15.9103C224.841 16.0056 227.032 15.434 228.843 14.2908C229.509 13.9096 230.176 13.6239 230.939 13.6239C232.177 13.6239 232.844 14.8624 232.844 16.3868C233.13 19.7213 231.034 22.6746 227.89 23.7227ZM220.744 48.684C220.744 44.8729 217.791 42.2053 213.123 42.2053C208.455 42.2053 205.501 44.7776 205.501 48.684C205.501 52.3041 208.74 55.1624 213.123 55.1624C217.505 55.1624 220.744 52.3041 220.744 48.684ZM206.93 28.5814C207.025 31.9159 209.883 34.5835 213.313 34.4884C216.553 34.3931 219.03 31.8208 219.22 28.5814C219.22 25.1518 216.743 22.7699 213.123 22.7699C209.503 22.7699 206.93 25.0565 206.93 28.5814ZM190.925 32.2971V44.206C190.925 46.4927 190.067 47.4452 187.59 47.4452H184.256C181.778 47.4452 180.921 46.4927 180.921 44.206V32.5828C180.921 29.6295 180.445 27.5335 179.397 26.1997C178.158 24.6753 176.253 23.9131 174.347 24.0084C172.346 23.9131 170.441 24.7706 169.107 26.1997C167.964 27.5335 167.202 29.6295 167.202 32.4878V44.1107C167.202 46.4926 166.154 47.3499 163.867 47.3499H160.533C158.246 47.3499 157.198 46.4926 157.198 44.1107V17.4347C157.198 15.9103 157.961 15.2434 159.104 15.2434C160.819 15.2434 163.2 16.6725 165.011 19.4354C167.773 16.3868 171.68 14.6718 175.776 14.6718C180.635 14.6718 184.541 16.3868 187.114 19.2448C189.686 22.1027 190.925 26.0091 190.925 32.2971V32.2971ZM138.906 5.43051C138.906 2.38167 141.478 0 144.432 0H144.623C147.576 0.19062 149.862 2.76291 149.672 5.71617C149.481 8.66943 146.909 10.9563 143.956 10.7657C141.097 10.6704 138.906 8.28873 138.906 5.43051H138.906ZM139.573 44.206V19.1497C139.573 16.8628 140.431 15.8153 142.908 15.8153H146.242C148.719 15.8153 149.577 16.7678 149.577 19.1497V44.206C149.577 46.4927 148.719 47.4452 146.242 47.4452H142.908C140.431 47.4452 139.573 46.4927 139.573 44.206ZM121.948 44.206V12.7664C121.948 4.85892 126.33 0.380973 130.046 0.380973C131.189 0.380973 131.951 1.14318 131.951 2.57229V44.2063C131.951 46.5877 130.998 47.4452 128.617 47.4452H125.282C122.996 47.4452 121.948 46.588 121.948 44.206H121.948ZM80.7905 31.6305C80.7905 21.627 88.412 14.5768 98.5109 14.5768C108.61 14.5768 116.231 21.627 116.231 31.6305C116.231 41.634 108.61 48.6842 98.5109 48.6842C88.412 48.6842 80.7905 41.5387 80.7905 31.6305V31.6305ZM106.133 31.6305C106.133 26.9622 103.179 23.5324 98.5109 23.5324C93.8426 23.5324 90.8893 26.9622 90.8893 31.6305C90.8893 36.2988 93.8426 39.7286 98.5109 39.7286C103.179 39.7286 106.133 36.3941 106.133 31.6305ZM75.6456 19.15V45.826C75.6456 47.3502 74.8837 48.0173 73.7402 48.0173C72.0255 48.0173 69.6435 46.5882 67.9288 43.9206C65.2612 46.9692 61.4504 48.684 57.3537 48.5889C53.5426 48.684 49.9225 47.3502 47.064 44.7779C44.1107 41.9199 42.4913 37.5373 42.4913 31.2493V19.1497C42.4913 16.8634 43.3485 15.8153 45.8258 15.8153H49.1603C51.6372 15.8153 52.4947 16.7681 52.4947 19.1497V30.392C52.4947 34.2028 53.1617 36.2035 54.4001 37.5373C55.5433 38.6805 57.2584 39.3474 58.8778 39.2523C60.6882 39.2523 62.4029 38.5854 63.6414 37.2516C64.8799 35.9178 65.5468 33.8218 65.5468 30.5826V19.15C65.5468 16.7681 66.595 15.8155 68.8813 15.8155H72.2158C74.5978 15.8155 75.6456 16.7681 75.6456 19.15V19.15ZM35.6316 2.57256V45.826C35.6316 47.3502 34.8694 48.0173 33.7262 48.0173C32.0112 48.0173 29.6295 46.5882 27.9145 44.0159C25.8187 46.4929 21.5314 48.6842 16.5772 48.6842C6.669 48.6837 0 41.4431 0 31.6302C0 21.8173 6.85962 14.5765 16.5772 14.5765C19.8167 14.5765 22.9605 15.5293 25.7234 17.3394V12.7664C25.7234 4.85892 30.2011 0.380973 33.8216 0.380973C34.9647 0.380973 35.6316 1.14318 35.6316 2.57229V2.57256ZM25.7234 31.6305C25.7234 26.7716 22.2936 23.5324 18.0063 23.5324C13.719 23.5324 10.1941 26.7716 10.1941 31.6305C10.1941 36.4894 13.6239 39.7286 18.0063 39.7286C22.3887 39.7286 25.7234 36.5847 25.7234 31.6305Z" fill="#59CC03"/>
</svg>
