<svg width="271" height="90" viewBox="0 0 271 90" fill="none" xmlns="http://www.w3.org/2000/svg">
<path d="M115.904 47.2424C115.904 60.0294 105.901 69.452 93.6244 69.452C81.3481 69.452 71.3447 60.0294 71.3447 47.2424C71.3447 34.3652 81.3481 25.0328 93.6244 25.0328C105.901 25.0328 115.904 34.3652 115.904 47.2424ZM106.151 47.2424C106.151 39.2517 100.353 33.7844 93.6244 33.7844C86.8955 33.7844 81.0977 39.2517 81.0977 47.2424C81.0977 55.1529 86.8955 60.7003 93.6244 60.7003C100.353 60.7003 106.151 55.1429 106.151 47.2424Z" fill="#EA4335"/>
<path d="M163.968 47.2424C163.968 60.0294 153.965 69.452 141.688 69.452C129.412 69.452 119.409 60.0294 119.409 47.2424C119.409 34.3752 129.412 25.0328 141.688 25.0328C153.965 25.0328 163.968 34.3652 163.968 47.2424ZM154.215 47.2424C154.215 39.2517 148.417 33.7844 141.688 33.7844C134.959 33.7844 129.162 39.2517 129.162 47.2424C129.162 55.1529 134.959 60.7003 141.688 60.7003C148.417 60.7003 154.215 55.1429 154.215 47.2424Z" fill="#FBBC05"/>
<path d="M210.029 26.3746V66.2477C210.029 82.6496 200.357 89.3485 188.921 89.3485C178.157 89.3485 171.678 82.1489 169.235 76.2611L177.726 72.7264C179.238 76.3412 182.943 80.6069 188.911 80.6069C196.231 80.6069 200.767 76.0909 200.767 67.5895V64.3953H200.427C198.244 67.0888 194.038 69.442 188.731 69.442C177.626 69.442 167.453 59.7691 167.453 47.3225C167.453 34.7858 177.626 25.0328 188.731 25.0328C194.028 25.0328 198.234 27.3859 200.427 29.9994H200.767V26.3846H210.029V26.3746ZM201.458 47.3225C201.458 39.5021 196.241 33.7844 189.602 33.7844C182.873 33.7844 177.236 39.5021 177.236 47.3225C177.236 55.0628 182.873 60.7003 189.602 60.7003C196.241 60.7003 201.458 55.0628 201.458 47.3225Z" fill="#4285F4"/>
<path d="M225.3 3.00336V68.0901H215.787V3.00336H225.3Z" fill="#34A853"/>
<path d="M262.369 54.5521L269.939 59.5988C267.496 63.2136 261.608 69.4419 251.434 69.4419C238.818 69.4419 229.395 59.6889 229.395 47.2323C229.395 34.0247 238.898 25.0227 250.343 25.0227C261.868 25.0227 267.506 34.1949 269.348 39.1515L270.36 41.6749L240.67 53.9713C242.943 58.4272 246.478 60.7003 251.434 60.7003C256.401 60.7003 259.846 58.257 262.369 54.5521ZM239.068 46.5614L258.914 38.3204C257.823 35.5467 254.539 33.6142 250.673 33.6142C245.717 33.6142 238.818 37.99 239.068 46.5614V46.5614Z" fill="#EA4335"/>
<path d="M35.3365 41.4646V32.0421H67.0888C67.3993 33.6843 67.5595 35.6268 67.5595 37.7297C67.5595 44.7991 65.6269 53.5407 59.3986 59.769C53.3405 66.0774 45.6002 69.4419 35.3465 69.4419C16.3412 69.4419 0.359863 53.9613 0.359863 34.956C0.359863 15.9506 16.3412 0.469971 35.3465 0.469971C45.8605 0.469971 53.3505 4.59547 58.978 9.97264L52.3292 16.6215C48.2938 12.8365 42.8265 9.89253 35.3365 9.89253C21.458 9.89253 10.6035 21.0774 10.6035 34.956C10.6035 48.8345 21.458 60.0194 35.3365 60.0194C44.3385 60.0194 49.4653 56.4045 52.7497 53.1202C55.4133 50.4566 57.1656 46.6515 57.8565 41.4546L35.3365 41.4646V41.4646Z" fill="#4285F4"/>
</svg>
