<svg width="876" height="508" viewBox="0 0 876 508" fill="none" xmlns="http://www.w3.org/2000/svg">
<path opacity="0.1" d="M801.311 0.676514C790.864 0.676514 766.208 21.7803 751.164 106.195C736.12 190.611 718.777 314.099 711.986 365.292C706.24 403.251 691.196 482.616 676.987 496.407C659.227 513.645 633.108 489.616 602.81 401.858C597.935 389.147 595.288 365.396 623.705 372.082C659.227 380.44 716.687 398.723 729.747 408.126C740.194 415.648 818.724 448.174 856.683 463.497C869.916 470.462 889.488 471.855 857.728 425.887C825.967 379.918 664.102 280.319 587.139 236.266C487.541 179.502 275.911 61.6895 226.181 44.5557C164.019 23.1385 123.274 -9.77091 165.586 65.4505C199.435 125.628 289.039 285.543 329.61 357.978C361.301 416.31 409.115 527.018 346.849 503.198C269.015 473.422 20.3665 369.471 9.39673 368.426C-1.57307 367.381 -10.4534 379.918 47.5298 418.573C105.513 457.229 169.765 492.75 31.8588 464.542" stroke="#FD5B2F" stroke-width="1.04474"/>
</svg>
