<svg width="875" height="508" viewBox="0 0 875 508" fill="none" xmlns="http://www.w3.org/2000/svg">
<path opacity="0.1" d="M74.3946 506.605C84.842 506.605 109.498 485.501 124.542 401.086C139.587 316.671 156.929 193.183 163.72 141.99C169.466 104.031 184.51 24.6656 198.719 10.875C216.48 -6.36327 242.598 17.6658 272.896 105.424C277.771 118.135 280.418 141.886 252.001 135.199C216.48 126.841 159.019 108.558 145.959 99.1557C135.512 91.6336 56.9822 59.1073 19.0232 43.7844C5.78984 36.8194 -13.7817 35.4264 17.9785 81.3951C49.7387 127.364 211.604 226.963 288.567 271.016C388.166 327.78 599.796 445.592 649.525 462.726C711.687 484.143 752.432 517.053 710.12 441.831C676.271 381.654 586.667 221.739 546.096 149.303C514.405 90.9719 466.591 -19.736 528.858 4.08416C606.691 33.8593 855.34 137.811 866.309 138.856C877.279 139.901 886.159 127.364 828.176 88.7083C770.193 50.0528 705.941 14.5316 843.847 42.7396" stroke="#FD5B2F" stroke-width="1.04474"/>
</svg>
