<svg width="190" height="34" fill="none" xmlns="http://www.w3.org/2000/svg"><path d="M54.16 29V10.733h6.453v12.744h3.684c.933 0 1.636-.087 2.11-.263.473-.18.71-.571.71-1.172 0-.42-.149-.879-.447-1.377-.293-.503-.713-1.016-1.26-1.538a14.397 14.397 0 0 0-1.977-1.567 22.018 22.018 0 0 0-2.52-1.458c.21-.176.85-.657 1.92-1.443 1.069-.79 1.865-1.455 2.387-1.992.528-.537.791-1.052.791-1.545 0-.362-.102-.618-.307-.77-.2-.156-.506-.25-.916-.285-.405-.04-1.079-.059-2.021-.059h-9.778l1.472-5.551H66.07c4.8 0 7.2 1.892 7.2 5.676a5.24 5.24 0 0 1-.513 2.322c-.337.703-.698 1.262-1.084 1.677-.386.415-.923.94-1.612 1.575a15.184 15.184 0 0 1 2.974 3.024c.855 1.153 1.282 2.586 1.282 4.3 0 1.596-.437 2.84-1.311 3.728a6.481 6.481 0 0 1-3.135 1.787A15.678 15.678 0 0 1 66.07 29H54.16Zm22.15-15.242c0-2.143.373-3.94 1.12-5.39.747-1.45 1.948-2.554 3.603-3.31 1.66-.758 3.816-1.136 6.468-1.136 1.772 0 3.34.18 4.702.542 1.362.361 2.514.93 3.457 1.706.942.777 1.662 1.79 2.16 3.04.498 1.245.747 2.742.747 4.49 0 1.719-.234 3.5-.703 5.346a19.704 19.704 0 0 1-2.095 5.164c-.932 1.592-2.104 2.878-3.515 3.86-1.406.981-3.01 1.472-4.812 1.472a8.423 8.423 0 0 1-4.556-1.296c-1.382-.865-2.563-2.046-3.545-3.545-.981-1.5-1.733-3.196-2.256-5.09-.517-1.9-.776-3.85-.776-5.853Zm6.928.484c0 1.391.193 2.805.578 4.24.386 1.436.896 2.618 1.531 3.545.64.928 1.316 1.392 2.029 1.392.86 0 1.614-.508 2.263-1.524.654-1.015 1.155-2.243 1.502-3.684.351-1.445.527-2.768.527-3.97 0-1.63-.388-2.802-1.165-3.515-.771-.718-1.772-1.077-3.002-1.077-1.416 0-2.481.36-3.194 1.077-.713.718-1.07 1.89-1.07 3.516ZM101.563 29V10.733h6.453v12.744c1.572-.082 2.932-.58 4.079-1.494a8.62 8.62 0 0 0 2.6-3.383c.586-1.343.879-2.666.879-3.97 0-1.089-.18-1.975-.542-2.659a3.227 3.227 0 0 0-1.574-1.494c-.694-.312-1.568-.469-2.623-.469h-10.444l1.472-5.551h10.496c2.021 0 3.757.37 5.207 1.113a7.64 7.64 0 0 1 3.348 3.274c.776 1.44 1.186 3.198 1.23 5.273 0 1.831-.334 3.633-1.003 5.405a14.77 14.77 0 0 1-2.952 4.805c-1.304 1.43-2.92 2.568-4.849 3.413-1.923.84-4.089 1.26-6.496 1.26h-5.281ZM142.52 4.457l-7.2 14.824v6.27c0 1.479.12 2.629.359 3.449l-5.815 3.691a10.423 10.423 0 0 1-.784-2.497c-.142-.835-.212-1.802-.212-2.9V19.28l-7.2-14.824h7.324l3.12 7.324 3.091-7.324h7.317Z" fill="#30475E"/><path d="M143.458 27.352V4.457h14.545l1.502 5.551h-9.661v3.933h8.731l-1.531 5.515h-7.2v6.094c0 1.519.142 2.669.425 3.45l-5.793 3.75a7.928 7.928 0 0 1-.806-2.388c-.142-.84-.212-1.843-.212-3.01Zm24.528-22.895V29h-6.452V4.457h6.452Zm20.047 0 1.472 5.551h-6.812V29h-6.452V10.008h-6.834l1.494-5.551h17.132ZM48.804 11.048c-.16-.27-.342-.52-.54-.762-.457-.563-.997-1.057-1.538-1.535-1.294-1.136-2.631-2.215-4.217-2.91-.454-.2-1.034-.462-1.545-.462-.158 0-.305-.084-.43-.173-.304-.212-.55-.52-.77-.818-.34-.46-.582-.886-1.092-1.178-.44-.25-.694-.24-1.196-.295-.467-.053-.97-.024-1.349.112-.19.07-.363.018-.562.058-.234.046-.451.15-.687.19-1.115.19-1.63-.044-1.985.54-.197.335-.047.563-.197.922-.202.467-.829.883-.55 1.478.13.284.597.46.867.578.32.141.586.156.782.448a.795.795 0 0 0 1.21.136c.122-.117.17-.138.293-.263.108-.101.254-.139.375-.223.121-.084.188-.227.312-.298.198-.121.291-.064.513-.108.358-.066.713-.357.938-.58.121-.109.151-.273.264-.377.016-.017.038-.023.059-.036.947.428 3.253 5.176 3.253 5.176-2.068-1.77-4.674 0-4.674 0-3.95-1.354-6.197 1.45-6.197 1.45-.043.05-.957-.094-1.083-.1a6.744 6.744 0 0 0-.975 0c-.256.022-.452.073-.48-.232-.016-.176.022-.394.022-.57 0-.135-.026-.3 0-.429.076-.394.319-.74.398-1.147.077-.41.052-.825.214-1.217.13-.305.462-.337.693-.539.276-.239.438-.603.438-.964 0-.614-.425-1.121-.995-1.25-.251-.613-.118-1.11-.118-1.737 0-2.129-1.662-3.86-3.736-3.928V0c-.007 0-.014.004-.017.004-.01 0-.013-.004-.022-.004v.005c-2.071.068-3.735 1.8-3.735 3.928 0 .628.132 1.124-.12 1.737-.57.129-.993.635-.993 1.25 0 .36.162.725.439.964.23.202.56.234.69.539.164.392.138.807.218 1.217.076.407.322.753.398 1.147.021.128 0 .294-.003.43 0 .175.039.393.023.57-.028.304-.224.253-.48.23a6.737 6.737 0 0 0-.974 0c-.126.007-1.041.152-1.084.101 0 0-2.244-2.804-6.198-1.45 0 0-2.604-1.77-4.674 0 0 0 2.307-4.749 3.253-5.176.02.013.043.019.059.036.112.104.148.268.263.377.23.223.584.514.943.58.217.044.311-.013.509.108.122.071.193.213.311.298.12.084.269.122.377.223.124.125.17.146.293.263a.792.792 0 0 0 1.209-.136c.196-.292.464-.307.782-.448.274-.118.737-.294.866-.578.278-.594-.348-1.011-.544-1.478-.156-.359 0-.587-.203-.921-.353-.585-.866-.35-1.982-.541-.233-.04-.454-.145-.684-.19-.203-.04-.375.011-.567-.058-.377-.136-.88-.165-1.347-.112-.5.055-.757.046-1.197.295-.508.292-.75.719-1.09 1.178-.22.298-.467.606-.773.818-.126.089-.268.173-.43.173-.509 0-1.092.262-1.545.463-1.586.694-2.919 1.773-4.215 2.909-.547.478-1.081.972-1.542 1.535a6.1 6.1 0 0 0-.536.762c-.28.473-.249 1.337.015 1.799.33.578.905 1.07 1.352 1.55 1.563 1.69 3.624 2.626 5.834 3.153.886.21 1.793.333 2.704.394.284.019 3.175.156 3.192.05-.004.007-.54 4.617 3.051 8.23 0 0-.045 4.84 1.707 6.604 0 0 2.448 1.122 6.428 1.172h.039c3.98-.05 6.43-1.172 6.43-1.172 1.75-1.763 1.707-6.604 1.707-6.604 3.592-3.613 3.052-8.223 3.052-8.23.016.106 2.906-.031 3.189-.05.913-.06 1.817-.185 2.704-.394 2.21-.527 4.27-1.463 5.834-3.153.448-.48 1.021-.972 1.35-1.55.27-.463.296-1.327.02-1.8Z" fill="#F05454"/><mask id="a" style="mask-type:alpha" maskUnits="userSpaceOnUse" x="13" y="17" width="23" height="18"><path d="M35.5 18H13.296v16h22.415V18H35.5Z" fill="#E0B8B8"/><path d="M32.5 18h3.211M32.5 18h3.211H32.5Zm0 0H13.296v16h22.415V18H32.5Z" stroke="#000" stroke-width=".01"/></mask><g mask="url(#a)"><path d="M48.804 11.048c-.16-.27-.342-.52-.54-.762-.457-.563-.997-1.057-1.538-1.535-1.294-1.136-2.631-2.215-4.217-2.91-.454-.2-1.034-.462-1.545-.462-.158 0-.305-.084-.43-.173-.304-.212-.55-.52-.77-.818-.34-.46-.582-.886-1.092-1.178-.44-.25-.694-.24-1.196-.295-.467-.053-.97-.024-1.349.112-.19.07-.363.018-.562.058-.234.046-.451.15-.687.19-1.115.19-1.63-.044-1.985.54-.197.335-.047.563-.197.922-.202.467-.829.883-.55 1.478.13.284.597.46.867.578.32.141.586.156.782.448a.795.795 0 0 0 1.21.136c.122-.117.17-.138.293-.263.108-.101.254-.139.375-.223.121-.084.188-.227.312-.298.198-.122.291-.064.513-.108.358-.066.713-.357.938-.58.121-.109.151-.273.264-.377.016-.017.038-.023.059-.036.947.428 3.253 5.176 3.253 5.176-2.068-1.77-4.674 0-4.674 0-3.95-1.354-6.197 1.45-6.197 1.45-.043.05-.957-.094-1.083-.1a6.744 6.744 0 0 0-.975 0c-.256.022-.452.073-.48-.232-.016-.176.022-.394.022-.57 0-.135-.026-.3 0-.429.076-.394.319-.74.398-1.147.077-.41.052-.825.214-1.217.13-.305.462-.337.693-.539.276-.239.438-.603.438-.964 0-.614-.425-1.121-.995-1.25-.251-.613-.118-1.11-.118-1.737 0-2.129-1.662-3.86-3.736-3.928V0c-.007 0-.014.004-.017.004-.01 0-.013-.004-.022-.004v.005c-2.071.068-3.735 1.8-3.735 3.928 0 .628.132 1.124-.12 1.737-.57.129-.993.636-.993 1.25 0 .36.162.725.439.964.23.202.56.234.69.539.164.392.138.807.218 1.217.076.407.322.753.398 1.147.021.128 0 .294-.003.43 0 .175.039.393.023.57-.028.304-.224.253-.48.23a6.737 6.737 0 0 0-.974 0c-.126.007-1.041.152-1.084.101 0 0-2.244-2.804-6.198-1.45 0 0-2.604-1.77-4.674 0 0 0 2.307-4.748 3.253-5.176.02.013.043.019.059.036.112.104.148.268.263.377.23.223.584.514.943.58.217.044.311-.013.508.108.123.071.194.213.312.298.12.084.269.122.377.223.124.125.17.146.293.263a.792.792 0 0 0 1.209-.136c.196-.292.464-.307.782-.448.274-.118.737-.294.866-.578.278-.594-.348-1.011-.544-1.478-.156-.359 0-.587-.203-.921-.353-.585-.866-.35-1.982-.541-.233-.04-.454-.145-.684-.19-.203-.04-.375.011-.567-.058-.377-.136-.88-.165-1.347-.112-.5.055-.757.046-1.197.295-.508.292-.75.719-1.09 1.178-.22.298-.467.606-.773.818-.126.089-.268.173-.43.173-.509 0-1.092.262-1.545.463-1.586.694-2.919 1.773-4.215 2.909-.547.478-1.081.972-1.542 1.535a6.1 6.1 0 0 0-.536.762c-.28.473-.249 1.337.015 1.799.33.578.905 1.07 1.352 1.55 1.563 1.69 3.624 2.626 5.834 3.153.886.21 1.793.333 2.704.394.284.019 3.175.156 3.192.05-.004.007-.54 4.617 3.051 8.23 0 0-.045 4.84 1.707 6.604 0 0 2.448 1.122 6.428 1.172h.039c3.98-.05 6.43-1.172 6.43-1.172 1.75-1.763 1.707-6.604 1.707-6.604 3.592-3.613 3.052-8.223 3.052-8.23.016.106 2.906-.031 3.189-.05.913-.06 1.817-.185 2.704-.394 2.21-.527 4.27-1.463 5.834-3.153.448-.48 1.021-.972 1.35-1.55.27-.463.296-1.327.02-1.8Z" fill="#30475E"/></g></svg>