<?xml version="1.0" encoding="utf-8"?><!DOCTYPE svg  PUBLIC '-//W3C//DTD SVG 1.0//EN'  'http://www.w3.org/TR/2001/REC-SVG-20010904/DTD/svg10.dtd'><svg viewBox="0 0 512 512" xmlns="http://www.w3.org/2000/svg" xmlns:xlink="http://www.w3.org/1999/xlink"><style>:root>svg{display:none}:root>svg:target{display:block}</style><svg viewBox="0 0 64 64" id="arrow-left" xmlns="http://www.w3.org/2000/svg"><path d="M26.3 33.1l-.9-.9L40.6 17l2.4-2.4c1.8-1.8-1-4.7-2.8-2.8-5.7 5.6-11.2 11.1-16.7 16.6l-2.4 2.4c-.8.8-.8 2.1 0 2.8L37.5 50l2.3 2.3c1.8 1.8 4.7-1 2.8-2.8-5.4-5.4-10.9-10.9-16.3-16.4z"/></svg><svg viewBox="0 0 64 64" id="arrow-right" xmlns="http://www.w3.org/2000/svg"><path d="M42.7 29.6L26.2 13.1l-2.4-2.4c-1.8-1.8-4.7 1-2.8 2.8L37.5 30l.9.9-15 15-2.3 2.3c-1.8 1.8 1 4.7 2.8 2.8l16.4-16.4 2.3-2.3c.9-.6.9-1.9.1-2.7z"/></svg><svg viewBox="0 0 64 64" id="arrow-up" xmlns="http://www.w3.org/2000/svg"><path d="M52.8 37.1L35.7 20l-2.4-2.4c-.8-.8-2.1-.8-2.8 0l-17 17-2.4 2.4c-1.8 1.8 1 4.7 2.8 2.8l17-17 1-1 15.7 15.7 2.4 2.4c1.8 1.8 4.6-1 2.8-2.8z"/></svg><svg viewBox="0 0 100.4 100.4" id="cup" xmlns="http://www.w3.org/2000/svg"><path d="M88.5 15.3c-.3-.3-.7-.5-1.1-.5H72.2v-7c0-.8-.7-1.5-1.5-1.5H28c-.8 0-1.5.7-1.5 1.5v7H10.9c-.4 0-.8.2-1.1.5-.3.3-.4.7-.4 1.1 0 .3.3 6.7 2.6 14.1 3.2 9.9 8.6 16.9 15.8 20.1 2.4 8 7.9 14.3 14.8 16.8v.3c0 8.3-6.3 14.9-14.4 14.9-.8 0-1.5.7-1.5 1.5v8.5c0 .8.7 1.5 1.5 1.5h42.5c.8 0 1.5-.7 1.5-1.5v-8.5c0-.8-.7-1.5-1.5-1.5-8.2 0-14.9-6.7-14.9-14.9v-.2C63 65 68.6 58.6 71 50.4c6.9-3.3 12.2-10.2 15.3-19.9 2.4-7.4 2.6-13.9 2.6-14.1.1-.4-.1-.8-.4-1.1zm-76 2.5h14v24c0 1.7.1 3.3.4 4.9C15.5 39.9 13 23 12.5 17.8zm56.7 67.7V91H29.7v-5.5c8.8-.7 15.6-8 15.8-17.3 1.2.2 2.5.4 3.8.4 1.2 0 2.4-.1 3.5-.3.4 9.1 7.5 16.5 16.4 17.2zM53.3 65.2c-1.3.3-2.6.5-3.9.5-1.5 0-3-.2-4.4-.6-.3-.1-.8-.3-1-.3-8.3-2.8-14.5-12-14.5-22.9V9.4h39.7v32.5c0 10.9-6.2 20.1-14.6 22.9m17.3-18.3c.2-1.5.4-3.1.4-4.7v-24h13.6c-.5 5.2-2.9 21.6-14 28.7z"/><path d="M63.8 27.3l-8.2-1.2-3.7-7.5c-.4-.8-1.3-1.4-2.2-1.4-.9 0-1.8.5-2.2 1.4l-3.7 7.5-8.2 1.2c-.9.1-1.7.8-2 1.7-.3.9-.1 1.9.6 2.5l6 5.8-1.4 8.2c-.2.9.2 1.8 1 2.4.4.3.9.5 1.5.5.4 0 .8-.1 1.1-.3l7.6-3.8 7.2 3.8c.8.4 1.8.4 2.6-.2.8-.6 1.1-1.5 1-2.4l-1.4-8.2 6-5.8c.7-.7.9-1.6.6-2.5-.5-.9-1.2-1.6-2.2-1.7zm-7.2 8.4c-.4.3-.5.8-.4 1.3l1.4 7.9-6.9-3.6c-.4-.2-.9-.2-1.4 0L41.9 45l1.4-8c.1-.5-.1-1-.4-1.3l-5.7-5.6 7.9-1.2c.5-.1.9-.4 1.1-.8l3.5-7.2 3.5 7.2c.2.4.6.8 1.1.8l7.9 1.2-5.6 5.6z"/></svg><svg stroke="none" viewBox="0 0 19 19" id="dribble" xmlns="http://www.w3.org/2000/svg"><path d="M13.92 16.338c-.079-.463-.489-2.72-1.496-5.489 2.48-.397 4.63.284 4.79.336a7.687 7.687 0 01-3.294 5.153zm-4.295 1.313a7.655 7.655 0 01-4.897-1.762c.102.082.173.134.173.134s1.473-3.213 6.031-4.8c.016-.008.034-.01.051-.017 1.082 2.81 1.528 5.163 1.643 5.835a7.68 7.68 0 01-3 .61h-.001zM1.939 9.964c0-.082.004-.162.006-.243.136.003 3.934.09 7.89-1.095.22.43.43.87.624 1.307a4.994 4.994 0 00-.303.092c-4.147 1.34-6.251 5.071-6.251 5.071l.003.004a7.656 7.656 0 01-1.97-5.136zm4.406-6.95A45.84 45.84 0 019.2 7.442c-3.69.98-6.894.942-7.096.938a7.688 7.688 0 014.24-5.366zm1.439-.513l-.001.003-.024.004.025-.006zM14.7 4.197c-.02.03-1.114 1.695-4.016 2.782a39.033 39.033 0 00-2.87-4.484 7.654 7.654 0 016.888 1.702H14.7zm2.607 5.69c-.11-.024-2.711-.584-5.352-.252l-.166-.395c-.16-.376-.331-.748-.511-1.116 3.034-1.24 4.267-3.02 4.281-3.04a7.656 7.656 0 011.748 4.803zm1.134-1.734a8.993 8.993 0 00-3.786-5.65 8.969 8.969 0 00-1.527-.83 9.017 9.017 0 00-7.008 0 9.023 9.023 0 00-3.958 3.26 8.954 8.954 0 00-1.537 5.03 8.91 8.91 0 00.708 3.503 9.018 9.018 0 004.788 4.789c.544.231 1.11.407 1.69.524a8.967 8.967 0 006.845-1.354 8.986 8.986 0 003.785-9.273h.002z"/></svg><svg viewBox="0 0 512 512" id="facebook" xmlns="http://www.w3.org/2000/svg"><path d="M375.301 181.236h-89.475v-59.813c0-16.51 13.359-29.908 29.828-29.908h29.824V16.75h-59.652c-49.42 0-89.475 40.162-89.475 89.718v74.768h-59.654V256h59.654v239.25h89.475V256h59.652l29.823-74.764zm0 0"/></svg><svg version="1.0" viewBox="0 0 24 24" id="human" xmlns="http://www.w3.org/2000/svg"><circle cx="12" cy="8" r="4"/><path d="M12 14c-6.1 0-8 4-8 4v2h16v-2s-1.9-4-8-4z"/></svg><svg fill="none"  stroke-linecap="round" stroke-linejoin="round" stroke-width="2" viewBox="0 0 24 24" id="instagram" xmlns="http://www.w3.org/2000/svg"><rect height="20" rx="5" ry="5" width="20" x="2" y="2"/><path d="M16 11.37A4 4 0 1112.63 8 4 4 0 0116 11.37zM17.5 6.5h0"/></svg><svg version="1.0" viewBox="0 0 24 24" id="people" xmlns="http://www.w3.org/2000/svg"><path d="M9 9c0-1.7 1.3-3 3-3s3 1.3 3 3-1.3 3-3 3-3-1.3-3-3zm3 5c-4.6 0-6 3.3-6 3.3V19h12v-1.7S16.6 14 12 14z"/><circle cx="18.5" cy="8.5" r="2.5"/><path d="M18.5 13c-1.2 0-2.1.3-2.8.8 2.3 1.1 3.2 3 3.2 3.2v.1H23v-1.3c0-.1-1.1-2.8-4.5-2.8z"/><circle cx="18.5" cy="8.5" r="2.5"/><path d="M18.5 13c-1.2 0-2.1.3-2.8.8 2.3 1.1 3.2 3 3.2 3.2v.1H23v-1.3c0-.1-1.1-2.8-4.5-2.8z"/><g><circle cx="5.5" cy="8.5" r="2.5"/><path d="M5.5 13c1.2 0 2.1.3 2.8.8-2.3 1.1-3.2 3-3.2 3.2v.1H1v-1.3c0-.1 1.1-2.8 4.5-2.8z"/></g></svg><svg viewBox="0 0 56.693 56.693" id="pinterest" xmlns="http://www.w3.org/2000/svg"><path d="M30.374 4.622c-13.586 0-20.437 9.74-20.437 17.864 0 4.918 1.862 9.293 5.855 10.922.655.27 1.242.01 1.432-.715.132-.5.445-1.766.584-2.295.191-.717.117-.967-.412-1.594-1.151-1.357-1.888-3.115-1.888-5.607 0-7.226 5.407-13.695 14.079-13.695 7.679 0 11.898 4.692 11.898 10.957 0 8.246-3.649 15.205-9.065 15.205-2.992 0-5.23-2.473-4.514-5.508.859-3.623 2.524-7.531 2.524-10.148 0-2.34-1.257-4.292-3.856-4.292-3.058 0-5.515 3.164-5.515 7.401 0 2.699.912 4.525.912 4.525l-3.678 15.582c-1.092 4.625-.164 10.293-.085 10.865.046.34.482.422.68.166.281-.369 3.925-4.865 5.162-9.359.351-1.271 2.011-7.859 2.011-7.859.994 1.896 3.898 3.562 6.986 3.562 9.191 0 15.428-8.379 15.428-19.595.001-8.483-7.183-16.382-18.101-16.382z"/></svg><svg fill="none" viewBox="0 0 80 80" id="services-icon01" xmlns="http://www.w3.org/2000/svg"><circle cx="40" cy="40" r="38.5"  stroke-width="3"/><path d="M66.338 36.4v.5h4.74c.026 0 .084.017.134.075a.208.208 0 01.054.175l-.007.041V42.153c0 .114-.036.17-.062.196-.026.026-.082.061-.195.061h-4.74v7.768c0 .113-.035.17-.061.195-.026.026-.082.062-.195.062h-4.664v5.118c0 .113-.036.17-.062.195-.026.026-.082.062-.195.062h-4.921c-.114 0-.17-.036-.195-.062-.026-.026-.062-.082-.062-.195V42.41H24.852v13.143c0 .113-.035.17-.062.195-.026.026-.081.062-.195.062h-4.92c-.114 0-.17-.036-.196-.062-.026-.026-.062-.082-.062-.195v-5.194h-4.664a.214.214 0 01-.09-.013.303.303 0 01-.086-.067.301.301 0 01-.067-.087.213.213 0 01-.014-.09v-7.767H9.758c-.113 0-.17-.036-.195-.062-.026-.026-.062-.082-.062-.196v-4.92c0-.114.036-.17.062-.196.026-.026.082-.061.195-.061h4.74v-7.768c0-.113.035-.17.061-.195.026-.026.082-.062.196-.062h4.663v-5.118c0-.113.036-.17.062-.195.026-.026.082-.062.195-.062h4.921c.114 0 .17.036.195.062.027.026.062.082.062.195v13.218h31.13V23.757c0-.113.036-.17.062-.195.026-.026.082-.062.196-.062h4.92c.114 0 .17.036.196.062.026.026.061.082.061.195v5.118h4.664c.114 0 .17.036.195.062.027.026.062.082.062.195V36.4zm-52.341 5.496h.5V37.49H10.09v4.407h3.906zm4.92 8.025h.5V29.389H15.011v20.532h3.906zm4.921 5.375h.5V24.014h-4.407v31.282h3.907zm1.09-13.9v.5h31.055V37.49H24.928v3.907zm35.475 13.9h.5V24.014H56.497v31.282h3.906zm4.921-5.375h.5V29.389h-4.407v20.532h3.907zm4.997-8.025h.5V37.49h-4.407v4.407h3.907z"/></svg><svg fill="none" viewBox="0 0 80 80" id="services-icon02" xmlns="http://www.w3.org/2000/svg"><circle cx="40" cy="40" r="38.5" stroke-width="3"/><path d="M54.294 46.983l.018-.02.014-.018c.002-.002.027-.023.1-.026a.343.343 0 01.197.048c.073.061.082.11.083.129 0 .024-.007.068-.06.122l-.006.005-.005.006c-6.354 6.768-13.845 14.206-14.387 14.744l-.03.03a.26.26 0 01-.073.057.175.175 0 01-.074.01.175.175 0 01-.074-.01.258.258 0 01-.072-.057 19.404 19.404 0 00-.061-.06c-.716-.698-7.523-7.337-13.76-14.114a.352.352 0 01-.042-.19c.003-.071.024-.096.026-.098.1-.073.242-.07.338.02 4.729 5.159 9.878 10.263 12.32 12.684l.972.965.346.347.354-.34c1.864-1.792 8.299-8.227 13.877-14.234z"/><path d="M39.618 25.784l.457.974.45-.978c1.991-4.325 6.458-7.28 11.403-7.28 6.94 0 12.64 5.706 12.571 12.566v.005c0 3.69-1.882 6.954-3.859 9.352a25.169 25.169 0 01-2.751 2.839c-.386.34-.714.607-.955.794a11.37 11.37 0 01-.406.3s0 0 0 0h-.314v.144H45.922l-.144.255-1.275 2.266c-.063.09-.13.121-.218.121h0-.001 0-.001 0-.001 0-.001 0-.001 0-.001 0-.001 0-.001 0-.001 0-.001 0-.001 0-.001 0-.001 0-.001 0-.001 0-.001 0-.001 0-.001 0-.001 0-.001 0-.001 0-.001 0-.001 0-.001 0-.001 0-.001 0-.001 0-.001 0-.001 0-.001 0-.001 0-.001 0-.001 0-.001 0-.001 0-.001 0-.001 0-.001 0-.001 0-.001 0-.001 0-.001 0-.001 0-.001 0-.001 0-.001 0-.001 0-.001 0-.001 0-.001 0-.001 0-.001 0-.001 0-.001 0-.001 0-.001 0-.001 0-.001 0-.001 0-.001 0-.001 0-.001 0-.001 0-.001 0-.001 0-.001 0-.001 0-.001 0-.001 0-.001 0-.001 0c-.01 0-.032-.002-.075-.033a.653.653 0 01-.13-.14l-2.41-5.457-.54-1.226-.394 1.28-.843 2.74c-.084.143-.207.194-.25.194h-6.507l-.144.255-1.275 2.266c-.063.09-.13.121-.218.121-.01 0-.032-.002-.075-.033a.65.65 0 01-.13-.14l-2.409-5.457-.54-1.226-.395 1.28-.843 2.74c-.083.143-.207.194-.25.194H15.714c-.1 0-.145-.032-.164-.05-.019-.019-.05-.064-.05-.165 0-.1.031-.145.05-.164.019-.019.064-.05.164-.05H26.59l.105-.36 1.214-4.142.003-.01.002-.01c.015-.057.096-.12.158-.12.12 0 .215.055.263.143l2.637 5.986.408.926.487-.886.774-1.407c.063-.088.13-.12.217-.12h6.446l.105-.36 1.214-4.142.003-.01.003-.01c.014-.057.095-.12.157-.12.12 0 .215.055.263.143l2.637 5.986.408.926.488-.886.773-1.407c.063-.088.13-.12.217-.12h10.952l.134-.1c.595-.447 2.488-1.995 4.237-4.245 1.744-2.243 3.391-5.244 3.391-8.583 0-6.778-5.511-12.214-12.214-12.214-5.344 0-10.172 3.549-11.68 8.669a.473.473 0 01-.116.148.198.198 0 01-.133.04c-.164 0-.221-.093-.229-.122l-.003-.012-.003-.012c-1.564-5.136-6.327-8.711-11.693-8.711C21.436 18.929 16 24.44 16 31.143c0 2.385 1.09 4.819 2.149 6.627 1.06 1.812 2.138 3.08 2.212 3.155.03.03.038.057.034.096a.343.343 0 01-.106.197.107.107 0 01-.097.034.343.343 0 01-.196-.106h0a9.56 9.56 0 01-.226-.263 18.741 18.741 0 01-.532-.679 23.648 23.648 0 01-1.529-2.312c-1.099-1.9-2.138-4.344-2.138-6.75 0-7.007 5.703-12.642 12.643-12.642 4.875 0 9.343 2.885 11.404 7.284zm16.91 18.573h0z"/></svg><svg fill="none" viewBox="0 0 80 80" id="services-icon03" xmlns="http://www.w3.org/2000/svg"><circle cx="40" cy="40" r="38.5"  stroke-width="3"/><path d="M19.36 56.187c0-2.678 2.151-4.842 4.796-4.842 2.645 0 4.797 2.164 4.797 4.842 0 2.678-2.152 4.843-4.797 4.843-2.645 0-4.797-2.165-4.797-4.843zm.406 0c0 2.438 1.963 4.424 4.39 4.424 2.427 0 4.39-1.986 4.39-4.424 0-2.437-1.963-4.424-4.39-4.424-2.427 0-4.39 1.987-4.39 4.424z" /><path d="M31.663 22.715l.079.404h26.867c2.692 0 4.891 2.212 4.891 4.937v30.92c0 2.726-2.199 4.938-4.89 4.938H23.452a.184.184 0 01-.077-.013l-.068-.03-.075-.01c-3.727-.461-6.642-3.628-6.733-7.49v0-.001 0-.001 0-.001 0-.001 0-.001 0-.001 0-.001 0-.001 0-.001 0-.001 0-.001 0-.001 0-.001 0-.001 0-.001 0-.001 0-.001 0-.001 0-.001 0-.001 0-.001 0-.001 0-.001 0-.001 0-.001 0-.001 0-.001 0-.001 0-.001 0-.001 0-.001 0-.001 0-.001 0-.001 0-.001 0-.001 0-.001 0-.001 0-.001 0-.001 0-.001 0-32.103c0-4.267 3.436-7.727 7.656-7.727 3.71 0 6.81 2.67 7.507 6.215zm-1.17 29.138l.913 1.35V24.228c0-4.026-3.248-7.309-7.25-7.309s-7.25 3.283-7.25 7.309V53.203l.914-1.35c1.385-2.046 3.709-3.392 6.336-3.392 2.628 0 4.952 1.346 6.336 3.392zm-2.045 10.73l-1.325.912H58.61c2.474 0 4.485-2.023 4.485-4.518v-30.92c0-2.485-2-4.52-4.485-4.52H31.812V56.187c0 2.656-1.338 5.001-3.364 6.397zM24.156 48.88c-4.002 0-7.25 3.282-7.25 7.308s3.248 7.308 7.25 7.308 7.25-3.282 7.25-7.308-3.248-7.308-7.25-7.308z" /><path d="M58.564 57.897h0l-.779.784s0 0 0 0c-.058.06-.097.06-.12.06a.246.246 0 01-.144-.078.257.257 0 01-.079-.152c-.002-.027 0-.068.06-.128 0 0 0 0 0 0l.778-.785-.347-.344.347.344c.059-.06.098-.06.12-.058a.246.246 0 01.145.077.257.257 0 01.078.152c.003.026 0 .068-.06.128zM50.143 58.374l8.137-8.208c.059-.06.098-.06.12-.059a.246.246 0 01.145.078.257.257 0 01.079.152c.002.026-.001.068-.06.127l-8.138 8.208a.193.193 0 01-.142.06c-.07 0-.138-.04-.176-.132-.037-.092-.019-.173.035-.226zM58.28 42.743h0l-15.347 15.47 15.347-15.47zm0 0l.003-.002m-.003.002l.003-.002m0 0c.06-.062.1-.063.12-.062.035.003.09.023.143.076.052.052.074.11.078.15.002.026-.001.067-.06.127l-15.347 15.48a.193.193 0 01-.142.06c-.07 0-.139-.041-.176-.133m15.384-15.698L42.899 58.439m0 0c-.038-.091-.02-.172.034-.226l-.034.226zM58.28 35.311l.003-.003c.06-.062.1-.062.12-.06.035.002.09.022.142.075a.259.259 0 01.078.153c.003.029-.001.073-.06.135h-.002L35.69 58.682a.193.193 0 01-.142.06c-.07 0-.139-.04-.176-.132-.038-.091-.02-.172.034-.226L58.28 35.311zM57.889 28.858l-22.81 23.006a.193.193 0 01-.142.06c-.07 0-.138-.04-.176-.132-.037-.092-.019-.173.035-.227L57.605 28.56c.059-.06.098-.06.12-.06a.246.246 0 01.145.078.257.257 0 01.079.152c.002.027-.001.068-.06.128zM35.08 44.431h0l15.44-15.564-15.44 15.564zm0 0a.203.203 0 01-.284 0 .218.218 0 010-.298l.283.298zM50.235 28.57h0l-15.44 15.564 15.44-15.564zm0 0a.203.203 0 01.284 0 .218.218 0 010 .298l-.284-.298zM35.08 37.008h0c-.06.06-.098.061-.12.06a.246.246 0 01-.146-.078.257.257 0 01-.078-.152c-.002-.026 0-.068.06-.127 0 0 0 0 0 0l8.08-8.142h0a.203.203 0 01.285 0 .218.218 0 010 .298l-8.082 8.141zM35.801 28.848l-.722.728c-.059.06-.097.06-.12.059a.246.246 0 01-.145-.078.257.257 0 01-.078-.151c-.002-.027 0-.068.06-.128l.721-.728a.203.203 0 01.284 0 .218.218 0 010 .298z" /></svg><svg viewBox="0 0 48 48" id="tiles" xmlns="http://www.w3.org/2000/svg"><g fill="#241F20"><path d="M0 0h12v12H0zM18 0h12v12H18zM36 0h12v12H36zM0 18h12v12H0zM18 18h12v12H18zM36 18h12v12H36zM0 36h12v12H0zM18 36h12v12H18zM36 36h12v12H36z"/></g></svg><svg viewBox="0 0 56.693 56.693" id="twitter" xmlns="http://www.w3.org/2000/svg"><path d="M52.837 15.065a20.11 20.11 0 01-5.805 1.591 10.125 10.125 0 004.444-5.592 20.232 20.232 0 01-6.418 2.454 10.093 10.093 0 00-7.377-3.192c-5.581 0-10.106 4.525-10.106 10.107 0 .791.089 1.562.262 2.303-8.4-.422-15.848-4.445-20.833-10.56a10.055 10.055 0 00-1.368 5.082c0 3.506 1.784 6.6 4.496 8.412a10.078 10.078 0 01-4.578-1.265l-.001.128c0 4.896 3.484 8.98 8.108 9.91a10.162 10.162 0 01-4.565.172c1.287 4.015 5.019 6.938 9.441 7.019a20.276 20.276 0 01-12.552 4.327c-.815 0-1.62-.048-2.411-.142a28.6 28.6 0 0015.493 4.541c18.591 0 28.756-15.4 28.756-28.756 0-.438-.009-.875-.028-1.309a20.47 20.47 0 005.042-5.23z"/></svg><svg viewBox="0 0 512 512" fill-rule="evenodd" clip-rule="evenodd" stroke-linejoin="round" stroke-miterlimit="2" id="youtube" xmlns="http://www.w3.org/2000/svg"><path d="M501.303 132.765c-5.887-22.03-23.235-39.377-45.265-45.265C416.106 76.8 256 76.8 256 76.8s-160.107 0-200.039 10.7c-22.026 5.888-39.377 23.235-45.264 45.265C0 172.693 0 256.003 0 256.003s0 83.308 10.697 123.232c5.887 22.03 23.238 39.382 45.264 45.269C95.893 435.2 256 435.2 256 435.2s160.106 0 200.038-10.696c22.03-5.887 39.378-23.239 45.265-45.269 10.696-39.924 10.696-123.232 10.696-123.232s0-83.31-10.696-123.238zM204.797 332.804V179.201l133.019 76.802-133.019 76.801z" fill-rule="nonzero"/></svg></svg>