<svg width="158" height="21" fill="none" xmlns="http://www.w3.org/2000/svg"><path d="M.515.836h4.608l4.437 8.38h.19l4.437-8.38h4.608l-7.097 12.58v6.878H7.612v-6.879L.515.835ZM37.748 10.565c0 2.122-.402 3.927-1.207 5.415-.798 1.489-1.887 2.626-3.268 3.411-1.375.78-2.92 1.17-4.637 1.17-1.73 0-3.281-.394-4.655-1.18-1.375-.785-2.461-1.922-3.26-3.41-.797-1.489-1.197-3.29-1.197-5.406 0-2.122.4-3.927 1.198-5.416.798-1.488 1.884-2.622 3.258-3.401C25.355.962 26.907.57 28.636.57c1.717 0 3.262.392 4.637 1.178 1.38.779 2.47 1.913 3.268 3.401.805 1.489 1.207 3.294 1.207 5.416Zm-4.171 0c0-1.375-.206-2.534-.618-3.478-.405-.943-.979-1.66-1.72-2.147-.74-.488-1.608-.731-2.603-.731-.994 0-1.862.243-2.603.731-.741.488-1.318 1.204-1.73 2.147-.405.944-.608 2.103-.608 3.478 0 1.374.203 2.534.608 3.477.412.944.989 1.66 1.73 2.147.74.488 1.609.732 2.603.732.995 0 1.862-.244 2.603-.732.741-.487 1.315-1.203 1.72-2.147.412-.944.618-2.103.618-3.477ZM52.814.836h4.114v12.636c0 1.42-.339 2.66-1.016 3.725-.672 1.064-1.612 1.894-2.822 2.489-1.21.59-2.62.884-4.228.884-1.616 0-3.028-.295-4.238-.884-1.21-.595-2.15-1.425-2.822-2.49-.671-1.064-1.007-2.305-1.007-3.724V.836h4.114V13.12c0 .74.162 1.4.485 1.976.33.576.791 1.03 1.387 1.359.595.329 1.289.494 2.08.494.799 0 1.492-.165 2.082-.494a3.468 3.468 0 0 0 1.377-1.36c.33-.575.494-1.234.494-1.975V.836ZM60.313 20.294V.836h7.677c1.47 0 2.724.262 3.762.788 1.046.52 1.84 1.258 2.385 2.214.551.95.827 2.068.827 3.354 0 1.292-.279 2.404-.836 3.335-.558.925-1.365 1.634-2.423 2.128-1.052.494-2.325.741-3.82.741h-5.14V10.09h4.475c.786 0 1.438-.108 1.958-.323.519-.216.905-.539 1.159-.97.26-.43.39-.965.39-1.605 0-.646-.13-1.19-.39-1.634-.254-.444-.643-.78-1.169-1.007-.52-.235-1.175-.352-1.967-.352h-2.774v16.095h-4.114Zm10.508-8.855 4.836 8.855h-4.541l-4.732-8.855h4.437ZM84.064 20.294V.836h4.114v16.066h8.342v3.392H84.064ZM116.368 10.565c0 2.122-.403 3.927-1.207 5.415-.798 1.489-1.888 2.626-3.268 3.411-1.375.78-2.92 1.17-4.637 1.17-1.729 0-3.281-.394-4.656-1.18-1.374-.785-2.46-1.922-3.258-3.41-.799-1.489-1.198-3.29-1.198-5.406 0-2.122.4-3.927 1.197-5.416.799-1.488 1.885-2.622 3.259-3.401C103.975.962 105.527.57 107.256.57c1.717 0 3.262.392 4.637 1.178 1.38.779 2.47 1.913 3.268 3.401.804 1.489 1.207 3.294 1.207 5.416Zm-4.171 0c0-1.375-.206-2.534-.618-3.478-.405-.943-.979-1.66-1.72-2.147-.741-.488-1.609-.731-2.603-.731-.994 0-1.862.243-2.603.731-.741.488-1.318 1.204-1.73 2.147-.405.944-.608 2.103-.608 3.478 0 1.374.203 2.534.608 3.477.412.944.989 1.66 1.73 2.147.741.488 1.609.732 2.603.732.994 0 1.862-.244 2.603-.732.741-.487 1.315-1.203 1.72-2.147.412-.944.618-2.103.618-3.477ZM132.318 7.125a4.258 4.258 0 0 0-.561-1.225 3.469 3.469 0 0 0-.883-.912 3.787 3.787 0 0 0-1.179-.58 4.975 4.975 0 0 0-1.453-.2c-.995 0-1.869.248-2.623.742-.747.494-1.33 1.213-1.748 2.156-.418.938-.627 2.084-.627 3.44 0 1.355.206 2.508.618 3.458.411.95.994 1.676 1.748 2.176.754.494 1.644.741 2.67.741.931 0 1.726-.165 2.385-.494a3.545 3.545 0 0 0 1.52-1.416c.354-.608.532-1.327.532-2.156l.836.123h-5.017V9.881h8.143v2.451c0 1.71-.361 3.18-1.083 4.409a7.382 7.382 0 0 1-2.984 2.831c-1.267.659-2.717.988-4.351.988-1.824 0-3.427-.402-4.808-1.207-1.381-.81-2.457-1.96-3.23-3.449-.767-1.494-1.15-3.268-1.15-5.32 0-1.577.228-2.984.684-4.219.463-1.241 1.109-2.293 1.938-3.154a8.38 8.38 0 0 1 2.898-1.967c1.102-.45 2.296-.674 3.582-.674 1.102 0 2.129.161 3.079.484.95.317 1.792.767 2.527 1.35a7.312 7.312 0 0 1 1.815 2.08c.468.798.769 1.679.902 2.641h-4.18ZM157.65 10.565c0 2.122-.402 3.927-1.206 5.415-.798 1.489-1.888 2.626-3.269 3.411-1.374.78-2.92 1.17-4.636 1.17-1.73 0-3.281-.394-4.656-1.18-1.374-.785-2.461-1.922-3.259-3.41-.798-1.489-1.197-3.29-1.197-5.406 0-2.122.399-3.927 1.197-5.416.798-1.488 1.885-2.622 3.259-3.401C145.258.962 146.809.57 148.539.57c1.716 0 3.262.392 4.636 1.178 1.381.779 2.471 1.913 3.269 3.401.804 1.489 1.206 3.294 1.206 5.416Zm-4.171 0c0-1.375-.206-2.534-.617-3.478-.406-.943-.979-1.66-1.72-2.147-.741-.488-1.609-.731-2.603-.731-.995 0-1.863.243-2.604.731-.741.488-1.317 1.204-1.729 2.147-.405.944-.608 2.103-.608 3.478 0 1.374.203 2.534.608 3.477.412.944.988 1.66 1.729 2.147.741.488 1.609.732 2.604.732.994 0 1.862-.244 2.603-.732.741-.487 1.314-1.203 1.72-2.147.411-.944.617-2.103.617-3.477Z" fill="#000"/></svg>