<?xml version="1.0" standalone="no"?>
<!DOCTYPE svg PUBLIC "-//W3C//DTD SVG 20010904//EN"
 "http://www.w3.org/TR/2001/REC-SVG-20010904/DTD/svg10.dtd">
<svg version="1.0" xmlns="http://www.w3.org/2000/svg"
 width="992.000000pt" height="992.000000pt" viewBox="0 0 992.000000 992.000000"
 preserveAspectRatio="xMidYMid meet">
<metadata>
Created by potrace 1.14, written by Peter Selinger 2001-2017
</metadata>
<g transform="translate(0.000000,992.000000) scale(0.100000,-0.100000)"
fill="#000000" stroke="none">
<path d="M3229 9756 c-2 -2 -56 -6 -119 -10 -63 -4 -131 -9 -150 -11 -19 -2
-57 -6 -85 -9 -27 -3 -66 -8 -85 -11 -19 -2 -55 -7 -80 -10 -50 -7 -85 -13
-85 -15 0 -1 -13 -3 -30 -5 -40 -5 -101 -16 -165 -30 -24 -6 -46 -10 -92 -19
-59 -12 -324 -88 -413 -119 -55 -19 -129 -46 -165 -58 -36 -13 -67 -26 -70
-30 -3 -3 -16 -10 -30 -14 -50 -16 -313 -148 -343 -174 -8 -6 -17 -8 -20 -4
-4 3 -7 1 -7 -5 0 -7 -7 -12 -15 -12 -8 0 -15 -4 -15 -10 0 -5 -7 -10 -15 -10
-8 0 -15 -5 -15 -10 0 -6 -3 -9 -8 -8 -6 2 -122 -72 -149 -96 -6 -6 -37 -29
-67 -50 -31 -22 -56 -43 -56 -48 0 -4 -4 -8 -9 -8 -13 0 -86 -65 -191 -170
-99 -98 -183 -194 -259 -295 -17 -22 -34 -44 -39 -50 -18 -24 -96 -149 -108
-175 -4 -8 -10 -17 -13 -20 -5 -4 -92 -177 -96 -190 -4 -13 -27 -67 -36 -85
-5 -12 -11 -27 -13 -35 -2 -8 -6 -22 -9 -30 -24 -65 -71 -227 -81 -282 -3 -13
-5 -23 -7 -23 -1 0 -2 -11 -3 -25 -1 -14 -6 -36 -10 -49 -5 -14 -10 -39 -12
-57 -1 -17 -8 -67 -13 -110 -6 -44 -14 -108 -17 -144 -8 -91 -8 -450 1 -540 3
-41 8 -93 10 -115 1 -22 4 -40 5 -40 1 0 3 -18 5 -40 2 -22 6 -53 10 -70 4
-16 8 -39 10 -50 2 -11 6 -32 9 -47 3 -16 9 -40 12 -55 3 -16 6 -34 6 -40 1
-7 5 -13 10 -13 5 0 6 -5 2 -11 -3 -6 -2 -21 4 -32 6 -12 20 -56 33 -97 12
-41 31 -95 42 -120 10 -25 22 -54 26 -65 22 -53 95 -190 135 -254 15 -22 26
-43 26 -46 0 -3 7 -13 15 -22 9 -10 51 -64 95 -121 98 -125 112 -141 176 -208
28 -29 49 -56 46 -59 -3 -3 -1 -5 4 -5 6 0 43 -32 83 -71 59 -57 169 -150 226
-191 5 -4 24 -18 40 -31 63 -48 154 -107 164 -107 6 0 11 -4 11 -10 0 -5 6
-10 14 -10 8 0 16 -3 18 -7 2 -5 35 -24 73 -43 39 -19 72 -37 75 -40 12 -12
201 -100 215 -100 8 0 15 -4 15 -9 0 -7 32 -24 70 -36 3 0 36 -16 74 -33 38
-18 70 -32 72 -32 3 0 23 -9 47 -19 34 -16 170 -72 302 -126 11 -5 23 -7 28
-7 4 1 7 -3 7 -10 0 -6 3 -8 6 -5 4 3 16 1 28 -5 11 -7 26 -13 31 -14 6 -1 42
-14 80 -29 77 -29 179 -68 210 -80 25 -10 25 -10 58 -19 15 -5 27 -9 27 -10 0
-2 -11 -35 -25 -75 -24 -67 -25 -85 -7 -87 4 0 20 -6 35 -12 16 -7 30 -12 32
-12 7 0 446 -159 479 -174 17 -8 72 -30 121 -51 137 -56 149 -62 307 -138
l146 -71 16 -55 c8 -31 22 -83 31 -116 9 -33 23 -85 31 -115 9 -30 25 -89 35
-130 11 -41 22 -82 24 -90 2 -8 14 -49 25 -90 12 -41 23 -82 25 -90 2 -8 4
-15 5 -15 2 0 8 -28 16 -75 5 -34 5 -35 -38 -48 -80 -23 -103 -26 -233 -26
-144 -1 -176 3 -262 35 -159 60 -273 175 -346 349 -16 36 -29 75 -30 88 0 12
-4 22 -7 22 -4 0 -7 6 -8 13 0 6 -3 22 -5 33 -3 12 -8 39 -12 60 -4 22 -8 46
-10 54 -2 8 -6 39 -10 68 l-7 52 -1510 0 -1510 0 6 -67 c4 -38 8 -81 10 -98 8
-58 20 -170 20 -192 1 -13 3 -23 6 -23 3 0 7 -16 8 -36 2 -20 9 -63 17 -95 7
-33 14 -62 14 -64 1 -3 1 -6 2 -7 1 -5 7 -33 13 -68 8 -39 13 -64 16 -67 2 -2
3 -6 5 -10 1 -5 5 -20 9 -34 4 -14 9 -32 10 -40 2 -8 6 -21 9 -29 5 -14 30
-89 32 -100 1 -3 5 -13 9 -22 4 -9 9 -22 10 -30 1 -7 10 -30 19 -52 9 -21 17
-42 17 -46 0 -4 6 -20 14 -36 8 -16 35 -74 62 -129 26 -55 70 -138 97 -185 50
-85 154 -241 167 -250 4 -3 11 -12 16 -21 41 -73 245 -286 400 -419 62 -54
222 -172 226 -168 2 2 14 -7 27 -19 13 -12 28 -20 33 -17 4 3 8 1 8 -3 0 -27
481 -281 620 -328 3 -1 19 -7 35 -14 76 -30 165 -62 175 -63 4 0 31 -9 95 -34
11 -4 25 -8 30 -9 6 -2 37 -11 70 -21 33 -10 65 -19 70 -20 6 -1 30 -7 55 -14
25 -7 52 -13 61 -15 8 -2 44 -10 80 -19 35 -8 75 -18 89 -20 14 -3 35 -7 46
-10 12 -2 39 -7 60 -11 36 -6 53 -9 124 -19 14 -2 25 -5 25 -6 0 -1 14 -3 30
-5 17 -1 68 -8 115 -14 236 -30 473 -44 760 -44 181 0 435 9 505 19 17 2 56 6
88 9 32 3 70 7 85 9 30 5 85 13 147 21 22 2 51 7 65 10 14 3 40 8 59 11 38 6
37 6 141 29 41 9 83 18 92 20 115 24 407 121 532 177 50 22 97 40 104 41 6 0
12 4 12 9 0 4 6 8 13 8 12 0 153 70 217 109 19 11 53 30 75 42 22 12 66 39 97
60 32 22 62 39 68 39 5 0 10 4 10 9 0 23 35 17 102 -18 40 -21 93 -46 118 -55
25 -10 56 -23 70 -29 14 -6 27 -11 30 -12 3 -1 12 -4 20 -8 86 -33 236 -77
320 -93 14 -3 34 -8 45 -11 11 -4 29 -8 40 -10 32 -4 87 -12 125 -19 58 -9
122 -15 173 -17 26 0 47 -5 47 -9 0 -5 8 -4 19 1 10 6 21 7 25 4 8 -8 193 -6
206 2 6 3 10 1 10 -5 0 -6 5 -8 12 -4 6 4 28 8 48 10 74 5 155 14 180 18 14 3
42 7 63 10 89 14 112 18 134 27 13 5 23 7 23 4 0 -2 15 1 33 6 17 6 41 12 52
14 82 18 311 103 432 161 51 24 97 44 103 44 5 0 10 3 10 8 0 4 21 18 48 32
63 32 262 164 295 194 15 14 27 22 27 18 0 -4 4 -2 8 3 4 6 39 37 77 70 112
95 315 306 315 327 0 4 4 8 9 8 4 0 21 19 37 41 16 23 38 54 49 69 55 76 85
122 85 131 0 5 5 9 10 9 6 0 10 6 10 14 0 8 3 16 8 18 8 3 15 17 99 175 29 57
51 103 48 103 -3 0 1 10 9 23 19 29 104 255 111 297 3 18 10 41 16 51 5 11 7
19 5 19 -3 0 1 18 9 40 8 22 14 42 15 45 0 3 0 6 1 8 1 1 2 13 4 27 2 14 8 50
14 80 7 30 14 73 17 95 3 22 8 54 10 70 9 65 12 474 3 545 -25 208 -33 256
-42 280 -4 8 -9 26 -11 40 -9 48 -15 73 -31 126 -9 30 -15 55 -15 56 1 6 -49
145 -69 191 -11 26 -20 50 -20 53 1 12 -155 314 -163 314 -4 0 -8 5 -8 11 0
15 -139 222 -156 232 -8 4 -14 14 -14 22 0 7 -3 15 -7 17 -5 2 -33 32 -63 68
-64 76 -228 240 -290 290 -23 19 -47 40 -54 45 -41 36 -136 105 -144 105 -6 0
-12 4 -14 8 -4 12 -134 94 -210 134 -34 18 -66 37 -69 41 -3 5 -10 9 -15 9 -5
0 -40 15 -79 33 -72 34 -198 85 -218 89 -7 2 -19 6 -27 9 -166 65 -470 125
-673 132 -48 1 -91 5 -94 9 -3 3 -12 1 -20 -5 -7 -6 -13 -7 -13 -2 0 5 -19 8
-42 7 -24 -2 -43 -3 -43 -4 0 0 -43 -3 -95 -5 -52 -2 -115 -7 -140 -10 -25 -3
-56 -8 -70 -9 -79 -11 -126 -20 -220 -43 -58 -14 -112 -26 -120 -27 -9 -1 -21
-5 -28 -10 -6 -4 -16 -5 -21 -2 -5 4 -11 3 -13 -2 -2 -6 -92 -41 -143 -56 -35
-10 -249 -106 -259 -117 -6 -5 -16 -9 -23 -9 -8 0 -19 -5 -26 -10 -7 -6 -61
-40 -122 -76 l-109 -66 -176 89 c-96 48 -177 88 -180 88 -3 1 -45 20 -93 43
-49 23 -90 42 -91 42 -2 0 -34 14 -72 32 -38 17 -71 32 -74 33 -8 3 -42 17
-85 35 -22 10 -80 34 -130 54 -49 20 -102 43 -116 51 -14 8 -29 12 -32 8 -4
-3 -12 -1 -19 5 -13 10 -209 88 -238 94 -8 2 -18 7 -21 11 -3 5 -15 10 -25 12
-10 2 -20 4 -21 5 -2 2 -6 3 -10 5 -5 1 -17 5 -28 10 -11 4 -78 30 -150 57
-71 28 -168 66 -215 85 -47 19 -94 38 -105 43 -11 4 -47 20 -80 35 -33 15 -64
28 -70 29 -5 1 -30 11 -55 22 -25 12 -63 29 -85 39 -124 54 -319 155 -380 196
-148 99 -245 227 -282 370 -7 29 -7 202 0 245 6 34 45 132 62 152 39 49 118
122 132 122 3 0 14 6 22 14 9 8 28 17 43 20 15 2 32 7 38 11 21 13 147 13 223
0 148 -25 312 -128 385 -242 41 -65 72 -142 96 -244 3 -9 7 -40 11 -70 3 -30
9 -67 12 -84 3 -16 5 -38 5 -47 -1 -14 8 -18 41 -18 54 -1 2999 -1 3010 0 7 0
5 56 -9 200 -2 25 -6 68 -8 95 -3 28 -7 61 -10 75 -3 14 -7 43 -10 65 -6 47
-14 90 -22 125 -3 14 -8 39 -11 55 -5 34 -24 109 -53 205 -18 62 -21 71 -27
103 -3 15 -9 27 -12 27 -4 0 -8 6 -8 13 0 6 -17 54 -37 104 -20 51 -36 94 -36
97 0 2 -12 25 -27 52 -15 27 -28 54 -29 59 -5 30 -139 250 -221 362 -129 176
-368 422 -497 513 -12 8 -30 22 -40 32 -31 29 -254 178 -265 178 -6 0 -11 5
-11 10 0 6 -7 10 -15 10 -8 0 -15 3 -15 8 0 4 -10 12 -23 18 -12 6 -79 41
-149 77 -71 37 -128 64 -128 60 0 -5 -4 -3 -8 3 -6 8 -58 31 -227 99 -11 5
-22 9 -25 10 -30 7 -88 30 -97 38 -7 5 -13 6 -13 2 0 -4 -7 -2 -15 5 -8 7 -15
10 -15 6 0 -3 -12 -1 -27 5 -16 6 -35 12 -43 15 -8 2 -31 8 -50 13 -68 19
-225 60 -250 65 -109 24 -181 38 -210 41 -14 2 -25 4 -25 5 0 2 -13 4 -30 5
-16 2 -30 4 -30 5 0 1 -13 3 -30 5 -16 2 -50 6 -75 10 -25 4 -54 9 -65 10 -11
1 -20 3 -20 4 0 1 -25 3 -55 5 -66 5 -203 17 -245 23 -36 5 -711 13 -716 9z"/>
</g>
</svg>
