<svg width="127" height="30" fill="none" xmlns="http://www.w3.org/2000/svg"><path d="M22.88 20.24c0-8.72-13.16-8.12-13.16-11.68 0-.96.56-1.44 1.28-1.44.96 0 1.88.52 1.96 2.24h9.56C22.28 3.48 17.88.2 11.04.2 5 .2.2 3.16.2 8.84c-.16 9.68 13.2 8.28 13.24 12.12 0 1-.84 1.4-1.72 1.4s-2-.36-2.16-2.44H.12c.4 6.36 5.48 9.36 11.96 9.36 6.84 0 10.8-3.84 10.8-9.04ZM44.88.68H26V29h18.88v-7.08h-10v-4h8.8v-6.68h-8.8V7.76h10V.68ZM48.227.68V29h17.44v-6.72h-8.56V.68h-8.88ZM68.46.68V29H85.9v-6.72h-8.56V.68h-8.88ZM117.015 14.72c0-8.52-6.44-14.52-14.52-14.52-8.04 0-14.6 6-14.6 14.52s6.56 14.56 14.6 14.56c8 0 14.52-6.04 14.52-14.56Zm-20.08 0c0-3.84 1.92-6.32 5.56-6.32 3.56 0 5.52 2.48 5.52 6.32 0 3.76-1.96 6.28-5.52 6.28-3.64 0-5.56-2.52-5.56-6.28Z" fill="#222"/><path d="M119 19a8 8 0 1 0 0-16 8 8 0 0 0 0 16Z" fill="#FF2600"/><path d="M119 17.5a6.5 6.5 0 1 0 0-13 6.5 6.5 0 0 0 0 13Z" stroke="#fff" stroke-width="3"/></svg>