<svg xmlns="http://www.w3.org/2000/svg" width="853.503" height="562"><g transform="translate(-213.497 -4919)" opacity=".37"><path d="M469.541 5062.244c-.76 74.633 25.1 72.015 80.033 88.974 71.255 21.993 78.609 261.373-20.69 274.194-51.922 6.7-64.607-63.956-106.028-14.246-50.2 60.239-124.14 36.5-119.283-33.823 2.374-34.407 12.441-67.728-28.939-69.207-73.819-2.632-90.833-107.493 9.158-139.96 78.351-25.439 49.751-74.077 43.076-114.3-16.281-98.027 143.812-103.111 142.673 8.368z" fill="none" stroke="#27debf" stroke-miterlimit="10" opacity=".5"/><circle cx="43.5" cy="43.5" r="43.5" transform="translate(433 5369)" fill="#27debf" opacity=".22"/><circle cx="43.5" cy="43.5" r="43.5" transform="translate(980 5287)" fill="#27debf" opacity=".06"/><g transform="translate(791 5442)" fill="none" stroke="#27debf" stroke-width="9" opacity=".22"><circle cx="19.5" cy="19.5" r="19.5" stroke="none"/><circle cx="19.5" cy="19.5" r="15"/></g><g transform="translate(972 5008)" fill="none" stroke="#27debf" stroke-width="9" opacity=".22"><circle cx="19.5" cy="19.5" r="19.5" stroke="none"/><circle cx="19.5" cy="19.5" r="15"/></g><g transform="translate(623 4919)" fill="none" stroke="#ffe7cc" stroke-width="9" opacity=".22"><circle cx="19.5" cy="19.5" r="19.5" stroke="none"/><circle cx="19.5" cy="19.5" r="15"/></g></g></svg>