<svg xmlns="http://www.w3.org/2000/svg" width="1518.081" height="1095.495"><g data-name="Сгруппировать 358" transform="translate(101.503 231.257)"><path data-name="Контур 27" d="M789.458 341.244c14.734 73.168 31.612 115.05 86.559 132.009 71.255 21.993 71.961 157.407-27.338 170.228-51.922 6.7-87.251-5.861-115.62 29.346-50.592 62.8-89.313 15.345-96.5-13.744-26.596-107.546-89.318-78.377-136.477-137.771-27.772-34.963-.611-74.959 51.067-84.266 78.921-14.2 97.467-60.239 103.776-82.326 15.236-53.323 119.799-86.658 134.533-13.476z" fill="none" stroke="#27debf" stroke-miterlimit="10" opacity=".5"/><path data-name="Контур 6" d="M154.541 300.244c-.76 74.633 25.1 72.015 80.033 88.974 71.255 21.993 78.609 261.373-20.69 274.194-51.922 6.7-64.607-63.956-106.028-14.246-50.2 60.239-124.14 36.5-119.283-33.823 2.374-34.407 12.441-67.728-28.939-69.207-73.819-2.632-90.833-107.493 9.158-139.96 78.351-25.439 49.751-74.077 43.076-114.3-16.281-98.027 143.812-103.111 142.673 8.368z" fill="none" stroke="#27debf" stroke-miterlimit="10" opacity=".5"/><path data-name="Контур 1" d="M1291.036 706.617s-72.139 122.004-279.962 94.596-251.329-69.168-238.127-195.793 136.66-143.45-29.704-281.486S232.74 89.391 622.633-99.755s694.33-73.27 718.094 151.918-49.69 654.454-49.69 654.454z" fill="#ffe7cc" opacity=".5"/><circle data-name="Эллипс 5" cx="43.5" cy="43.5" r="43.5" transform="translate(118 607)" fill="#27debf" opacity=".22"/><g data-name="Эллипс 13" transform="translate(1213 779)" fill="none" stroke="#27debf" stroke-width="9" opacity=".22"><circle cx="19.5" cy="19.5" r="19.5" stroke="none"/><circle cx="19.5" cy="19.5" r="15"/></g><g data-name="Эллипс 9" transform="translate(467 267)" fill="none" stroke="#27debf" stroke-width="9" opacity=".22"><circle cx="19.5" cy="19.5" r="19.5" stroke="none"/><circle cx="19.5" cy="19.5" r="15"/></g><g data-name="Эллипс 11" transform="translate(1014 185)" fill="none" stroke="#27debf" stroke-width="9" opacity=".22"><circle cx="19.5" cy="19.5" r="19.5" stroke="none"/><circle cx="19.5" cy="19.5" r="15"/></g><g data-name="Эллипс 14" transform="translate(1204 426)" fill="none" stroke="#27debf" stroke-width="9" opacity=".22"><circle cx="19.5" cy="19.5" r="19.5" stroke="none"/><circle cx="19.5" cy="19.5" r="15"/></g></g></svg>