<svg xmlns="http://www.w3.org/2000/svg" viewBox="0 0 426 395.147"><g data-name="2905211"><path d="M62.389 366.665c83.177 37.975 218.041 37.975 301.227 0s83.177-99.55 0-137.525-218.051-37.975-301.227 0-83.186 99.55 0 137.525z" fill="#27debf"/><ellipse cx="40.75" cy="23.523" rx="40.75" ry="23.523" fill="#e0e0e0" transform="translate(323.866 281.236)"/><path d="M103.353 98.059c-3.988 2.308-7.239 8.495-7.239 13.824 0 4.744 2.588 7.2 5.966 6.051v100.7l-36.7-77.011a6.511 6.511 0 01-.076-4.7 235.013 235.013 0 0018.44-70.392 5.629 5.629 0 012.461-3.87l34.284-19.8a1.545 1.545 0 012.495 1.281c2.3 21.444 8.868 37.356 17.761 48.057a5.265 5.265 0 01.942 4.421c-5.16 16.768-34.895 113.476-37.059 120.536V116.459a18 18 0 005.966-12.933c-.011-5.342-3.244-7.778-7.241-5.467z" fill="#27debf"/><path d="M158.479 106.313l-37.058 120.536-2.529-1.468v2.936l-16.811-9.691-36.7-77.011a6.511 6.511 0 01-.076-4.7 235.013 235.013 0 0018.44-70.392 5.629 5.629 0 012.461-3.87l34.284-19.8a4.943 4.943 0 014.472 0l12.322 7.111a5.684 5.684 0 012.495 3.861c2.3 21.453 8.868 37.364 17.761 48.065a5.242 5.242 0 01.939 4.423z" fill="#27debf"/><path d="M127.386 113.212a17.972 17.972 0 01-5.966 12.933v100.7l-2.529-1.468v-97.764c-3.394 1.154-5.966-1.29-5.966-6.034 0-5.329 3.233-11.524 7.239-13.832 3.989-2.308 7.222.144 7.222 5.465z" opacity=".15"/><path d="M158.478 106.313L121.42 226.849v-100.7a17.957 17.957 0 005.966-12.933c0-5.321-3.233-7.773-7.222-5.465s-7.239 8.495-7.239 13.832c0 4.744 2.571 7.2 5.966 6.034v100.7L82.18 151.323a6.467 6.467 0 01-.076-4.7 235.01 235.01 0 0018.449-70.4 5.63 5.63 0 012.461-3.87l34.275-19.789a1.538 1.538 0 012.486 1.281c2.3 21.453 8.868 37.364 17.761 48.065a5.217 5.217 0 01.942 4.403z" fill="#27debf"/><path d="M101.24 74.239a4.949 4.949 0 00-.7 1.977 234.758 234.758 0 01-18.449 70.4 6.215 6.215 0 00-.39 2.571l-16.794-9.7a6.319 6.319 0 01.39-2.588 234.51 234.51 0 0018.44-70.392 4.919 4.919 0 01.7-1.986z" fill="#455a64" opacity=".25"/><path d="M139.716 53.471a1.493 1.493 0 00-2.419-.916l-34.284 19.8a5.087 5.087 0 00-1.768 1.89l-16.794-9.708a5.319 5.319 0 011.757-1.884l34.284-19.8a4.979 4.979 0 014.489 0l12.313 7.111a5.72 5.72 0 012.422 3.507z" fill="#455a64" opacity=".15"/><path d="M76.206 31.908l54.3-31.356a4.944 4.944 0 014.472 0l12.322 7.12a4.946 4.946 0 012.24 3.878v23.922a4.946 4.946 0 01-2.24 3.878L93 70.706a4.944 4.944 0 01-4.472 0l-12.322-7.12a4.946 4.946 0 01-2.24-3.878V35.786a4.946 4.946 0 012.24-3.878z" fill="#27debf"/><path d="M149.526 11.185c-.153-1.154-1.095-1.578-2.223-.933L93.009 41.599a4.42 4.42 0 00-1.578 1.672l-16.811-9.7a4.592 4.592 0 011.6-1.672L130.514.535a4.944 4.944 0 014.472 0L147.3 7.65a5.07 5.07 0 012.226 3.535z" fill="#fff" opacity=".4"/><path d="M92.644 70.876c-.017.008-.034.008-.051.017-.042.008-.085.034-.136.042a.433.433 0 01-.144.059.712.712 0 01-.221.059c-.085.017-.178.042-.272.059-.051.008-.11.017-.187.034-.127.017-.255.042-.382.051a4.731 4.731 0 01-2.732-.509l-12.321-7.11a4.946 4.946 0 01-2.24-3.878V35.769a4.5 4.5 0 01.653-2.2l16.811 9.7a4.454 4.454 0 00-.662 2.2V69.4c0 1.01.509 1.6 1.239 1.6a1.125 1.125 0 00.323-.042 1.213 1.213 0 00.322-.082zm26.247 157.433l-16.811-9.691-36.694-77a5.778 5.778 0 01-.475-2.122l16.794 9.7a5.733 5.733 0 00.475 2.13zm2.53-102.164v100.7l-2.529-1.468v-97.763c-3.394 1.154-5.966-1.29-5.966-6.034 0-.11 0-.221.008-.331z" opacity=".15"/><g transform="translate(24.849 93.44)" fill="#455a64"><path d="M174.193 3.751c0-2.733-1.918-3.844-4.285-2.478a9.475 9.475 0 00-4.285 7.425c0 2.215 1.264 3.335 3 2.97-2.419 50.585-37.822 110.2-81.016 135.132-21.461 12.39-41.582 14.426-56.653 5.728-14.231-8.215-22.42-25.127-23.286-47.861a9.594 9.594 0 003.063-6.492c0-2.733-1.918-3.844-4.285-2.478a9.475 9.475 0 00-4.285 7.425c0 2.334 1.4 3.471 3.284 2.9 1.154 22.9 9.708 40 24.372 48.472a43.131 43.131 0 0021.86 5.626c11.4 0 24.016-3.81 37.076-11.346 44.187-25.509 80.337-86.8 82.213-138.374a9.675 9.675 0 003.227-6.649z"/><path d="M169.907 95.859a9.6 9.6 0 00-4.116 6.017L10.505 191.531c-.552-1.68-2.155-2.206-4.065-1.1a9.476 9.476 0 00-4.285 7.425c0 2.733 1.918 3.844 4.285 2.478a9.627 9.627 0 004.167-6.22l155.185-89.6c.5 1.8 2.147 2.393 4.116 1.256a9.475 9.475 0 004.285-7.425c0-2.741-1.918-3.853-4.286-2.486zm-157.475 4.725a6.1 6.1 0 11-6.1-6.1 6.1 6.1 0 016.1 6.1z"/><circle cx="6.101" cy="6.101" r="6.101" transform="translate(0 189.154)"/><path d="M176.346 100.975a6.1 6.1 0 11-6.1-6.1 6.1 6.1 0 016.1 6.1zm-.557-94.874a6.1 6.1 0 11-6.1-6.1 6.1 6.1 0 016.1 6.1z"/></g><path d="M289.234 318.075c-1.256 2.775-5.864 3.42-8.537 3.5-4.073.136-7.824-1.7-11.439-3.344-2.546-1.154-5.015-2.478-7.527-3.717a35.955 35.955 0 00-7.731-3.267c-3.25-.73-8.961-1.086-10.09 3.047-1.222 4.464 4.9 8.214 7.79 10.361 2.809 2.088 6.848 4.506 8.257 7.918 1.714 4.15-3.921 5.457-6.891 5.618-8.435.45-16.726-2.317-24.482-5.338-11.125-4.336-22.2-9.089-33.842-11.9-9.734-2.351-24.89-4.684-30.516 6.152-.11.212.238.619.382.373 6.1-10.014 20.07-7.943 29.684-5.618 11.77 2.843 22.938 7.68 34.19 12.042 7.527 2.911 15.428 5.448 23.583 5.3 3.725-.068 11.244-1.646 8.919-7.052-1.205-2.809-4.073-4.888-6.415-6.687-2.885-2.215-6.152-4.26-8.427-7.154-1.451-1.841-1.909-4.532.569-5.821 2.113-1.095 5.032-.721 7.247-.178 3.394.832 6.611 2.792 9.717 4.362 2.868 1.443 5.754 2.834 8.724 4.065a18.977 18.977 0 0010.608 1.587c2.452-.407 6.1-1.3 7.111-3.9.2-.518-.67-.832-.883-.356z" fill="#263238"/><path d="M348.425 147.387c-4.345 5.193-11.516 12.2-15.589 17.312a14.836 14.836 0 00-3.3 9.437c.034 2.546.73 4.667 3.216 3.581 1.8-.781 2.936-1.714 5.558-4.3 2.359-2.325 13.764-13.018 13.764-13.018s2.139-13.136 5.66-14.206 6.526-6.7 6.526-6.7c-5.745-.576-10.328 1.308-15.835 7.894z" fill="#9a4a4d"/><path d="M285.967 289.536c.008-.034.025-.068.034-.1L339.4 91.403c.008-.008.008-.008.008-.017l.017-.051c.017-.042.026-.093.051-.144a3 3 0 01.382-.8 4.692 4.692 0 01.611-.772 6.867 6.867 0 013.182-1.68 17.048 17.048 0 0114.889 4.024 6.138 6.138 0 012.045 4.073 3.579 3.579 0 01-.127 1.052l-52.885 196.114-.552 2.054h-.008v.008c-.4 1.536-1.85 2.783-4.2 3.428-4.769 1.256-11.448-.543-14.91-4.022-1.741-1.74-2.36-3.581-1.936-5.134z" fill="#e6e6e6"/><path d="M287.758 317.744l1.341-5.321a.875.875 0 01.7-.6 2.836 2.836 0 012.453.662.889.889 0 01.314.849l-1.324 5.312a1.856 1.856 0 01-.458.772 1.8 1.8 0 01-2.554-.009 1.768 1.768 0 01-.472-1.665z" fill="#455a64"/><path d="M287.716 318.093v-.017c.009-.1.017-.212.034-.314.008-.008 0-.017.008-.017.39 1.095 2.529 1.807 3.445 1.01a.36.36 0 01-.034.1.852.852 0 01-.034.093 1.529 1.529 0 01-.339.475 1.8 1.8 0 01-2.554-.017 1.691 1.691 0 01-.526-1.313z" fill="#263238"/><path d="M287.706 308.002a9.719 9.719 0 008.5 2.3 3.52 3.52 0 002.147-1.366l7.892-12.228a6.632 6.632 0 01-3.454 1.994 17.086 17.086 0 01-14.91-4.022 6.5 6.5 0 01-2-3.6l.645 14.52c0 .093.009.2.017.289a3.671 3.671 0 001.163 2.113z" fill="#e0e0e0"/><path d="M288.23 301.603a12.115 12.115 0 0010.557 2.851 3.816 3.816 0 002.979-2.427c.322-1.1-.085-2.4-1.332-3.657a12.02 12.02 0 00-10.54-2.86c-1.7.45-2.733 1.349-3.013 2.461a3.811 3.811 0 001.349 3.632z" opacity=".1"/><path d="M287.706 308.002a9.719 9.719 0 008.5 2.3 3.52 3.52 0 002.147-1.366l7.892-12.228a6.632 6.632 0 01-3.454 1.994 17.086 17.086 0 01-14.91-4.022 6.5 6.5 0 01-2-3.6l.645 14.52c0 .093.009.2.017.289a3.671 3.671 0 001.163 2.113z" fill="#e0e0e0"/><path d="M287.429 312.253h-.017l-.594-13.247a2.507 2.507 0 01-.017-.356c0-1.4 1.078-2.588 3.1-3.123a12.044 12.044 0 0110.514 2.843c1.417 1.426 1.765 2.928 1.171 4.124a.765.765 0 00-.042.076l-.2.305-7.264 11.244h-.008a2 2 0 01-1.214.781 5.475 5.475 0 01-4.786-1.3 1.943 1.943 0 01-.643-1.347z" fill="#27debf"/><path d="M287.429 312.253h-.017l-.594-13.247a2.507 2.507 0 01-.017-.356c0-1.4 1.078-2.588 3.1-3.123a12.044 12.044 0 0110.514 2.843c1.417 1.426 1.765 2.928 1.171 4.124a.765.765 0 00-.042.076l-.2.305-7.264 11.244h-.008a2 2 0 01-1.214.781 5.475 5.475 0 01-4.786-1.3 1.943 1.943 0 01-.643-1.347z" opacity=".1"/><path d="M288.23 301.603a12.115 12.115 0 0010.557 2.851 3.816 3.816 0 002.979-2.427c.322-1.1-.085-2.4-1.332-3.657a12.02 12.02 0 00-10.54-2.86c-1.7.45-2.733 1.349-3.013 2.461a3.811 3.811 0 001.349 3.632z" fill="#27debf"/><path d="M288.23 301.603a12.115 12.115 0 0010.557 2.851 3.816 3.816 0 002.979-2.427c.322-1.1-.085-2.4-1.332-3.657a12.02 12.02 0 00-10.54-2.86c-1.7.45-2.733 1.349-3.013 2.461a3.811 3.811 0 001.349 3.632z" fill="#27debf"/><path d="M286.875 297.98a3.461 3.461 0 012.283-2.223 17.816 17.816 0 0011.83 3.259 3.378 3.378 0 01.781 3.021c-.289 1.086-1.307 1.969-2.979 2.427a12.089 12.089 0 01-10.559-2.847 3.851 3.851 0 01-1.356-3.637z" opacity=".05"/><path d="M288.069 313.603a5.488 5.488 0 004.795 1.29 2.007 2.007 0 001.205-.781h.017l3.5-5.431a3.414 3.414 0 01-1.757 1 8.811 8.811 0 01-7.68-2.062 3.28 3.28 0 01-1.027-1.85l.289 6.492h.017a1.858 1.858 0 00.641 1.342z" fill="#27debf"/><path d="M340.26 115.589a1.909 1.909 0 011.5-1.23 6.025 6.025 0 015.261 1.426 1.9 1.9 0 01.679 1.824l-8.7 32.128a2.031 2.031 0 00-.713-1.621 6.068 6.068 0 00-5.3-1.434 1.986 1.986 0 00-1.451 1.086z" fill="#fafafa"/><path d="M340.939 117.403a6.049 6.049 0 005.27 1.426 1.908 1.908 0 001.485-1.213 1.865 1.865 0 00-.67-1.824 5.982 5.982 0 00-5.261-1.426 1.882 1.882 0 00-1.5 1.23 1.921 1.921 0 00.676 1.807z" fill="#e0e0e0"/><path d="M337.867 101.298l.025-.093c.008-.042.025-.093.034-.136l2.5-9.233.076-.3.017-.068h.008c.45-1.3 1.714-2.368 3.742-2.9a15.337 15.337 0 0113.391 3.624c1.57 1.578 2.113 3.233 1.723 4.642l-2.537 9.394c-.009.025-.009.042-.017.068l-.017.076c-.416 1.349-1.706 2.452-3.785 3a15.337 15.337 0 01-13.391-3.624c-1.505-1.504-2.066-3.092-1.769-4.45z" fill="#27debf"/><path d="M337.867 101.298l.025-.093c.008-.042.025-.093.034-.136l2.5-9.233.076-.3.017-.068h.008c.45-1.3 1.714-2.368 3.742-2.9a15.337 15.337 0 0113.391 3.624c1.57 1.578 2.113 3.233 1.723 4.642l-2.537 9.394c-.009.025-.009.042-.017.068l-.017.076c-.416 1.349-1.706 2.452-3.785 3a15.337 15.337 0 01-13.391-3.624c-1.505-1.504-2.066-3.092-1.769-4.45z" opacity=".05"/><path d="M290.685 299.082l3.624-13.391 37.059-137.678a.041.041 0 01.017-.051l.076-.288a2.006 2.006 0 011.451-1.086 6.087 6.087 0 015.3 1.434 2.02 2.02 0 01.713 1.621.012.012 0 010 .017l-.1.365-37.074 137.669-3.615 13.408a1.909 1.909 0 01-1.485 1.214 6.044 6.044 0 01-4.014-.543c-.178-.085-.331-.178-.492-.272a4.2 4.2 0 01-.764-.6 1.939 1.939 0 01-.696-1.819z" fill="#455a64"/><path d="M332.114 149.635a6.05 6.05 0 005.27 1.426 1.908 1.908 0 001.485-1.214 1.865 1.865 0 00-.67-1.824 5.989 5.989 0 00-5.261-1.426 1.882 1.882 0 00-1.5 1.23 1.9 1.9 0 00.676 1.808zm-41.429 149.45l.552-2.028a18.572 18.572 0 007.451 2.011l-.552 2.037a1.908 1.908 0 01-1.485 1.213 6.043 6.043 0 01-4.014-.543 4.6 4.6 0 01-1.256-.874 1.939 1.939 0 01-.696-1.816z" fill="#263238"/><path d="M341.313 96.562c3.462 3.479 10.141 5.278 14.91 4.022 2.351-.636 3.8-1.884 4.2-3.428.458-1.553-.127-3.394-1.884-5.168-3.445-3.5-10.124-5.3-14.885-4.039-2.393.636-3.861 1.909-4.26 3.479-.426 1.563.196 3.404 1.919 5.134z" fill="#e0e0e0"/><path d="M341.601 95.518c3.462 3.479 10.141 5.278 14.91 4.022 2.351-.636 3.8-1.884 4.2-3.428l.025-.068.569-2.054c.009-.051.017-.076.025-.119.025-.11.042-.212.059-.331a2.674 2.674 0 00.034-.45c0-.093 0-.187-.009-.289a.054.054 0 000-.051c-.008-.085-.017-.187-.034-.289a4.581 4.581 0 00-.356-1.264 4.325 4.325 0 00-.17-.356.716.716 0 00-.093-.178 1.8 1.8 0 00-.178-.305 7.605 7.605 0 00-1.205-1.5 17.036 17.036 0 00-14.876-4.031 6.906 6.906 0 00-3.185 1.691l-.017.017a4.1 4.1 0 00-.314.356l-.263.365c-.051.076-.093.161-.136.238l-.085.144a2.039 2.039 0 00-.127.314l-.025.068c-.034.1-.076.2-.1.314l-.492 1.791a1.188 1.188 0 00-.076.246c-.423 1.575.196 3.417 1.919 5.147z" fill="#27debf"/><path d="M342.187 93.457a17.094 17.094 0 0014.9 4.022c2.351-.636 3.8-1.884 4.2-3.42.458-1.553-.127-3.394-1.884-5.168-3.445-3.5-10.115-5.3-14.885-4.039-2.393.636-3.853 1.909-4.26 3.479-.413 1.545.206 3.395 1.929 5.126z" fill="#fff" opacity=".3"/><path d="M369.121 134.7a17.049 17.049 0 0017.048-17.049v-.942a14.443 14.443 0 00-14.443-14.443h-5.193a14.443 14.443 0 00-14.443 14.443v.942a17.029 17.029 0 0017.031 17.049z" fill="#263238"/><path d="M393.086 136.431a7.736 7.736 0 01-7.739-7.739v-15.394a7.736 7.736 0 017.739 7.739zm-41.505 166.878a45.391 45.391 0 01-6.5 5.66 2.777 2.777 0 00-.9.933c-.306.636-.781 2.215 2.122 3.233a10.83 10.83 0 008.97-.857c2.385-1.494 2.495-4.608 4.752-6.382 1.672-1.315 3.759-1.655 5.109-3.369.942-1.2.7-2.783.2-4.752-.535-2.147-.781-3.776-1.494-3.615l.119.993c-.891 1.417-5.491 1.833-7.536.857-.005-.007-3.553 5.882-4.842 7.299z" fill="#263238"/><path d="M349.561 305.321v-.019a37.53 37.53 0 002.02-1.994 56.18 56.18 0 003.759-5.533 8.446 8.446 0 001.6-4.048c.051-1.9-.136-5.287-.136-5.287l6.814-.45.331 7.154c.178 1.621-1.163 3.063-3.539 5.1s-5.389 6.814-7.536 8.011-3.683 1.154-4.6.543c-.928-.635-1.021-1.118 1.287-3.477z" fill="#b16668"/><path d="M374.282 310.124a45.388 45.388 0 01-6.5 5.66 2.778 2.778 0 00-.9.933c-.305.636-.781 2.215 2.122 3.233a10.83 10.83 0 008.97-.857c2.385-1.494 2.495-4.608 4.752-6.382 1.672-1.315 3.759-1.655 5.109-3.369.942-1.2.7-2.783.2-4.752-.535-2.147-.781-3.776-1.494-3.615l.119.993c-.891 1.417-5.49 1.833-7.536.857-.015-.007-3.554 5.882-4.842 7.299z" fill="#263238"/><path d="M372.261 312.134v-.017a37.53 37.53 0 002.02-1.994 56.177 56.177 0 003.759-5.533 9.6 9.6 0 001.6-4.116c.119-1.672.034-5.143.034-5.143l6.814.034.17 6.594c.178 1.621-1.163 3.055-3.539 5.1s-5.389 6.814-7.536 8.011-3.683 1.154-4.6.543c-.945-.636-1.038-1.121 1.278-3.479z" fill="#b16668"/><path d="M386.561 184.92c5.94 12.975-.815 62.169-.815 62.169.178 2.1 2.037 5.38 2.249 11.813.28 8.257-1.188 38.739-1.188 38.739a8.616 8.616 0 01-7.773.153s-7.035-41.386-8.41-52.266c-1.2-9.5-3.5-31.831-3.5-31.831l-4.727 31.78a30.715 30.715 0 012.554 10.1c.17 6.432-.781 36.278-.781 36.278a18.009 18.009 0 01-7.9.272s-7.154-40.394-7.833-48.1c-.4-4.6 3.038-61.049 3.038-61.049z" fill="#37474f"/><path d="M367.136 213.688l-1.926-10.608s-8.155-1.689-11.864-5.168a21.058 21.058 0 009.649 6.407l2.164 9.275-2.138 27.732z" fill="#263238"/><path d="M374.968 139.8c5.21.721 8.011 1.867 9.691 6.772a19.063 19.063 0 01-.305 11.125l-4.557 13.315a71.352 71.352 0 016.763 13.917c-13.315 7.434-31.067 3.479-35.073-1.943-.17-1.154.908-6.712.585-12.619-.348-6.3-1.358-13.518-.365-17.4 1.833-7.222 6.874-11.931 12.551-13.459z" fill="#f5f5f5"/><path d="M357.683 109.157c-1.8 1.061-4.022 5.592-3.81 15.088.187 8.045 2.792 10.031 4.107 10.608s3.836.221 6.288-.187v4.829s-3.395 3.938-3.182 6.152 4.9 2.741 8.079.577a20.585 20.585 0 005.211-5.457v-11.668a3.083 3.083 0 004.37.416c2.707-1.8 2.817-6.254 1.239-7.858s-4.973-1.095-5.609 1.12c0 0-3.912.144-9.131-2.724a14.673 14.673 0 01-7.562-10.896z" fill="#b16668"/><path d="M362.859 122.225a1.012 1.012 0 101.061-1 1.029 1.029 0 00-1.061 1z" fill="#263238"/><path d="M362.588 129.04l-2.351.747a1.209 1.209 0 001.528.84 1.281 1.281 0 00.823-1.587z" fill="#9a4a4d"/><path d="M354.56 119.119l2.045-1.417a1.193 1.193 0 00-1.7-.348 1.3 1.3 0 00-.345 1.765zm.475 2.376a1.012 1.012 0 101.061-1 1.029 1.029 0 00-1.061 1z" fill="#263238"/><path d="M359.803 120.91l-.161 6.093-3.2-.993zm4.465 13.754c2.588-.339 7.909-1.867 8.741-3.971a5.456 5.456 0 01-1.867 2.682c-1.587 1.366-6.874 2.9-6.874 2.9v-1.611z" fill="#9a4a4d"/><path d="M323.322 179.005c1.578.594 3.165.636 5.329 1.655a10.133 10.133 0 004.659 1.332c2.122.1 8.053-2.427 13.272-4.854a55.059 55.059 0 0015.215-10.888 110.34 110.34 0 0011.728-16.862c1.858-3.182 3.768-7.8 6.7-8.376 5.126.535 7.213 9.47 3.887 14.986a103.467 103.467 0 01-15.546 18.848c-3.055 2.962-8.656 6.178-16.675 9.606a108.675 108.675 0 01-16.191 5.575c-1.6.416-2.741 1.018-5.754 2.054a13.411 13.411 0 01-3.819.95 17.008 17.008 0 01-4.854-.518 11.58 11.58 0 01-5.312-3 7.187 7.187 0 01-1.774-2.86 4.823 4.823 0 01.11-3.327 1.313 1.313 0 01.39-.56 1.624 1.624 0 011.205-.144 68.947 68.947 0 007.018 1.12c1.952.076 3.335-.144 3.089-.441s-1.392-.272-2.877-1.1c-1.409-.8-2.325-2.427-1.808-3.182s.421-.608 2.008-.014zm-.067-21.376s2.122-1.689 6.152-1.027c1.952.322 1.205 7.7-5.066 9.759-4.082 1.341-4.913.645-6.229 4.005 0 0-2.461-.509-1.867-4.268a21.015 21.015 0 014.973-10.4c1.8-2.122 1.918-3.912 2.8-3.31 1 .687.39 2.436.39 2.436z" fill="#b16668"/></g></svg>