<svg xmlns="http://www.w3.org/2000/svg" viewBox="0 0 160.908 188.973"><path d="M157.166 0h3.742v2.807h-3.742zm-12.162 0h2.807v2.807h-2.807zm-12.162 0h2.807v2.807h-2.807zm-12.161 0h3.742v2.807h-3.742zm-11.226 0h2.807v2.807h-2.807zM97.293 0h3.742v2.807h-3.742zM85.131 0h3.742v2.807h-3.742zM72.97 0h3.742v2.807H72.97zM60.808 0h3.742v2.807h-3.742zM49.582 0h1.871v2.807h-1.871zM37.42 0h1.871v2.807H37.42zM25.259 0h2.807v2.807h-2.807zM12.162 0h3.742v2.807h-3.742zM0 0h3.742v2.807H0zm157.166 47.711h3.742v3.742h-3.742zm-12.162 0h2.807v3.742h-2.807zm-12.162 0h2.807v3.742h-2.807zm-12.161 0h3.742v3.742h-3.742zm-11.226 0h2.807v3.742h-2.807zm-12.162 0h3.742v3.742h-3.742zm-12.162 0h3.742v3.742h-3.742zm-12.161 0h3.742v3.742H72.97zm-12.162 0h3.742v3.742h-3.742zm-11.226 0h1.871v3.742h-1.871zm-12.162 0h1.871v3.742H37.42zm-12.161 0h2.807v3.742h-2.807zm-13.097 0h3.742v3.742h-3.742zM0 47.711h3.742v3.742H0zm157.166 49.582h3.742v3.742h-3.742zm-12.162 0h2.807v3.742h-2.807zm-12.162 0h2.807v3.742h-2.807zm-12.161 0h3.742v3.742h-3.742zm-11.226 0h2.807v3.742h-2.807zm-12.162 0h3.742v3.742h-3.742zm-12.162 0h3.742v3.742h-3.742zm-12.161 0h3.742v3.742H72.97zm-12.162 0h3.742v3.742h-3.742zm-11.226 0h1.871v3.742h-1.871zm-12.162 0h1.871v3.742H37.42zm-12.161 0h2.807v3.742h-2.807zm-13.097 0h3.742v3.742h-3.742zM0 97.293h3.742v3.742H0zm157.166 48.646h3.742v3.742h-3.742zm-12.162 0h2.807v3.742h-2.807zm-12.162 0h2.807v3.742h-2.807zm-12.161 0h3.742v3.742h-3.742zm-11.226 0h2.807v3.742h-2.807zm-12.162 0h3.742v3.742h-3.742zm-12.162 0h3.742v3.742h-3.742zm-12.161 0h3.742v3.742H72.97zm-12.162 0h3.742v3.742h-3.742zm-11.226 0h1.871v3.742h-1.871zm-12.162 0h1.871v3.742H37.42zm-12.161 0h2.807v3.742h-2.807zm-13.097 0h3.742v3.742h-3.742zm-12.162 0h3.742v3.742H0zM157.166 9.355h3.742v2.807h-3.742zm-12.162 0h2.807v2.807h-2.807zm-12.162 0h2.807v2.807h-2.807zm-12.161 0h3.742v2.807h-3.742zm-11.226 0h2.807v2.807h-2.807zm-12.162 0h3.742v2.807h-3.742zm-12.162 0h3.742v2.807h-3.742zm-12.161 0h3.742v2.807H72.97zm-12.162 0h3.742v2.807h-3.742zm-11.226 0h1.871v2.807h-1.871zm-12.162 0h1.871v2.807H37.42zm-12.161 0h2.807v2.807h-2.807zm-13.097 0h3.742v2.807h-3.742zM0 9.355h3.742v2.807H0zm157.166 49.582h3.742v1.871h-3.742zm-12.162 0h2.807v1.871h-2.807zm-12.162 0h2.807v1.871h-2.807zm-12.161 0h3.742v1.871h-3.742zm-11.226 0h2.807v1.871h-2.807zm-12.162 0h3.742v1.871h-3.742zm-12.162 0h3.742v1.871h-3.742zm-12.161 0h3.742v1.871H72.97zm-12.162 0h3.742v1.871h-3.742zm-11.226 0h1.871v1.871h-1.871zm-12.162 0h1.871v1.871H37.42zm-12.161 0h2.807v1.871h-2.807zm-13.097 0h3.742v1.871h-3.742zM0 58.937h3.742v1.871H0zm157.166 47.711h3.742v4.678h-3.742zm-12.162 0h2.807v4.678h-2.807zm-12.162 0h2.807v4.678h-2.807zm-12.161 0h3.742v4.678h-3.742zm-11.226 0h2.807v4.678h-2.807zm-12.162 0h3.742v4.678h-3.742zm-12.162 0h3.742v4.678h-3.742zm-12.161 0h3.742v4.678H72.97zm-12.162 0h3.742v4.678h-3.742zm-11.226 0h1.871v4.678h-1.871zm-12.162 0h1.871v4.678H37.42zm-12.161 0h2.807v4.678h-2.807zm-13.097 0h3.742v4.678h-3.742zm-12.162 0h3.742v4.678H0zm157.166 49.582h3.742v2.807h-3.742zm-12.162 0h2.807v2.807h-2.807zm-12.162 0h2.807v2.807h-2.807zm-12.161 0h3.742v2.807h-3.742zm-11.226 0h2.807v2.807h-2.807zm-12.162 0h3.742v2.807h-3.742zm-12.162 0h3.742v2.807h-3.742zm-12.161 0h3.742v2.807H72.97zm-12.162 0h3.742v2.807h-3.742zm-11.226 0h1.871v2.807h-1.871zm-12.162 0h1.871v2.807H37.42zm-12.161 0h2.807v2.807h-2.807zm-13.097 0h3.742v2.807h-3.742zM0 156.23h3.742v2.807H0zM157.166 19.646h3.742v2.807h-3.742zm-12.162 0h2.807v2.807h-2.807zm-12.162 0h2.807v2.807h-2.807zm-12.161 0h3.742v2.807h-3.742zm-11.226 0h2.807v2.807h-2.807zm-12.162 0h3.742v2.807h-3.742zm-12.162 0h3.742v2.807h-3.742zm-12.161 0h3.742v2.807H72.97zm-12.162 0h3.742v2.807h-3.742zm-11.226 0h1.871v2.807h-1.871zm-12.162 0h1.871v2.807H37.42zm-12.161 0h2.807v2.807h-2.807zm-13.097 0h3.742v2.807h-3.742zM0 19.646h3.742v2.807H0zm157.166 48.646h3.742v3.742h-3.742zm-12.162 0h2.807v3.742h-2.807zm-12.162 0h2.807v3.742h-2.807zm-12.161 0h3.742v3.742h-3.742zm-11.226 0h2.807v3.742h-2.807zm-12.162 0h3.742v3.742h-3.742zm-12.162 0h3.742v3.742h-3.742zm-12.161 0h3.742v3.742H72.97zm-12.162 0h3.742v3.742h-3.742zm-11.226 0h1.871v3.742h-1.871zm-12.162 0h1.871v3.742H37.42zm-12.161 0h2.807v3.742h-2.807zm-13.097 0h3.742v3.742h-3.742zM0 68.292h3.742v3.742H0zm157.166 49.582h3.742v1.871h-3.742zm-12.162 0h2.807v1.871h-2.807zm-12.162 0h2.807v1.871h-2.807zm-12.161 0h3.742v1.871h-3.742zm-11.226 0h2.807v1.871h-2.807zm-12.162 0h3.742v1.871h-3.742zm-12.162 0h3.742v1.871h-3.742zm-12.161 0h3.742v1.871H72.97zm-12.162 0h3.742v1.871h-3.742zm-11.226 0h1.871v1.871h-1.871zm-12.162 0h1.871v1.871H37.42zm-12.161 0h2.807v1.871h-2.807zm-13.097 0h3.742v1.871h-3.742zm-12.162 0h3.742v1.871H0zm157.166 47.711h3.742v3.742h-3.742zm-12.162 0h2.807v3.742h-2.807zm-12.162 0h2.807v3.742h-2.807zm-12.161 0h3.742v3.742h-3.742zm-11.226 0h2.807v3.742h-2.807zm-12.162 0h3.742v3.742h-3.742zm-12.162 0h3.742v3.742h-3.742zm-12.161 0h3.742v3.742H72.97zm-12.162 0h3.742v3.742h-3.742zm-11.226 0h1.871v3.742h-1.871zm-12.162 0h1.871v3.742H37.42zm-12.161 0h2.807v3.742h-2.807zm-13.097 0h3.742v3.742h-3.742zm-12.162 0h3.742v3.742H0zM157.166 29.001h3.742v3.742h-3.742zm-12.162 0h2.807v3.742h-2.807zm-12.162 0h2.807v3.742h-2.807zm-12.161 0h3.742v3.742h-3.742zm-11.226 0h2.807v3.742h-2.807zm-12.162 0h3.742v3.742h-3.742zm-12.162 0h3.742v3.742h-3.742zm-12.161 0h3.742v3.742H72.97zm-12.162 0h3.742v3.742h-3.742zm-11.226 0h1.871v3.742h-1.871zm-12.162 0h1.871v3.742H37.42zm-12.161 0h2.807v3.742h-2.807zm-13.097 0h3.742v3.742h-3.742zM0 29.001h3.742v3.742H0zm157.166 48.646h3.742v3.742h-3.742zm-12.162 0h2.807v3.742h-2.807zm-12.162 0h2.807v3.742h-2.807zm-12.161 0h3.742v3.742h-3.742zm-11.226 0h2.807v3.742h-2.807zm-12.162 0h3.742v3.742h-3.742zm-12.162 0h3.742v3.742h-3.742zm-12.161 0h3.742v3.742H72.97zm-12.162 0h3.742v3.742h-3.742zm-11.226 0h1.871v3.742h-1.871zm-12.162 0h1.871v3.742H37.42zm-12.161 0h2.807v3.742h-2.807zm-13.097 0h3.742v3.742h-3.742zM0 77.647h3.742v3.742H0zm157.166 49.582h3.742v1.871h-3.742zm-12.162 0h2.807v1.871h-2.807zm-12.162 0h2.807v1.871h-2.807zm-12.161 0h3.742v1.871h-3.742zm-11.226 0h2.807v1.871h-2.807zm-12.162 0h3.742v1.871h-3.742zm-12.162 0h3.742v1.871h-3.742zm-12.161 0h3.742v1.871H72.97zm-12.162 0h3.742v1.871h-3.742zm-11.226 0h1.871v1.871h-1.871zm-12.162 0h1.871v1.871H37.42zm-12.161 0h2.807v1.871h-2.807zm-13.097 0h3.742v1.871h-3.742zm-12.162 0h3.742v1.871H0zm157.166 48.647h3.742v2.807h-3.742zm-12.162 0h2.807v2.807h-2.807zm-12.162 0h2.807v2.807h-2.807zm-12.161 0h3.742v2.807h-3.742zm-11.226 0h2.807v2.807h-2.807zm-12.162 0h3.742v2.807h-3.742zm-12.162 0h3.742v2.807h-3.742zm-12.161 0h3.742v2.807H72.97zm-12.162 0h3.742v2.807h-3.742zm-11.226 0h1.871v2.807h-1.871zm-12.162 0h1.871v2.807H37.42zm-12.161 0h2.807v2.807h-2.807zm-13.097 0h3.742v2.807h-3.742zm-12.162 0h3.742v2.807H0zM157.166 39.291h3.742v2.807h-3.742zm-12.162 0h2.807v2.807h-2.807zm-12.162 0h2.807v2.807h-2.807zm-12.161 0h3.742v2.807h-3.742zm-11.226 0h2.807v2.807h-2.807zm-12.162 0h3.742v2.807h-3.742zm-12.162 0h3.742v2.807h-3.742zm-12.161 0h3.742v2.807H72.97zm-12.162 0h3.742v2.807h-3.742zm-11.226 0h1.871v2.807h-1.871zm-12.162 0h1.871v2.807H37.42zm-12.161 0h2.807v2.807h-2.807zm-13.097 0h3.742v2.807h-3.742zM0 39.291h3.742v2.807H0zm157.166 49.582h3.742v1.871h-3.742zm-12.162 0h2.807v1.871h-2.807zm-12.162 0h2.807v1.871h-2.807zm-12.161 0h3.742v1.871h-3.742zm-11.226 0h2.807v1.871h-2.807zm-12.162 0h3.742v1.871h-3.742zm-12.162 0h3.742v1.871h-3.742zm-12.161 0h3.742v1.871H72.97zm-12.162 0h3.742v1.871h-3.742zm-11.226 0h1.871v1.871h-1.871zm-12.162 0h1.871v1.871H37.42zm-12.161 0h2.807v1.871h-2.807zm-13.097 0h3.742v1.871h-3.742zM0 88.873h3.742v1.871H0zm157.166 47.711h3.742v3.742h-3.742zm-12.162 0h2.807v3.742h-2.807zm-12.162 0h2.807v3.742h-2.807zm-12.161 0h3.742v3.742h-3.742zm-11.226 0h2.807v3.742h-2.807zm-12.162 0h3.742v3.742h-3.742zm-12.162 0h3.742v3.742h-3.742zm-12.161 0h3.742v3.742H72.97zm-12.162 0h3.742v3.742h-3.742zm-11.226 0h1.871v3.742h-1.871zm-12.162 0h1.871v3.742H37.42zm-12.161 0h2.807v3.742h-2.807zm-13.097 0h3.742v3.742h-3.742zm-12.162 0h3.742v3.742H0zm157.166 48.647h3.742v3.742h-3.742zm-12.162 0h2.807v3.742h-2.807zm-12.162 0h2.807v3.742h-2.807zm-12.161 0h3.742v3.742h-3.742zm-11.226 0h2.807v3.742h-2.807zm-12.162 0h3.742v3.742h-3.742zm-12.162 0h3.742v3.742h-3.742zm-12.161 0h3.742v3.742H72.97zm-12.162 0h3.742v3.742h-3.742zm-11.226 0h1.871v3.742h-1.871zm-12.162 0h1.871v3.742H37.42zm-12.161 0h2.807v3.742h-2.807zm-13.097 0h3.742v3.742h-3.742zm-12.162 0h3.742v3.742H0z" fill="#27debf"/></svg>