<svg xmlns="http://www.w3.org/2000/svg" width="292" height="346"><path d="M286 0h6v6h-6zm-22 0h6v6h-6zm-22 0h6v6h-6zm-22 0h6v6h-6zm-22 0h6v6h-6zm-22 0h6v6h-6zm-22 0h6v6h-6zm-22 0h6v6h-6zm-21 0h6v6h-6zM88 0h6v6h-6zM66 0h6v6h-6zM44 0h6v6h-6zM22 0h6v6h-6zM0 0h6v6H0zm286 89h6v6h-6zm-22 0h6v6h-6zm-22 0h6v6h-6zm-22 0h6v6h-6zm-22 0h6v6h-6zm-22 0h6v6h-6zm-22 0h6v6h-6zm-22 0h6v6h-6zm-21 0h6v6h-6zm-23 0h6v6h-6zm-22 0h6v6h-6zm-22 0h6v6h-6zm-22 0h6v6h-6zM0 89h6v6H0zm286 90h6v5h-6zm-22 0h6v5h-6zm-22 0h6v5h-6zm-22 0h6v5h-6zm-22 0h6v5h-6zm-22 0h6v5h-6zm-22 0h6v5h-6zm-22 0h6v5h-6zm-21 0h6v5h-6zm-23 0h6v5h-6zm-22 0h6v5h-6zm-22 0h6v5h-6zm-22 0h6v5h-6zm-22 0h6v5H0zm286 90h6v5h-6zm-22 0h6v5h-6zm-22 0h6v5h-6zm-22 0h6v5h-6zm-22 0h6v5h-6zm-22 0h6v5h-6zm-22 0h6v5h-6zm-22 0h6v5h-6zm-21 0h6v5h-6zm-23 0h6v5h-6zm-22 0h6v5h-6zm-22 0h6v5h-6zm-22 0h6v5h-6zm-22 0h6v5H0zM286 18h6v5h-6zm-22 0h6v5h-6zm-22 0h6v5h-6zm-22 0h6v5h-6zm-22 0h6v5h-6zm-22 0h6v5h-6zm-22 0h6v5h-6zm-22 0h6v5h-6zm-21 0h6v5h-6zm-23 0h6v5h-6zm-22 0h6v5h-6zm-22 0h6v5h-6zm-22 0h6v5h-6zM0 18h6v5H0zm286 90h6v5h-6zm-22 0h6v5h-6zm-22 0h6v5h-6zm-22 0h6v5h-6zm-22 0h6v5h-6zm-22 0h6v5h-6zm-22 0h6v5h-6zm-22 0h6v5h-6zm-21 0h6v5h-6zm-23 0h6v5h-6zm-22 0h6v5h-6zm-22 0h6v5h-6zm-22 0h6v5h-6zm-22 0h6v5H0zm286 89h6v6h-6zm-22 0h6v6h-6zm-22 0h6v6h-6zm-22 0h6v6h-6zm-22 0h6v6h-6zm-22 0h6v6h-6zm-22 0h6v6h-6zm-22 0h6v6h-6zm-21 0h6v6h-6zm-23 0h6v6h-6zm-22 0h6v6h-6zm-22 0h6v6h-6zm-22 0h6v6h-6zm-22 0h6v6H0zm286 89h6v6h-6zm-22 0h6v6h-6zm-22 0h6v6h-6zm-22 0h6v6h-6zm-22 0h6v6h-6zm-22 0h6v6h-6zm-22 0h6v6h-6zm-22 0h6v6h-6zm-21 0h6v6h-6zm-23 0h6v6h-6zm-22 0h6v6h-6zm-22 0h6v6h-6zm-22 0h6v6h-6zm-22 0h6v6H0zM286 36h6v6h-6zm-22 0h6v6h-6zm-22 0h6v6h-6zm-22 0h6v6h-6zm-22 0h6v6h-6zm-22 0h6v6h-6zm-22 0h6v6h-6zm-22 0h6v6h-6zm-21 0h6v6h-6zm-23 0h6v6h-6zm-22 0h6v6h-6zm-22 0h6v6h-6zm-22 0h6v6h-6zM0 36h6v6H0zm286 90h6v5h-6zm-22 0h6v5h-6zm-22 0h6v5h-6zm-22 0h6v5h-6zm-22 0h6v5h-6zm-22 0h6v5h-6zm-22 0h6v5h-6zm-22 0h6v5h-6zm-21 0h6v5h-6zm-23 0h6v5h-6zm-22 0h6v5h-6zm-22 0h6v5h-6zm-22 0h6v5h-6zm-22 0h6v5H0zm286 89h6v5h-6zm-22 0h6v5h-6zm-22 0h6v5h-6zm-22 0h6v5h-6zm-22 0h6v5h-6zm-22 0h6v5h-6zm-22 0h6v5h-6zm-22 0h6v5h-6zm-21 0h6v5h-6zm-23 0h6v5h-6zm-22 0h6v5h-6zm-22 0h6v5h-6zm-22 0h6v5h-6zm-22 0h6v5H0zm286 89h6v6h-6zm-22 0h6v6h-6zm-22 0h6v6h-6zm-22 0h6v6h-6zm-22 0h6v6h-6zm-22 0h6v6h-6zm-22 0h6v6h-6zm-22 0h6v6h-6zm-21 0h6v6h-6zm-23 0h6v6h-6zm-22 0h6v6h-6zm-22 0h6v6h-6zm-22 0h6v6h-6zm-22 0h6v6H0zM286 54h6v6h-6zm-22 0h6v6h-6zm-22 0h6v6h-6zm-22 0h6v6h-6zm-22 0h6v6h-6zm-22 0h6v6h-6zm-22 0h6v6h-6zm-22 0h6v6h-6zm-21 0h6v6h-6zm-23 0h6v6h-6zm-22 0h6v6h-6zm-22 0h6v6h-6zm-22 0h6v6h-6zM0 54h6v6H0zm286 89h6v6h-6zm-22 0h6v6h-6zm-22 0h6v6h-6zm-22 0h6v6h-6zm-22 0h6v6h-6zm-22 0h6v6h-6zm-22 0h6v6h-6zm-22 0h6v6h-6zm-21 0h6v6h-6zm-23 0h6v6h-6zm-22 0h6v6h-6zm-22 0h6v6h-6zm-22 0h6v6h-6zm-22 0h6v6H0zm286 90h6v5h-6zm-22 0h6v5h-6zm-22 0h6v5h-6zm-22 0h6v5h-6zm-22 0h6v5h-6zm-22 0h6v5h-6zm-22 0h6v5h-6zm-22 0h6v5h-6zm-21 0h6v5h-6zm-23 0h6v5h-6zm-22 0h6v5h-6zm-22 0h6v5h-6zm-22 0h6v5h-6zm-22 0h6v5H0zm286 90h6v5h-6zm-22 0h6v5h-6zm-22 0h6v5h-6zm-22 0h6v5h-6zm-22 0h6v5h-6zm-22 0h6v5h-6zm-22 0h6v5h-6zm-22 0h6v5h-6zm-21 0h6v5h-6zm-23 0h6v5h-6zm-22 0h6v5h-6zm-22 0h6v5h-6zm-22 0h6v5h-6zm-22 0h6v5H0zM286 72h6v5h-6zm-22 0h6v5h-6zm-22 0h6v5h-6zm-22 0h6v5h-6zm-22 0h6v5h-6zm-22 0h6v5h-6zm-22 0h6v5h-6zm-22 0h6v5h-6zm-21 0h6v5h-6zm-23 0h6v5h-6zm-22 0h6v5h-6zm-22 0h6v5h-6zm-22 0h6v5h-6zM0 72h6v5H0zm286 90h6v5h-6zm-22 0h6v5h-6zm-22 0h6v5h-6zm-22 0h6v5h-6zm-22 0h6v5h-6zm-22 0h6v5h-6zm-22 0h6v5h-6zm-22 0h6v5h-6zm-21 0h6v5h-6zm-23 0h6v5h-6zm-22 0h6v5h-6zm-22 0h6v5h-6zm-22 0h6v5h-6zm-22 0h6v5H0zm286 89h6v6h-6zm-22 0h6v6h-6zm-22 0h6v6h-6zm-22 0h6v6h-6zm-22 0h6v6h-6zm-22 0h6v6h-6zm-22 0h6v6h-6zm-22 0h6v6h-6zm-21 0h6v6h-6zm-23 0h6v6h-6zm-22 0h6v6h-6zm-22 0h6v6h-6zm-22 0h6v6h-6zm-22 0h6v6H0zm286 89h6v6h-6zm-22 0h6v6h-6zm-22 0h6v6h-6zm-22 0h6v6h-6zm-22 0h6v6h-6zm-22 0h6v6h-6zm-22 0h6v6h-6zm-22 0h6v6h-6zm-21 0h6v6h-6zm-23 0h6v6h-6zm-22 0h6v6h-6zm-22 0h6v6h-6zm-22 0h6v6h-6zm-22 0h6v6H0z" fill="#27debf"/></svg>