<svg width="53" height="13" fill="none" xmlns="http://www.w3.org/2000/svg"><path d="M3.728 2.96v2.272h3.664v2.112H3.728v2.464h4.144V12H.992V.768h6.88V2.96H3.728zm10.416 6.48l1.936-6.368h2.912L15.824 12h-3.376L9.28 3.072h2.928l1.936 6.368zm5.936-1.92c0-.917.17-1.723.512-2.416.352-.693.827-1.227 1.424-1.6a3.697 3.697 0 012-.56c.63 0 1.179.128 1.648.384.48.256.848.592 1.104 1.008V3.072h2.736V12h-2.736v-1.264a2.94 2.94 0 01-1.12 1.008c-.47.256-1.019.384-1.648.384a3.669 3.669 0 01-1.984-.56c-.597-.384-1.072-.923-1.424-1.616-.341-.704-.512-1.515-.512-2.432zm6.688.016c0-.683-.192-1.221-.576-1.616a1.82 1.82 0 00-1.376-.592 1.87 1.87 0 00-1.392.592c-.373.384-.56.917-.56 1.6s.186 1.227.56 1.632a1.87 1.87 0 001.392.592 1.82 1.82 0 001.376-.592c.384-.395.576-.933.576-1.616zm10.635-4.56c1.046 0 1.878.341 2.496 1.024.63.672.944 1.6.944 2.784V12h-2.72V7.152c0-.597-.154-1.061-.464-1.392-.31-.33-.725-.496-1.248-.496-.522 0-.938.165-1.248.496-.31.33-.464.795-.464 1.392V12h-2.736V3.072H34.7v1.184c.278-.395.65-.704 1.12-.928.47-.235.998-.352 1.584-.352zM42.68 7.52c0-.917.171-1.723.513-2.416.352-.693.826-1.227 1.424-1.6a3.697 3.697 0 012-.56c.629 0 1.178.128 1.648.384.48.256.847.592 1.103 1.008V3.072h2.736V12h-2.736v-1.264a2.94 2.94 0 01-1.12 1.008c-.469.256-1.018.384-1.648.384a3.669 3.669 0 01-1.983-.56c-.598-.384-1.072-.923-1.424-1.616-.342-.704-.512-1.515-.512-2.432zm6.688.016c0-.683-.192-1.221-.576-1.616a1.82 1.82 0 00-1.376-.592c-.543 0-1.008.197-1.391.592-.374.384-.56.917-.56 1.6s.186 1.227.56 1.632c.383.395.848.592 1.392.592a1.82 1.82 0 001.375-.592c.384-.395.576-.933.576-1.616z" fill="#736CB2"/></svg>