<?xml version="1.0" standalone="no"?>
<!DOCTYPE svg PUBLIC "-//W3C//DTD SVG 20010904//EN"
 "http://www.w3.org/TR/2001/REC-SVG-20010904/DTD/svg10.dtd">
<svg version="1.0" xmlns="http://www.w3.org/2000/svg"
 width="700.000000pt" height="700.000000pt" viewBox="0 0 700.000000 700.000000"
 preserveAspectRatio="xMidYMid meet">
<metadata>
Created by potrace 1.14, written by Peter Selinger 2001-2017
</metadata>
<g transform="translate(0.000000,700.000000) scale(0.100000,-0.100000)"
fill="#000000" stroke="none">
<path d="M3380 5039 c-160 -7 -255 -22 -398 -65 -520 -156 -868 -551 -994
-1127 -20 -91 -22 -131 -23 -362 0 -290 10 -362 81 -574 187 -563 630 -912
1244 -982 142 -16 384 -6 523 21 455 89 832 373 1037 780 94 186 90 163 90
575 l0 365 -780 0 -780 0 0 -270 0 -270 465 0 464 0 -14 -41 c-66 -186 -207
-345 -380 -429 -104 -51 -183 -69 -325 -77 -440 -22 -761 221 -856 649 -12 54
-16 120 -15 249 1 153 4 190 26 275 46 181 148 348 271 443 139 107 275 151
463 151 143 0 232 -18 336 -68 108 -52 189 -122 250 -216 l50 -76 390 2 390 3
-4 30 c-7 65 -54 205 -101 301 -161 331 -459 563 -861 668 -167 44 -301 55
-549 45z"/>
</g>
</svg>
