<?xml version="1.0" encoding="utf-8"?><svg viewBox="0 0 568 512" xmlns="http://www.w3.org/2000/svg" xmlns:xlink="http://www.w3.org/1999/xlink"><style>:root>svg{display:none}:root>svg:target{display:block}</style><svg viewBox="0 0 27 27" id="agree" xmlns="http://www.w3.org/2000/svg"><g transform="translate(-1509 -4541)"><circle cx="13.5" cy="13.5" r="13.5" transform="translate(1509 4541)" fill="#29d089"/><path d="M1519.633 4557.77l-3.475-3.475-1.158 1.155 4.633 4.633 9.929-9.929-1.162-1.154z" fill="#fff" stroke="#fff"/></g></svg><svg viewBox="0 0 28.111 28.111" id="facebook" xmlns="http://www.w3.org/2000/svg"><path d="M25.1 0H3.012A3.012 3.012 0 000 3.012V25.1a3.012 3.012 0 003.012 3.012h8.612v-9.558H7.671v-4.5h3.953v-3.427c0-3.9 2.322-6.054 5.878-6.054a23.949 23.949 0 013.484.3V8.7h-1.963a2.249 2.249 0 00-2.536 2.43v2.921H20.8l-.69 4.5h-3.623v9.557H25.1a3.012 3.012 0 003.011-3.008V3.012A3.012 3.012 0 0025.1 0z"/></svg><svg viewBox="0 0 28.111 28.111" id="instagram" xmlns="http://www.w3.org/2000/svg"><path d="M14.059 6.848a7.207 7.207 0 107.206 7.207 7.2 7.2 0 00-7.206-7.207zm0 11.893a4.686 4.686 0 114.685-4.686 4.694 4.694 0 01-4.685 4.686zM23.24 6.553a1.681 1.681 0 11-1.681-1.678 1.677 1.677 0 011.681 1.678zm4.772 1.706a8.32 8.32 0 00-2.27-5.89A8.371 8.371 0 0019.853.098c-2.32-.132-9.275-.132-11.6 0a8.359 8.359 0 00-5.889 2.264 8.348 8.348 0 00-2.27 5.89c-.132 2.321-.132 9.277 0 11.6a8.32 8.32 0 002.27 5.89 8.382 8.382 0 005.889 2.271c2.32.132 9.275.132 11.6 0a8.316 8.316 0 005.889-2.271 8.375 8.375 0 002.27-5.89c.132-2.321.132-9.271.001-11.592zm-3 14.082a4.743 4.743 0 01-2.672 2.672c-1.85.734-6.24.565-8.284.565s-6.441.163-8.284-.565A4.743 4.743 0 013.1 22.341c-.734-1.85-.564-6.241-.564-8.286s-.163-6.442.564-8.286a4.743 4.743 0 012.675-2.672c1.85-.734 6.24-.565 8.284-.565s6.441-.163 8.284.565a4.743 4.743 0 012.672 2.672c.734 1.85.564 6.241.564 8.286s.17 6.443-.564 8.287z"/></svg><svg viewBox="0 0 19.109 15.971" id="lines" xmlns="http://www.w3.org/2000/svg"><path d="M10.905 1h-9.9m17.104 6.925H1.142m13.018 7.046H1.354" fill="none" stroke="#fff" stroke-linecap="round" stroke-width="2"/></svg><svg viewBox="0 0 512 512" id="minus" xmlns="http://www.w3.org/2000/svg"><path d="M417.4 224H94.6C77.7 224 64 238.3 64 256s13.7 32 30.6 32h322.8c16.9 0 30.6-14.3 30.6-32s-13.7-32-30.6-32z"/></svg><svg viewBox="0 0 568 22" id="path" xmlns="http://www.w3.org/2000/svg"><g opacity=".2" stroke="#000" stroke-linecap="round" stroke-width="3"><g fill="none"><circle cx="11" cy="11" r="11" stroke="none"/><circle cx="11" cy="11" r="9.5"/></g><path d="M547.36 11.5H20.616" fill="none" stroke-dasharray="16"/><g transform="translate(546)"><circle cx="11" cy="11" r="11" stroke="none"/><circle cx="11" cy="11" r="9.5" fill="none"/></g></g></svg><svg viewBox="0 0 32 32" id="plane" xmlns="http://www.w3.org/2000/svg"><path d="M24.687 30.163c-.402 0-.843-.132-1.32-.395l-10.803-7.976a.502.502 0 01-.038-.774L25.322 9.503a.499.499 0 11.669.743l-12.34 11.106 10.254 7.576c.271.145.729.329 1.055.178.332-.152.496-.637.576-1.017l4.375-20.617c.17-.681.088-1.229-.215-1.481-.231-.192-.575-.206-.947-.038L3.033 15.871c-.789.317-1.037.643-1.033.751.003.071.173.267.68.422l6.375 1.99 6.999-4.416a.5.5 0 01.533.845l-7.194 4.539a.504.504 0 01-.416.055l-6.592-2.058c-1.17-.358-1.37-.99-1.384-1.335-.02-.473.253-1.157 1.667-1.723l25.695-9.908c.697-.318 1.445-.25 1.974.191.613.511.813 1.413.549 2.474l-4.371 20.598c-.184.878-.566 1.457-1.137 1.719a1.63 1.63 0 01-.691.148z" /><path d="M24.687 30.163c-.402 0-.843-.132-1.32-.395l-6.72-4.959a.5.5 0 11.594-.804l6.664 4.923c.271.145.729.329 1.055.178.332-.152.496-.637.576-1.017l4.375-20.617c.17-.681.088-1.229-.215-1.481-.231-.192-.575-.206-.947-.038L3.033 15.871c-.789.317-1.037.643-1.033.751.003.071.173.267.68.422l6.594 2.058a.503.503 0 01.33.332l2.267 7.461c.061.167.108.333.149.477.032.114.072.256.099.298-.004-.005.076.019.289.02.447 0 .617-.167.957-.498l1.66-1.614a.5.5 0 01.697.717L14.09 27.88c-.402.393-.828.809-1.682.809-.98 0-1.178-.434-1.351-1.046-.035-.124-.075-.267-.135-.432l-2.198-7.233-6.339-1.979c-1.17-.358-1.37-.99-1.384-1.335-.02-.473.253-1.157 1.667-1.723l25.695-9.908c.697-.318 1.445-.25 1.974.191.613.511.813 1.413.549 2.474l-4.371 20.598c-.184.878-.566 1.457-1.137 1.719a1.63 1.63 0 01-.691.148z" /><path d="M18.5 14c0 .275-.225.5-.5.5a.501.501 0 01-.5-.5c0-.275.225-.5.5-.5s.5.225.5.5z" /></svg><svg viewBox="0 0 32 32" id="plus" xmlns="http://www.w3.org/2000/svg"><path d="M28 14H18V4a2 2 0 00-4 0v10H4a2 2 0 000 4h10v10a2 2 0 004 0V18h10a2 2 0 000-4z"/></svg><svg viewBox="0 0 22.899 23.754" id="schedule" xmlns="http://www.w3.org/2000/svg"><path d="M2.031 2.577h1.978V1A1.112 1.112 0 015.24 0h1.689a.986.986 0 011.088 1v1.576h6.869V1a.986.986 0 011.088-1h1.689a1.112 1.112 0 011.231 1v1.576h1.832a2.118 2.118 0 012.17 2.058v16.687a2.329 2.329 0 01-2.175 2.433H2.177a2.329 2.329 0 01-2.175-2.433V4.779a2.118 2.118 0 012.029-2.202zm4.9-1.432H5.153v3.148h1.774zm10.732 0h-1.635v3.148h1.631zM1.146 21.321a1.189 1.189 0 001.03 1.288h18.546a1.189 1.189 0 001.03-1.288V9.158H1.146v12.163zm0-16.542v3.234h20.606V4.779a.973.973 0 00-1.03-1.059H18.89v.63a1.178 1.178 0 01-1.231 1.088h-1.688a1.059 1.059 0 01-1.088-1.03V3.72H8.015v.63a1.059 1.059 0 01-1.03 1.088H5.239A1.178 1.178 0 014.008 4.35v-.63H2.177a.973.973 0 00-1.031 1.059z"/></svg><svg viewBox="0 0 22.989 22.989" id="time" xmlns="http://www.w3.org/2000/svg"><path d="M4.576 11.5a.856.856 0 01.851-.862h5.205v-5.2a.865.865 0 111.73 0v6.056a.865.865 0 01-.865.865H5.426a.856.856 0 01-.85-.862m-2.6-.005a9.516 9.516 0 109.516-9.518 9.517 9.517 0 00-9.516 9.518m-1.726.003a11.245 11.245 0 1111.244 11.244A11.244 11.244 0 01.25 11.495" stroke="#fff" stroke-width=".5"/></svg><svg viewBox="0 0 32.141 26.104" id="twitter" xmlns="http://www.w3.org/2000/svg"><path d="M28.837 6.506c.02.285.02.571.02.857 0 8.708-6.628 18.742-18.742 18.742A18.615 18.615 0 010 23.147a13.627 13.627 0 001.591.082 13.192 13.192 0 008.178-2.811 6.6 6.6 0 01-6.159-4.572 8.308 8.308 0 001.244.1 6.967 6.967 0 001.733-.224 6.588 6.588 0 01-5.282-6.465v-.082a6.634 6.634 0 002.977.836 6.6 6.6 0 01-2.039-8.81 18.724 18.724 0 0013.582 6.893 7.436 7.436 0 01-.163-1.509 6.593 6.593 0 0111.4-4.507A12.969 12.969 0 0031.243.487a6.569 6.569 0 01-2.9 3.63 13.205 13.205 0 003.793-1.02 14.16 14.16 0 01-3.3 3.406z"/></svg></svg>