<svg width="103" height="26" viewBox="0 0 103 26" fill="none" xmlns="http://www.w3.org/2000/svg">
<path d="M7.03776 0.974856L0.338867 3.16881L1.09944 5.88932L5.01931 4.63145V20.2817H8.12011V0.974856H7.03776Z" fill="black"/>
<path d="M12.4685 12.2957H19.6647V9.69219H12.4685V12.2957Z" fill="black"/>
<path d="M22.1438 16.4203C23.6357 19.0238 26.2685 20.6035 29.4278 20.6035C33.1429 20.6035 35.8927 18.3803 35.8927 15.0162C35.8927 12.4712 34.4008 10.9501 31.2707 9.51667L29.106 8.52207C27.2046 7.55673 26.5318 7.29346 26.4148 5.77231C26.4148 4.25117 27.7019 3.43209 29.34 3.43209C30.9782 3.43209 32.3823 4.25117 33.4062 5.77231L35.5709 4.1049C34.3715 2.02796 32.0605 0.653076 29.34 0.653076C26.0052 0.653076 23.2555 2.73002 23.2555 5.88932C23.2555 8.46357 24.9521 9.95546 27.7604 11.2426L29.8958 12.2372C31.9143 13.1733 32.7334 13.7583 32.7334 15.1332C32.7334 16.7714 31.3877 17.8245 29.3985 17.8245C27.1753 17.8245 25.6249 16.6251 24.3378 14.7529L22.1438 16.4203Z" fill="black"/>
<path d="M54.5733 13.0855C54.5733 8.84385 51.5895 5.5968 47.5234 5.5968C45.4172 5.5968 43.5742 6.44513 42.5211 7.93702V5.91858H39.6544V25.5472H42.7259V18.5265C43.8668 19.8429 45.5634 20.6035 47.5234 20.6035C51.5895 20.6035 54.5733 17.3857 54.5733 13.0855ZM51.414 13.1148C51.414 15.8645 49.4833 17.7952 47.0261 17.7952C44.7736 17.7952 42.6967 16.2448 42.6967 13.0855C42.6967 9.95546 44.7736 8.40506 47.0261 8.40506C49.5126 8.40506 51.414 10.365 51.414 13.1148Z" fill="black"/>
<path d="M69.5174 11.5936C69.5174 7.73225 67.1771 5.5968 63.6375 5.5968C61.1511 5.5968 59.0156 6.59139 57.5822 8.66834L59.3666 10.482C60.566 9.04862 61.7361 8.34656 63.345 8.34656C65.305 8.34656 66.4166 9.42891 66.4166 11.4181V12.3542H62.3504C59.1034 12.3542 57.0557 13.9631 57.0557 16.4496C57.0557 18.9361 59.0449 20.6035 62.0579 20.6035C64.0178 20.6035 65.5975 19.9307 66.6506 18.6728V20.2817H69.5174V11.5936ZM66.4166 14.8407C66.4166 16.8006 64.7784 18.234 62.7015 18.234C61.2096 18.234 60.1857 17.5319 60.1857 16.3326C60.1857 15.1625 61.0926 14.5774 62.7307 14.5774H66.4166V14.8407Z" fill="black"/>
<path d="M72.8853 13.0855C72.8853 17.2687 76.2494 20.6035 80.491 20.6035C83.0945 20.6035 85.2592 19.3456 86.5464 17.2687L84.3817 15.6012C83.3286 17.0346 82.0414 17.766 80.5203 17.766C77.946 17.766 76.0154 15.7183 76.0154 13.0855C76.0154 10.482 77.946 8.43432 80.5203 8.43432C82.0707 8.43432 83.3578 9.16564 84.3817 10.6283L86.5464 8.93161C85.2885 6.85467 83.153 5.5968 80.491 5.5968C76.3664 5.53829 72.7976 8.96087 72.8853 13.0855Z" fill="black"/>
<path d="M102.577 14.1094C102.723 13.4365 102.811 12.793 102.811 12.1787C102.811 8.43432 99.9732 5.5968 96.1703 5.5968C92.1042 5.50904 88.6523 8.99012 88.7401 13.1148C88.7401 17.3564 92.0749 20.6035 96.4628 20.6035C98.6568 20.6035 100.558 19.8429 102.196 18.2925L100.734 16.1863C99.4466 17.3272 98.0425 17.883 96.5506 17.883C94.0933 17.883 92.2504 16.4496 91.8701 14.1094H102.577ZM91.9286 11.7106C92.3967 9.57517 94.0348 8.20029 96.0533 8.20029C98.0717 8.20029 99.7099 9.51667 99.7391 11.7106H91.9286Z" fill="black"/>
</svg>
