<svg width="271" height="170" viewBox="0 0 271 170" fill="none" xmlns="http://www.w3.org/2000/svg">
<path d="M4.6679 98.8816C3.94301 98.9164 3.23186 98.6753 2.67753 98.2069C2.444 97.9286 2.26971 97.6055 2.1653 97.2575C2.06089 96.9094 2.02857 96.5438 2.0703 96.1828V27.3634C2.02857 27.0025 2.06089 26.6368 2.1653 26.2888C2.26971 25.9407 2.444 25.6177 2.67753 25.3393C3.23746 24.9149 3.93372 24.7108 4.63416 24.7658H12.1233C12.8047 24.6977 13.4861 24.8945 14.0263 25.3153C14.5665 25.7361 14.9239 26.3487 15.0245 27.026L15.7667 29.7249C17.9239 27.6429 20.4683 26.004 23.2559 24.9007C26.1069 23.7461 29.1534 23.1505 32.2294 23.1465C35.2537 23.0461 38.2591 23.6597 41.0021 24.9374C43.745 26.2151 46.1484 28.121 48.0174 30.5008C52.1948 36.2549 54.2672 43.2702 53.8873 50.3707C54.0024 55.5244 53.0132 60.6431 50.9861 65.3828C49.3119 69.33 46.5947 72.747 43.1258 75.2671C39.7706 77.5549 35.7832 78.7346 31.7234 78.6406C28.9675 78.6547 26.2294 78.1984 23.627 77.2912C21.2367 76.488 19.0254 75.2277 17.1161 73.5804V96.2503C17.1918 96.9736 16.9864 97.6983 16.5426 98.2744C15.9665 98.7182 15.2418 98.9235 14.5185 98.8479L4.6679 98.8816V98.8816ZM27.3716 67.3057C29.0119 67.4233 30.6553 67.1229 32.148 66.4326C33.6406 65.7424 34.9338 64.6847 35.9065 63.3587C38.0087 59.5878 38.9588 55.2833 38.6391 50.9779C38.9626 46.6332 38.0255 42.2875 35.9403 38.4622C34.964 37.1231 33.6604 36.057 32.1542 35.3659C30.648 34.6748 28.9896 34.3819 27.3378 34.5152C23.7733 34.5171 20.2759 35.4847 17.2173 37.3152V64.4719C20.2535 66.3611 23.7619 67.3529 27.3378 67.3394L27.3716 67.3057V67.3057ZM66.7066 77.5611C66.351 77.6276 65.9845 77.6064 65.6389 77.4993C65.2934 77.3923 64.9791 77.2027 64.7232 76.9469C64.4674 76.691 64.2778 76.3767 64.1708 76.0312C64.0638 75.6856 64.0426 75.3191 64.109 74.9635V27.3634C64.0673 27.0025 64.0996 26.6368 64.204 26.2888C64.3084 25.9407 64.4827 25.6177 64.7162 25.3393C65.2762 24.9149 65.9724 24.7108 66.6729 24.7658H74.1283C74.8097 24.6977 75.4911 24.8945 76.0313 25.3153C76.5714 25.7361 76.9289 26.3487 77.0295 27.026L78.3789 32.5586C80.5947 29.9643 83.2426 27.773 86.2054 26.0815C88.6206 24.8175 91.3061 24.1577 94.032 24.1586H95.4826C96.2153 24.0941 96.9466 24.2979 97.5404 24.7321C98.0127 25.2954 98.232 26.0275 98.1476 26.7562V35.4598C98.2059 36.1606 98.0014 36.858 97.5741 37.4164C97.2958 37.65 96.9727 37.8243 96.6247 37.9287C96.2767 38.0331 95.911 38.0654 95.55 38.0237H90.7934C88.8423 38.0643 86.8994 38.2902 84.991 38.6984C83.0006 39.0695 81.0575 39.6429 79.1886 40.4188V74.9972C79.2436 75.6977 79.0395 76.394 78.6151 76.9539C78.3367 77.1874 78.0136 77.3617 77.6656 77.4661C77.3176 77.5705 76.9519 77.6028 76.591 77.5611H66.7066V77.5611ZM113.092 16.5345C110.791 16.6489 108.533 15.8762 106.784 14.3754C105.981 13.6236 105.351 12.7063 104.937 11.6869C104.524 10.6676 104.336 9.57059 104.389 8.47179C104.331 7.36739 104.516 6.2638 104.93 5.23822C105.343 4.21264 105.976 3.28985 106.784 2.53443C108.579 1.09786 110.81 0.315186 113.109 0.315186C115.408 0.315186 117.639 1.09786 119.434 2.53443C121.06 4.05587 121.931 6.21492 121.83 8.43805C121.882 9.53685 121.695 10.6339 121.281 11.6532C120.868 12.6725 120.237 13.5899 119.434 14.3417C117.682 15.8628 115.41 16.6484 113.092 16.5345V16.5345ZM108.133 77.5948C107.778 77.6613 107.411 77.6401 107.066 77.5331C106.72 77.426 106.406 77.2364 106.15 76.9806C105.894 76.7248 105.704 76.4105 105.597 76.0649C105.49 75.7193 105.469 75.3529 105.536 74.9972V27.3634C105.494 27.0025 105.526 26.6368 105.631 26.2888C105.735 25.9407 105.909 25.6177 106.143 25.3393C106.703 24.9149 107.399 24.7108 108.099 24.7658H118.051C118.775 24.6902 119.499 24.8955 120.075 25.3393C120.519 25.9154 120.725 26.6401 120.649 27.3634V74.9972C120.707 75.698 120.503 76.3954 120.075 76.9539C119.797 77.1874 119.474 77.3617 119.126 77.4661C118.778 77.5705 118.412 77.6028 118.051 77.5611L108.133 77.5948V77.5948ZM136.066 77.5611C135.71 77.6276 135.344 77.6064 134.998 77.4993C134.653 77.3923 134.338 77.2027 134.082 76.9469C133.827 76.691 133.637 76.3767 133.53 76.0312C133.423 75.6856 133.402 75.3191 133.468 74.9635V27.3634C133.426 27.0025 133.459 26.6368 133.563 26.2888C133.668 25.9407 133.842 25.6177 134.075 25.3393C134.635 24.9149 135.332 24.7108 136.032 24.7658H143.487C144.169 24.6977 144.85 24.8945 145.39 25.3153C145.931 25.7361 146.288 26.3487 146.389 27.026L147.232 29.8261C150.301 27.7123 153.621 25.9898 157.116 24.6983C160.003 23.6935 163.034 23.1692 166.09 23.1465C168.695 22.9233 171.311 23.4376 173.637 24.6308C175.964 25.8239 177.908 27.6477 179.247 29.8935C182.326 27.7757 185.673 26.0742 189.198 24.8333C192.31 23.7981 195.568 23.274 198.847 23.2815C200.896 23.1579 202.949 23.4531 204.88 24.1491C206.812 24.8451 208.581 25.9273 210.08 27.3297C211.463 28.8463 212.528 30.6249 213.212 32.5602C213.896 34.4955 214.185 36.5483 214.061 38.5972V74.9972C214.116 75.6977 213.912 76.394 213.488 76.9539C213.209 77.1874 212.886 77.3617 212.538 77.4661C212.19 77.5705 211.824 77.6028 211.464 77.5611H201.647C201.291 77.6276 200.925 77.6064 200.579 77.4993C200.233 77.3923 199.919 77.2027 199.663 76.9469C199.407 76.691 199.218 76.3767 199.111 76.0312C199.004 75.6856 198.983 75.3191 199.049 74.9635V41.7683C199.049 37.069 196.947 34.7176 192.741 34.7176C188.819 34.7628 184.958 35.6849 181.439 37.4164V74.9972C181.498 75.698 181.293 76.3954 180.866 76.9539C180.588 77.1874 180.264 77.3617 179.916 77.4661C179.568 77.5705 179.203 77.6028 178.842 77.5611H168.924C168.568 77.6276 168.202 77.6064 167.856 77.4993C167.51 77.3923 167.196 77.2027 166.94 76.9469C166.685 76.691 166.495 76.3767 166.388 76.0312C166.281 75.6856 166.26 75.3191 166.326 74.9635V41.7683C166.326 37.069 164.224 34.7176 160.018 34.7176C156.05 34.7424 152.143 35.7017 148.615 37.5176V74.9635C148.67 75.664 148.466 76.3602 148.042 76.9201C147.763 77.1537 147.44 77.328 147.092 77.4324C146.744 77.5368 146.379 77.5691 146.018 77.5274L136.066 77.5611V77.5611ZM250.158 79.1129C246.561 79.3486 242.954 78.8446 239.56 77.6319C236.165 76.4192 233.056 74.5237 230.423 72.0623C228.012 69.3041 226.175 66.0942 225.017 62.6193C223.858 59.1445 223.402 55.4739 223.676 51.8213C223.19 44.1718 225.653 36.6269 230.558 30.7369C233.084 28.1288 236.142 26.095 239.524 24.7737C242.906 23.4523 246.532 22.8744 250.158 23.0791C255.582 22.7563 260.939 24.4103 265.237 27.7345C267.032 29.2654 268.453 31.1853 269.395 33.3481C270.336 35.511 270.771 37.8599 270.669 40.2164C270.789 42.5139 270.312 44.8033 269.283 46.861C268.254 48.9187 266.709 50.6743 264.799 51.9562C259.567 54.9444 253.572 56.3287 247.56 55.937C244.152 55.9777 240.752 55.5924 237.44 54.79C237.449 56.6372 237.824 58.4642 238.542 60.1662C239.26 61.8683 240.307 63.4117 241.623 64.7081C244.771 66.9417 248.602 68.0038 252.452 67.7105C254.334 67.7105 256.216 67.5857 258.085 67.3394C260.655 66.9402 263.2 66.3996 265.709 65.7201H266.823C267.993 65.7201 268.577 66.5196 268.577 68.1153V72.8719C268.642 73.6769 268.478 74.4838 268.105 75.1997C267.626 75.763 266.991 76.1712 266.283 76.3804C261.121 78.2797 255.656 79.2074 250.158 79.1129V79.1129ZM246.784 46.6261C249.438 46.8192 252.093 46.2579 254.442 45.0068C256.055 43.9037 256.965 42.0314 256.837 40.0815C256.837 35.7398 254.25 33.5706 249.078 33.5706C242.442 33.5706 238.61 37.6425 237.574 45.7827C240.587 46.3596 243.647 46.643 246.717 46.6261H246.784V46.6261ZM244.726 135.687C215.174 157.479 172.331 169.05 135.459 169.05C86.1845 169.315 38.5843 151.187 1.9691 118.212C-0.797176 115.715 1.66548 112.308 5.00525 114.231C45.6824 137.457 91.721 149.656 138.562 149.619C173.515 149.433 208.089 142.36 240.307 128.805C245.435 126.679 249.618 131.942 244.726 135.687Z" fill="#00A8E1"/>
<path d="M257.174 121.821C253.396 116.997 232.211 119.527 222.664 120.674C219.762 121.012 219.29 118.515 221.921 116.694C238.789 104.819 266.553 108.26 269.758 112.241C272.962 116.221 268.914 143.985 252.89 157.243C250.461 159.267 248.133 158.188 249.213 155.489C252.823 146.414 260.818 126.51 257.174 121.821Z" fill="#00A8E1"/>
</svg>
