<svg width="270" height="73" viewBox="0 0 270 73" fill="none" xmlns="http://www.w3.org/2000/svg">
<path d="M179.644 0H168.274V63.5834C178.572 63.9378 188.863 64.4578 199.144 65.1433V53.9412C192.648 53.5085 186.147 53.1411 179.644 52.8389V0V0ZM270 0.00643205H257.51L249.278 19.0871L241.882 0.00643205H229.58L242.799 34.101L228.369 67.5489C232.361 67.9383 236.342 68.3538 240.319 68.7927L248.712 49.345L257.024 70.7833C261.353 71.3399 265.671 71.9207 269.981 72.5358L270 72.5284L255.189 34.3313L270 0.00643205V0.00643205ZM129.246 63.0277L140.616 63.0253V37.1613H156.029V25.9591H140.616V11.31H160.986V0.00700077H129.246V63.0277V63.0277ZM86.7879 11.3092H98.6877V63.6939C102.477 63.5518 106.267 63.4318 110.057 63.3338V11.3092H121.957V0.00643205H86.7879V11.3092ZM47.917 66.9496C58.4308 65.9934 68.9596 65.2113 79.4992 64.6035V53.4001C72.7571 53.7906 66.0193 54.251 59.2867 54.7812V37.8214C63.6947 37.7775 69.499 37.643 74.6411 37.7069V26.5038C70.533 26.4938 63.9304 26.5612 59.2867 26.6206V11.31H79.4992V0.00700077H47.917V66.9496ZM25.614 41.0517L10.8057 0.00643205H0V72.5373C3.78679 71.9986 7.57675 71.4824 11.3697 70.9887V31.5467L24.5368 69.3692C28.6829 68.8882 32.832 68.434 36.9839 68.0066V0.00643205H25.614V41.0517V41.0517ZM208.517 65.8178C212.312 66.1082 216.102 66.4198 219.888 66.7566V0.00643205H208.517V65.8178Z" fill="#ED1C24"/>
</svg>
